AnekBangla-CondensedMedium.ufo
<glyph name="exclam" format="2">
	<advance width="374"/>
	<unicode hex="0021"/>
	<outline>
		<contour>
			<point x="256" y="383" type="line"/>
			<point x="279" y="1278" type="line"/>
			<point x="95" y="1278" type="line"/>
			<point x="118" y="383" type="line"/>
		</contour>
		<contour>
			<point x="189" y="-18" type="curve" smooth="yes"/>
			<point x="252" y="-18"/>
			<point x="284" y="25"/>
			<point x="284" y="103" type="curve" smooth="yes"/>
			<point x="284" y="120" type="line" smooth="yes"/>
			<point x="284" y="197"/>
			<point x="252" y="240"/>
			<point x="189" y="240" type="curve" smooth="yes"/>
			<point x="123" y="240"/>
			<point x="94" y="197"/>
			<point x="94" y="120" type="curve" smooth="yes"/>
			<point x="94" y="103" type="line" smooth="yes"/>
			<point x="94" y="25"/>
			<point x="123" y="-18"/>
		</contour>
	</outline>
</glyph>
<glyph name="parenleft" format="2">
	<advance width="429"/>
	<unicode hex="0028"/>
	<outline>
		<contour>
			<point x="258" y="455" type="curve" smooth="yes"/>
			<point x="258" y="657" type="line"/>
			<point x="258" y="956"/>
			<point x="298" y="1148"/>
			<point x="411" y="1352" type="curve"/>
			<point x="237" y="1352" type="line"/>
			<point x="133" y="1169"/>
			<point x="92" y="976"/>
			<point x="92" y="664" type="curve" smooth="yes"/>
			<point x="92" y="447" type="line" smooth="yes"/>
			<point x="92" y="136"/>
			<point x="133" y="-57"/>
			<point x="237" y="-240" type="curve"/>
			<point x="411" y="-240" type="line"/>
			<point x="298" y="-38"/>
			<point x="258" y="154"/>
		</contour>
	</outline>
</glyph>
<glyph name="parenright" format="2">
	<advance width="429"/>
	<unicode hex="0029"/>
	<outline>
		<contour>
			<point x="171" y="657" type="curve" smooth="yes"/>
			<point x="171" y="455" type="line" smooth="yes"/>
			<point x="171" y="154"/>
			<point x="131" y="-38"/>
			<point x="18" y="-240" type="curve"/>
			<point x="192" y="-240" type="line"/>
			<point x="296" y="-57"/>
			<point x="337" y="136"/>
			<point x="337" y="447" type="curve" smooth="yes"/>
			<point x="337" y="664" type="line" smooth="yes"/>
			<point x="337" y="976"/>
			<point x="296" y="1169"/>
			<point x="192" y="1352" type="curve"/>
			<point x="18" y="1352" type="line"/>
			<point x="131" y="1148"/>
			<point x="171" y="956"/>
		</contour>
	</outline>
</glyph>
<glyph name="asterisk" format="2">
  <advance width="628"/>
  <unicode hex="002A"/>
  <outline>
    <contour>
      <point x="204" y="711" type="line"/>
      <point x="311" y="884" type="line"/>
      <point x="315" y="884" type="line"/>
      <point x="422" y="711" type="line"/>
      <point x="540" y="785" type="line"/>
      <point x="412" y="952" type="line"/>
      <point x="413" y="956" type="line"/>
      <point x="590" y="997" type="line"/>
      <point x="559" y="1134" type="line"/>
      <point x="376" y="1071" type="line"/>
      <point x="374" y="1073" type="line"/>
      <point x="389" y="1278" type="line"/>
      <point x="239" y="1278" type="line"/>
      <point x="253" y="1073" type="line"/>
      <point x="251" y="1071" type="line"/>
      <point x="68" y="1134" type="line"/>
      <point x="38" y="997" type="line"/>
      <point x="214" y="956" type="line"/>
      <point x="215" y="952" type="line"/>
      <point x="87" y="785" type="line"/>
    </contour>
  </outline>
</glyph>
<glyph name="period" format="2">
	<advance width="298"/>
	<unicode hex="002E"/>
	<outline>
		<contour>
			<point x="149" y="-18" type="curve" smooth="yes"/>
			<point x="212" y="-18"/>
			<point x="244" y="25"/>
			<point x="244" y="103" type="curve" smooth="yes"/>
			<point x="244" y="120" type="line" smooth="yes"/>
			<point x="244" y="197"/>
			<point x="212" y="240"/>
			<point x="149" y="240" type="curve" smooth="yes"/>
			<point x="83" y="240"/>
			<point x="54" y="197"/>
			<point x="54" y="120" type="curve" smooth="yes"/>
			<point x="54" y="103" type="line" smooth="yes"/>
			<point x="54" y="25"/>
			<point x="83" y="-18"/>
		</contour>
	</outline>
</glyph>
<glyph name="one" format="2">
	<advance width="501"/>
	<unicode hex="0031"/>
	<outline>
		<contour>
			<point x="229" y="0" type="line"/>
			<point x="406" y="0" type="line"/>
			<point x="406" y="1278" type="line"/>
			<point x="239" y="1278" type="line"/>
			<point x="23" y="1103" type="line"/>
			<point x="23" y="910" type="line"/>
			<point x="217" y="1067" type="line"/>
			<point x="229" y="1067" type="line"/>
		</contour>
	</outline>
</glyph>
<glyph name="four" format="2">
  <advance width="704"/>
  <unicode hex="0034"/>
  <outline>
    <contour>
      <point x="409" y="0" type="line"/>
      <point x="576" y="0" type="line"/>
      <point x="576" y="1278" type="line"/>
      <point x="280" y="1278" type="line"/>
      <point x="36" y="391" type="line"/>
      <point x="36" y="218" type="line"/>
      <point x="677" y="218" type="line"/>
      <point x="677" y="373" type="line"/>
      <point x="122" y="373" type="line"/>
      <point x="199" y="320" type="line"/>
      <point x="199" y="383" type="line"/>
      <point x="399" y="1150" type="line"/>
      <point x="418" y="1150" type="line"/>
      <point x="409" y="826" type="line"/>
    </contour>
  </outline>
</glyph>
<glyph name="five" format="2">
  <advance width="666"/>
  <unicode hex="0035"/>
  <outline>
    <contour>
      <point x="298" y="-19" type="curve" smooth="yes"/>
      <point x="514" y="-19"/>
      <point x="600" y="104"/>
      <point x="600" y="331" type="curve" smooth="yes"/>
      <point x="600" y="511" type="line" smooth="yes"/>
      <point x="600" y="702"/>
      <point x="546" y="814"/>
      <point x="415" y="814" type="curve" smooth="yes"/>
      <point x="322" y="814"/>
      <point x="277" y="767"/>
      <point x="254" y="689" type="curve"/>
      <point x="245" y="689" type="line"/>
      <point x="249" y="863" type="line"/>
      <point x="249" y="1118" type="line"/>
      <point x="573" y="1118" type="line"/>
      <point x="573" y="1278" type="line"/>
      <point x="77" y="1278" type="line"/>
      <point x="77" y="558" type="line"/>
      <point x="243" y="542" type="line"/>
      <point x="256" y="619"/>
      <point x="280" y="663"/>
      <point x="338" y="663" type="curve" smooth="yes"/>
      <point x="402" y="663"/>
      <point x="422" y="606"/>
      <point x="422" y="506" type="curve" smooth="yes"/>
      <point x="422" y="332" type="line" smooth="yes"/>
      <point x="422" y="205"/>
      <point x="379" y="144"/>
      <point x="270" y="144" type="curve" smooth="yes"/>
      <point x="193" y="144"/>
      <point x="127" y="174"/>
      <point x="72" y="211" type="curve"/>
      <point x="84" y="39" type="line"/>
      <point x="129" y="11"/>
      <point x="201" y="-19"/>
    </contour>
  </outline>
</glyph>
<glyph name="eight" format="2">
  <advance width="720"/>
  <unicode hex="0038"/>
  <outline>
    <contour>
      <point x="360" y="-22" type="curve" smooth="yes"/>
      <point x="568" y="-22"/>
      <point x="660" y="93"/>
      <point x="660" y="297" type="curve" smooth="yes"/>
      <point x="660" y="388" type="line" smooth="yes"/>
      <point x="660" y="533"/>
      <point x="610" y="631"/>
      <point x="485" y="665" type="curve"/>
      <point x="485" y="671" type="line"/>
      <point x="602" y="703"/>
      <point x="650" y="793"/>
      <point x="650" y="923" type="curve" smooth="yes"/>
      <point x="650" y="995" type="line" smooth="yes"/>
      <point x="650" y="1189"/>
      <point x="563" y="1298"/>
      <point x="360" y="1298" type="curve" smooth="yes"/>
      <point x="158" y="1298"/>
      <point x="70" y="1189"/>
      <point x="70" y="995" type="curve" smooth="yes"/>
      <point x="70" y="923" type="line" smooth="yes"/>
      <point x="70" y="791"/>
      <point x="118" y="702"/>
      <point x="235" y="671" type="curve"/>
      <point x="235" y="665" type="line"/>
      <point x="110" y="631"/>
      <point x="60" y="533"/>
      <point x="60" y="388" type="curve" smooth="yes"/>
      <point x="60" y="297" type="line" smooth="yes"/>
      <point x="60" y="93"/>
      <point x="152" y="-22"/>
    </contour>
    <contour>
      <point x="360" y="130" type="curve" smooth="yes"/>
      <point x="272" y="130"/>
      <point x="236" y="189"/>
      <point x="236" y="300" type="curve" smooth="yes"/>
      <point x="236" y="397" type="line" smooth="yes"/>
      <point x="236" y="504"/>
      <point x="274" y="553"/>
      <point x="360" y="580" type="curve"/>
      <point x="444" y="554"/>
      <point x="484" y="505"/>
      <point x="484" y="397" type="curve" smooth="yes"/>
      <point x="484" y="300" type="line" smooth="yes"/>
      <point x="484" y="189"/>
      <point x="448" y="130"/>
    </contour>
    <contour>
      <point x="360" y="731" type="curve"/>
      <point x="281" y="759"/>
      <point x="246" y="806"/>
      <point x="246" y="911" type="curve" smooth="yes"/>
      <point x="246" y="985" type="line" smooth="yes"/>
      <point x="246" y="1092"/>
      <point x="279" y="1148"/>
      <point x="360" y="1148" type="curve" smooth="yes"/>
      <point x="442" y="1148"/>
      <point x="474" y="1092"/>
      <point x="474" y="985" type="curve" smooth="yes"/>
      <point x="474" y="911" type="line" smooth="yes"/>
      <point x="474" y="807"/>
      <point x="438" y="756"/>
    </contour>
  </outline>
</glyph>
<glyph name="nine" format="2">
	<advance width="718"/>
	<unicode hex="0039"/>
	<outline>
		<contour>
			<point x="352" y="1295" type="curve" smooth="yes"/>
			<point x="157" y="1295"/>
			<point x="63" y="1182"/>
			<point x="63" y="962" type="curve" smooth="yes"/>
			<point x="63" y="771" type="line" smooth="yes"/>
			<point x="63" y="570"/>
			<point x="125" y="455"/>
			<point x="273" y="455" type="curve" smooth="yes"/>
			<point x="386" y="455"/>
			<point x="438" y="516"/>
			<point x="458" y="601" type="curve"/>
			<point x="496" y="601" type="line"/>
			<point x="469" y="736" type="line"/>
			<point x="455" y="663"/>
			<point x="414" y="605"/>
			<point x="346" y="605" type="curve" smooth="yes"/>
			<point x="266" y="605"/>
			<point x="237" y="665"/>
			<point x="237" y="782" type="curve" smooth="yes"/>
			<point x="237" y="966" type="line" smooth="yes"/>
			<point x="237" y="1086"/>
			<point x="269" y="1143"/>
			<point x="351" y="1143" type="curve" smooth="yes"/>
			<point x="434" y="1143"/>
			<point x="467" y="1086"/>
			<point x="467" y="966" type="curve" smooth="yes"/>
			<point x="467" y="374" type="line" smooth="yes"/>
			<point x="467" y="217"/>
			<point x="415" y="143"/>
			<point x="290" y="143" type="curve" smooth="yes"/>
			<point x="210" y="143"/>
			<point x="150" y="169"/>
			<point x="101" y="201" type="curve"/>
			<point x="115" y="31" type="line"/>
			<point x="157" y="5"/>
			<point x="229" y="-20"/>
			<point x="325" y="-20" type="curve" smooth="yes"/>
			<point x="538" y="-20"/>
			<point x="641" y="115"/>
			<point x="641" y="362" type="curve" smooth="yes"/>
			<point x="641" y="957" type="line" smooth="yes"/>
			<point x="641" y="1182"/>
			<point x="546" y="1295"/>
		</contour>
	</outline>
</glyph>
<glyph name="C" format="2">
	<advance width="600"/>
	<unicode hex="0043"/>
	<anchor x="338" y="1278" name="top"/>
	<anchor x="338" y="0" name="bottom"/>
	<outline>
		<contour>
			<point x="365" y="-19" type="curve" smooth="yes"/>
			<point x="445" y="-19"/>
			<point x="510" y="6"/>
			<point x="547" y="30" type="curve"/>
			<point x="559" y="205" type="line"/>
			<point x="520" y="174"/>
			<point x="476" y="151"/>
			<point x="414" y="151" type="curve" smooth="yes"/>
			<point x="300" y="151"/>
			<point x="258" y="226"/>
			<point x="258" y="358" type="curve" smooth="yes"/>
			<point x="258" y="921" type="line" smooth="yes"/>
			<point x="258" y="1055"/>
			<point x="297" y="1132"/>
			<point x="406" y="1132" type="curve" smooth="yes"/>
			<point x="467" y="1132"/>
			<point x="512" y="1108"/>
			<point x="552" y="1077" type="curve"/>
			<point x="540" y="1244" type="line"/>
			<point x="502" y="1272"/>
			<point x="441" y="1297"/>
			<point x="361" y="1297" type="curve" smooth="yes"/>
			<point x="167" y="1297"/>
			<point x="78" y="1171"/>
			<point x="78" y="934" type="curve" smooth="yes"/>
			<point x="78" y="348" type="line" smooth="yes"/>
			<point x="78" y="109"/>
			<point x="162" y="-19"/>
		</contour>
	</outline>
</glyph>
<glyph name="G" format="2">
	<advance width="744"/>
	<unicode hex="0047"/>
	<anchor x="374" y="1278" name="top"/>
	<anchor x="374" y="0" name="bottom"/>
	<outline>
		<contour>
			<point x="316" y="-19" type="curve" smooth="yes"/>
			<point x="440" y="-19"/>
			<point x="484" y="52"/>
			<point x="502" y="140" type="curve"/>
			<point x="676" y="140" type="line"/>
			<point x="676" y="733" type="line"/>
			<point x="400" y="733" type="line"/>
			<point x="400" y="575" type="line"/>
			<point x="539" y="575" type="line"/>
			<point x="506" y="660" type="line"/>
			<point x="506" y="265" type="line"/>
			<point x="491" y="198"/>
			<point x="456" y="141"/>
			<point x="381" y="141" type="curve" smooth="yes"/>
			<point x="294" y="141"/>
			<point x="258" y="203"/>
			<point x="258" y="321" type="curve" smooth="yes"/>
			<point x="258" y="897" type="line" smooth="yes"/>
			<point x="258" y="1052"/>
			<point x="314" y="1132"/>
			<point x="453" y="1132" type="curve" smooth="yes"/>
			<point x="539" y="1132"/>
			<point x="606" y="1100"/>
			<point x="658" y="1062" type="curve"/>
			<point x="644" y="1233" type="line"/>
			<point x="597" y="1266"/>
			<point x="517" y="1297"/>
			<point x="416" y="1297" type="curve" smooth="yes"/>
			<point x="190" y="1297"/>
			<point x="78" y="1164"/>
			<point x="78" y="901" type="curve" smooth="yes"/>
			<point x="78" y="327" type="line" smooth="yes"/>
			<point x="78" y="108"/>
			<point x="144" y="-19"/>
		</contour>
		<contour>
			<point x="514" y="207" type="line"/>
			<point x="507" y="0" type="line"/>
			<point x="676" y="0" type="line"/>
			<point x="676" y="207" type="line"/>
		</contour>
	</outline>
</glyph>
<glyph name="H" format="2">
	<advance width="818"/>
	<unicode hex="0048"/>
	<anchor x="409" y="639" name="center"/>
	<anchor x="409" y="1278" name="top"/>
	<anchor x="20" y="1278" name="topleft"/>
	<anchor x="409" y="0" name="bottom"/>
	<outline>
		<contour>
			<point x="278" y="0" type="line"/>
			<point x="278" y="1278" type="line"/>
			<point x="98" y="1278" type="line"/>
			<point x="98" y="0" type="line"/>
		</contour>
		<contour>
			<point x="720" y="0" type="line"/>
			<point x="720" y="1278" type="line"/>
			<point x="540" y="1278" type="line"/>
			<point x="540" y="0" type="line"/>
		</contour>
		<contour>
			<point x="214" y="734" type="line"/>
			<point x="214" y="579" type="line"/>
			<point x="601" y="579" type="line"/>
			<point x="601" y="734" type="line"/>
		</contour>
	</outline>
</glyph>
<glyph name="J" format="2">
	<advance width="506"/>
	<unicode hex="004A"/>
	<anchor x="324" y="1278" name="top"/>
	<anchor x="254" y="0" name="bottom"/>
	<outline>
		<contour>
			<point x="172" y="-17" type="curve" smooth="yes"/>
			<point x="350" y="-17"/>
			<point x="414" y="86"/>
			<point x="414" y="269" type="curve" smooth="yes"/>
			<point x="414" y="1278" type="line"/>
			<point x="235" y="1278" type="line"/>
			<point x="235" y="269" type="line" smooth="yes"/>
			<point x="235" y="192"/>
			<point x="211" y="143"/>
			<point x="131" y="143" type="curve" smooth="yes"/>
			<point x="95" y="143"/>
			<point x="66" y="151"/>
			<point x="33" y="165" type="curve"/>
			<point x="45" y="7" type="line"/>
			<point x="79" y="-8"/>
			<point x="125" y="-17"/>
		</contour>
	</outline>
</glyph>
<glyph name="K" format="2">
	<advance width="759"/>
	<unicode hex="004B"/>
	<anchor x="401" y="1278" name="top"/>
	<anchor x="401" y="0" name="bottom"/>
	<outline>
		<contour>
			<point x="556" y="0" type="line"/>
			<point x="741" y="0" type="line"/>
			<point x="479" y="694" type="line"/>
			<point x="481" y="645" type="line"/>
			<point x="731" y="1278" type="line"/>
			<point x="548" y="1278" type="line"/>
			<point x="338" y="731" type="line"/>
			<point x="252" y="731" type="line"/>
			<point x="252" y="577" type="line"/>
			<point x="338" y="577" type="line"/>
		</contour>
		<contour>
			<point x="98" y="0" type="line"/>
			<point x="273" y="0" type="line"/>
			<point x="273" y="1278" type="line"/>
			<point x="98" y="1278" type="line"/>
		</contour>
	</outline>
</glyph>
<glyph name="M" format="2">
  <advance width="1038"/>
  <unicode hex="004D"/>
  <anchor x="520" y="0" name="bottom"/>
  <anchor x="520" y="1278" name="top"/>
  <outline>
    <contour>
      <point x="94" y="0" type="line"/>
      <point x="262" y="0" type="line"/>
      <point x="264" y="416" type="line"/>
      <point x="257" y="1058" type="line"/>
      <point x="265" y="1058" type="line"/>
      <point x="427" y="141" type="line"/>
      <point x="611" y="141" type="line"/>
      <point x="773" y="1058" type="line"/>
      <point x="781" y="1058" type="line"/>
      <point x="775" y="416" type="line"/>
      <point x="776" y="0" type="line"/>
      <point x="944" y="0" type="line"/>
      <point x="935" y="1278" type="line"/>
      <point x="670" y="1278" type="line"/>
      <point x="524" y="399" type="line"/>
      <point x="516" y="399" type="line"/>
      <point x="368" y="1278" type="line"/>
      <point x="103" y="1278" type="line"/>
    </contour>
  </outline>
</glyph>
<glyph name="N" format="2">
	<advance width="844"/>
	<unicode hex="004E"/>
	<anchor x="427" y="1278" name="top"/>
	<anchor x="427" y="0" name="bottom"/>
	<outline>
		<contour>
			<point x="360" y="1279" type="line"/>
			<point x="98" y="1279" type="line"/>
			<point x="98" y="0" type="line"/>
			<point x="267" y="0" type="line"/>
			<point x="267" y="464" type="line"/>
			<point x="252" y="1088" type="line"/>
			<point x="262" y="1088" type="line"/>
			<point x="484" y="0" type="line"/>
			<point x="746" y="0" type="line"/>
			<point x="746" y="1279" type="line"/>
			<point x="578" y="1279" type="line"/>
			<point x="578" y="815" type="line"/>
			<point x="592" y="199" type="line"/>
			<point x="582" y="199" type="line"/>
		</contour>
	</outline>
</glyph>
<glyph name="P" format="2">
	<advance width="733"/>
	<unicode hex="0050"/>
	<anchor x="367" y="1278" name="top"/>
	<anchor x="367" y="0" name="bottom"/>
	<outline>
		<contour>
			<point x="201" y="408" type="line"/>
			<point x="371" y="408" type="line" smooth="yes"/>
			<point x="582" y="408"/>
			<point x="677" y="523"/>
			<point x="677" y="743" type="curve" smooth="yes"/>
			<point x="677" y="945" type="line" smooth="yes"/>
			<point x="677" y="1158"/>
			<point x="582" y="1278"/>
			<point x="370" y="1278" type="curve" smooth="yes"/>
			<point x="204" y="1278" type="line"/>
			<point x="204" y="1125" type="line"/>
			<point x="363" y="1125" type="line" smooth="yes"/>
			<point x="461" y="1125"/>
			<point x="500" y="1062"/>
			<point x="500" y="941" type="curve" smooth="yes"/>
			<point x="500" y="746" type="line" smooth="yes"/>
			<point x="500" y="624"/>
			<point x="461" y="561"/>
			<point x="362" y="561" type="curve" smooth="yes"/>
			<point x="201" y="561" type="line"/>
		</contour>
		<contour>
			<point x="98" y="0" type="line"/>
			<point x="276" y="0" type="line"/>
			<point x="276" y="431" type="line"/>
			<point x="274" y="518" type="line"/>
			<point x="274" y="1278" type="line"/>
			<point x="98" y="1278" type="line"/>
		</contour>
	</outline>
</glyph>
<glyph name="Q" format="2">
	<advance width="792"/>
	<unicode hex="0051"/>
	<anchor x="397" y="1278" name="top"/>
	<anchor x="397" y="0" name="bottom"/>
	<outline>
		<contour>
			<point x="437" y="-19" type="curve" smooth="yes"/>
			<point x="781" y="-30" type="line"/>
			<point x="781" y="122" type="line"/>
			<point x="547" y="115" type="line"/>
			<point x="547" y="125" type="line"/>
			<point x="657" y="158"/>
			<point x="711" y="234"/>
			<point x="711" y="399" type="curve" smooth="yes"/>
			<point x="711" y="918" type="line" smooth="yes"/>
			<point x="711" y="1168"/>
			<point x="605" y="1297"/>
			<point x="394" y="1297" type="curve" smooth="yes"/>
			<point x="183" y="1297"/>
			<point x="78" y="1168"/>
			<point x="78" y="918" type="curve" smooth="yes"/>
			<point x="78" y="363" type="line" smooth="yes"/>
			<point x="78" y="114"/>
			<point x="174" y="-11"/>
		</contour>
		<contour>
			<point x="429" y="132" type="curve"/>
			<point x="416" y="132" type="line"/>
			<point x="305" y="132"/>
			<point x="258" y="207"/>
			<point x="258" y="341" type="curve" smooth="yes"/>
			<point x="258" y="935" type="line" smooth="yes"/>
			<point x="258" y="1076"/>
			<point x="298" y="1145"/>
			<point x="394" y="1145" type="curve" smooth="yes"/>
			<point x="490" y="1145"/>
			<point x="530" y="1076"/>
			<point x="530" y="935" type="curve" smooth="yes"/>
			<point x="530" y="356" type="line" smooth="yes"/>
			<point x="530" y="220"/>
			<point x="494" y="157"/>
		</contour>
	</outline>
</glyph>
<glyph name="R" format="2">
	<advance width="754"/>
	<unicode hex="0052"/>
	<anchor x="380" y="1278" name="top"/>
	<anchor x="390" y="0" name="bottom"/>
	<outline>
		<contour>
			<point x="497" y="311" type="curve" smooth="yes"/>
			<point x="521" y="0" type="line"/>
			<point x="700" y="0" type="line"/>
			<point x="669" y="315" type="line" smooth="yes"/>
			<point x="651" y="495"/>
			<point x="619" y="586"/>
			<point x="458" y="609" type="curve"/>
			<point x="510" y="588" type="line"/>
			<point x="510" y="606" type="line"/>
			<point x="639" y="629"/>
			<point x="686" y="717"/>
			<point x="686" y="853" type="curve" smooth="yes"/>
			<point x="686" y="974" type="line" smooth="yes"/>
			<point x="686" y="1169"/>
			<point x="597" y="1278"/>
			<point x="384" y="1278" type="curve" smooth="yes"/>
			<point x="221" y="1278" type="line"/>
			<point x="221" y="1125" type="line"/>
			<point x="371" y="1125" type="line" smooth="yes"/>
			<point x="476" y="1125"/>
			<point x="509" y="1063"/>
			<point x="509" y="942" type="curve" smooth="yes"/>
			<point x="509" y="818" type="line" smooth="yes"/>
			<point x="509" y="710"/>
			<point x="474" y="650"/>
			<point x="366" y="649" type="curve" smooth="yes"/>
			<point x="228" y="648" type="line"/>
			<point x="228" y="503" type="line"/>
			<point x="350" y="503" type="line" smooth="yes"/>
			<point x="460" y="503"/>
			<point x="489" y="421"/>
		</contour>
		<contour>
			<point x="98" y="0" type="line"/>
			<point x="276" y="0" type="line"/>
			<point x="276" y="532" type="line"/>
			<point x="275" y="606" type="line"/>
			<point x="275" y="1278" type="line"/>
			<point x="98" y="1278" type="line"/>
		</contour>
	</outline>
</glyph>
<glyph name="T" format="2">
  <advance width="644"/>
  <unicode hex="0054"/>
  <anchor x="322" y="0" name="bottom"/>
  <anchor x="322" y="639" name="center"/>
  <anchor x="322" y="1278" name="top"/>
  <outline>
    <contour>
      <point x="232" y="0" type="line"/>
      <point x="412" y="0" type="line"/>
      <point x="412" y="1278" type="line"/>
      <point x="232" y="1278" type="line"/>
    </contour>
    <contour>
      <point x="30" y="1120" type="line"/>
      <point x="614" y="1120" type="line"/>
      <point x="614" y="1278" type="line"/>
      <point x="30" y="1278" type="line"/>
    </contour>
  </outline>
</glyph>
<glyph name="V" format="2">
	<advance width="749"/>
	<unicode hex="0056"/>
	<anchor x="374" y="1278" name="top"/>
	<anchor x="374" y="0" name="bottom"/>
	<outline>
		<contour>
			<point x="229" y="0" type="line"/>
			<point x="520" y="0" type="line"/>
			<point x="713" y="1278" type="line"/>
			<point x="534" y="1278" type="line"/>
			<point x="384" y="130" type="line"/>
			<point x="364" y="130" type="line"/>
			<point x="215" y="1278" type="line"/>
			<point x="36" y="1278" type="line"/>
		</contour>
	</outline>
</glyph>
<glyph name="X" format="2">
	<advance width="723"/>
	<unicode hex="0058"/>
	<anchor x="362" y="1278" name="top"/>
	<anchor x="362" y="0" name="bottom"/>
	<outline>
		<contour>
			<point x="36" y="0" type="line"/>
			<point x="213" y="0" type="line"/>
			<point x="356" y="565" type="line"/>
			<point x="367" y="565" type="line"/>
			<point x="510" y="0" type="line"/>
			<point x="687" y="0" type="line"/>
			<point x="493" y="691" type="line"/>
			<point x="493" y="642" type="line"/>
			<point x="681" y="1278" type="line"/>
			<point x="505" y="1278" type="line"/>
			<point x="367" y="757" type="line"/>
			<point x="356" y="757" type="line"/>
			<point x="218" y="1278" type="line"/>
			<point x="42" y="1278" type="line"/>
			<point x="230" y="642" type="line"/>
			<point x="230" y="691" type="line"/>
		</contour>
	</outline>
</glyph>
<glyph name="Z" format="2">
	<advance width="645"/>
	<unicode hex="005A"/>
	<anchor x="323" y="639" name="center"/>
	<anchor x="323" y="0" name="bottom"/>
	<anchor x="323" y="1278" name="top"/>
	<outline>
		<contour>
			<point x="591" y="160" type="line"/>
			<point x="239" y="160" type="line"/>
			<point x="585" y="1134" type="line"/>
			<point x="585" y="1278" type="line"/>
			<point x="58" y="1278" type="line"/>
			<point x="58" y="1118" type="line"/>
			<point x="399" y="1118" type="line"/>
			<point x="53" y="145" type="line"/>
			<point x="53" y="0" type="line"/>
			<point x="591" y="0" type="line"/>
		</contour>
	</outline>
</glyph>
<glyph name="bracketleft" format="2">
	<advance width="456"/>
	<unicode hex="005B"/>
	<outline>
		<contour>
			<point x="101" y="-240" type="line"/>
			<point x="424" y="-240" type="line"/>
			<point x="424" y="-101" type="line"/>
			<point x="265" y="-101" type="line"/>
			<point x="265" y="1213" type="line"/>
			<point x="424" y="1213" type="line"/>
			<point x="424" y="1352" type="line"/>
			<point x="101" y="1352" type="line"/>
		</contour>
	</outline>
</glyph>
<glyph name="asciicircum" format="2">
  <advance width="582"/>
  <unicode hex="005E"/>
  <outline>
    <contour>
      <point x="176" y="1278" type="line"/>
      <point x="37" y="623" type="line"/>
      <point x="177" y="623" type="line"/>
      <point x="287" y="1167" type="line"/>
      <point x="295" y="1167" type="line"/>
      <point x="405" y="623" type="line"/>
      <point x="545" y="623" type="line"/>
      <point x="406" y="1278" type="line"/>
    </contour>
  </outline>
</glyph>
<glyph name="b" format="2">
	<advance width="741"/>
	<unicode hex="0062"/>
	<anchor x="371" y="1329" name="top"/>
	<anchor x="371" y="0" name="bottom"/>
	<outline>
		<contour>
			<point x="452" y="-14" type="curve" smooth="yes"/>
			<point x="608" y="-14"/>
			<point x="671" y="103"/>
			<point x="671" y="326" type="curve" smooth="yes"/>
			<point x="671" y="673" type="line" smooth="yes"/>
			<point x="671" y="895"/>
			<point x="608" y="1012"/>
			<point x="452" y="1012" type="curve" smooth="yes"/>
			<point x="339" y="1012"/>
			<point x="287" y="946"/>
			<point x="267" y="853" type="curve"/>
			<point x="230" y="853" type="line"/>
			<point x="256" y="737" type="line"/>
			<point x="271" y="814"/>
			<point x="311" y="870"/>
			<point x="384" y="870" type="curve" smooth="yes"/>
			<point x="466" y="870"/>
			<point x="497" y="808"/>
			<point x="497" y="689" type="curve" smooth="yes"/>
			<point x="497" y="317" type="line" smooth="yes"/>
			<point x="497" y="195"/>
			<point x="464" y="132"/>
			<point x="383" y="132" type="curve" smooth="yes"/>
			<point x="300" y="132"/>
			<point x="259" y="200"/>
			<point x="258" y="305" type="curve"/>
			<point x="213" y="145" type="line"/>
			<point x="264" y="145" type="line"/>
			<point x="286" y="53"/>
			<point x="339" y="-14"/>
		</contour>
		<contour>
			<point x="88" y="0" type="line"/>
			<point x="261" y="0" type="line"/>
			<point x="254" y="172" type="line"/>
			<point x="258" y="192" type="line"/>
			<point x="258" y="788" type="line"/>
			<point x="257" y="810" type="line"/>
			<point x="261" y="1066" type="line"/>
			<point x="261" y="1329" type="line"/>
			<point x="88" y="1329" type="line"/>
		</contour>
	</outline>
</glyph>
<glyph name="c" format="2">
	<advance width="555"/>
	<unicode hex="0063"/>
	<anchor x="311" y="998" name="top"/>
	<anchor x="311" y="0" name="bottom"/>
	<outline>
		<contour>
			<point x="339" y="-14" type="curve" smooth="yes"/>
			<point x="411" y="-14"/>
			<point x="471" y="8"/>
			<point x="509" y="40" type="curve"/>
			<point x="521" y="192" type="line"/>
			<point x="484" y="163"/>
			<point x="441" y="142"/>
			<point x="386" y="142" type="curve" smooth="yes"/>
			<point x="285" y="142"/>
			<point x="243" y="209"/>
			<point x="243" y="323" type="curve" smooth="yes"/>
			<point x="243" y="676" type="line" smooth="yes"/>
			<point x="243" y="793"/>
			<point x="280" y="860"/>
			<point x="380" y="860" type="curve" smooth="yes"/>
			<point x="437" y="860"/>
			<point x="478" y="839"/>
			<point x="515" y="810" type="curve"/>
			<point x="503" y="959" type="line"/>
			<point x="464" y="989"/>
			<point x="408" y="1012"/>
			<point x="337" y="1012" type="curve" smooth="yes"/>
			<point x="152" y="1012"/>
			<point x="69" y="890"/>
			<point x="69" y="678" type="curve" smooth="yes"/>
			<point x="69" y="319" type="line" smooth="yes"/>
			<point x="69" y="107"/>
			<point x="152" y="-14"/>
		</contour>
	</outline>
</glyph>
<glyph name="g" format="2">
	<advance width="693"/>
	<unicode hex="0067"/>
	<anchor x="350" y="998" name="top"/>
	<anchor x="352" y="-350" name="bottom"/>
	<outline>
		<contour>
			<point x="344" y="247" type="curve" smooth="yes"/>
			<point x="524" y="247"/>
			<point x="619" y="345"/>
			<point x="619" y="536" type="curve" smooth="yes"/>
			<point x="619" y="662" type="line" smooth="yes"/>
			<point x="619" y="785"/>
			<point x="578" y="857"/>
			<point x="481" y="882" type="curve"/>
			<point x="481" y="891" type="line"/>
			<point x="683" y="884" type="line"/>
			<point x="683" y="1023" type="line"/>
			<point x="359" y="1010" type="line" smooth="yes"/>
			<point x="137" y="1001"/>
			<point x="66" y="874"/>
			<point x="66" y="703" type="curve" smooth="yes"/>
			<point x="66" y="536" type="line" smooth="yes"/>
			<point x="66" y="345"/>
			<point x="180" y="247"/>
		</contour>
		<contour>
			<point x="374" y="-227" type="curve" smooth="yes"/>
			<point x="341" y="-227" type="line"/>
			<point x="246" y="-227"/>
			<point x="194" y="-188"/>
			<point x="194" y="-120" type="curve" smooth="yes"/>
			<point x="194" y="-118" type="line" smooth="yes"/>
			<point x="194" y="-53"/>
			<point x="240" y="-16"/>
			<point x="320" y="5" type="curve"/>
			<point x="278" y="4" type="line"/>
			<point x="403" y="-22" type="line" smooth="yes"/>
			<point x="484" y="-39"/>
			<point x="520" y="-67"/>
			<point x="520" y="-124" type="curve" smooth="yes"/>
			<point x="520" y="-126" type="line" smooth="yes"/>
			<point x="520" y="-194"/>
			<point x="469" y="-227"/>
		</contour>
		<contour>
			<point x="332" y="-367" type="curve" smooth="yes"/>
			<point x="368" y="-367" type="line" smooth="yes"/>
			<point x="562" y="-367"/>
			<point x="676" y="-286"/>
			<point x="676" y="-134" type="curve" smooth="yes"/>
			<point x="676" y="-126" type="line" smooth="yes"/>
			<point x="676" y="5"/>
			<point x="616" y="82"/>
			<point x="452" y="116" type="curve" smooth="yes"/>
			<point x="323" y="143" type="line" smooth="yes"/>
			<point x="264" y="155"/>
			<point x="237" y="171"/>
			<point x="237" y="204" type="curve" smooth="yes"/>
			<point x="237" y="205" type="line" smooth="yes"/>
			<point x="237" y="236"/>
			<point x="265" y="252"/>
			<point x="312" y="252" type="curve"/>
			<point x="341" y="252" type="line"/>
			<point x="203" y="292" type="line"/>
			<point x="203" y="269" type="line"/>
			<point x="127" y="259"/>
			<point x="76" y="223"/>
			<point x="76" y="155" type="curve" smooth="yes"/>
			<point x="76" y="153" type="line" smooth="yes"/>
			<point x="76" y="82"/>
			<point x="127" y="40"/>
			<point x="203" y="23" type="curve"/>
			<point x="203" y="14" type="line"/>
			<point x="111" y="-7"/>
			<point x="40" y="-56"/>
			<point x="40" y="-162" type="curve" smooth="yes"/>
			<point x="40" y="-166" type="line" smooth="yes"/>
			<point x="40" y="-302"/>
			<point x="149" y="-367"/>
		</contour>
		<contour>
			<point x="344" y="379" type="curve" smooth="yes"/>
			<point x="265" y="379"/>
			<point x="232" y="437"/>
			<point x="232" y="540" type="curve" smooth="yes"/>
			<point x="232" y="715" type="line" smooth="yes"/>
			<point x="232" y="818"/>
			<point x="265" y="874"/>
			<point x="344" y="874" type="curve" smooth="yes"/>
			<point x="346" y="874" type="line" smooth="yes"/>
			<point x="422" y="874"/>
			<point x="454" y="815"/>
			<point x="454" y="717" type="curve" smooth="yes"/>
			<point x="454" y="540" type="line" smooth="yes"/>
			<point x="454" y="437"/>
			<point x="421" y="379"/>
		</contour>
	</outline>
</glyph>
<glyph name="i" format="2">
	<advance width="356"/>
	<unicode hex="0069"/>
	<anchor x="297" y="0" name="ogonek"/>
	<anchor x="178" y="0" name="bottom"/>
	<outline>
		<contour>
			<point x="91" y="0" type="line"/>
			<point x="265" y="0" type="line"/>
			<point x="265" y="998" type="line"/>
			<point x="91" y="998" type="line"/>
		</contour>
		<contour>
			<point x="178" y="1117" type="curve" smooth="yes"/>
			<point x="243" y="1117"/>
			<point x="272" y="1156"/>
			<point x="272" y="1222" type="curve" smooth="yes"/>
			<point x="272" y="1234" type="line" smooth="yes"/>
			<point x="272" y="1300"/>
			<point x="243" y="1338"/>
			<point x="178" y="1338" type="curve" smooth="yes"/>
			<point x="113" y="1338"/>
			<point x="84" y="1300"/>
			<point x="84" y="1234" type="curve" smooth="yes"/>
			<point x="84" y="1222" type="line" smooth="yes"/>
			<point x="84" y="1156"/>
			<point x="113" y="1117"/>
		</contour>
	</outline>
</glyph>
<glyph name="j" format="2">
  <advance width="361"/>
  <unicode hex="006A"/>
  <outline>
    <contour>
      <point x="96" y="203" type="line"/>
      <point x="270" y="203" type="line"/>
      <point x="270" y="998" type="line"/>
      <point x="96" y="998" type="line"/>
    </contour>
    <contour>
      <point x="183" y="1111" type="curve" smooth="yes"/>
      <point x="248" y="1111"/>
      <point x="277" y="1150"/>
      <point x="277" y="1216" type="curve" smooth="yes"/>
      <point x="277" y="1228" type="line" smooth="yes"/>
      <point x="277" y="1294"/>
      <point x="248" y="1332"/>
      <point x="183" y="1332" type="curve" smooth="yes"/>
      <point x="118" y="1332"/>
      <point x="89" y="1294"/>
      <point x="89" y="1228" type="curve" smooth="yes"/>
      <point x="89" y="1216" type="line" smooth="yes"/>
      <point x="89" y="1150"/>
      <point x="118" y="1111"/>
    </contour>
    <component base="jbottom"/>
  </outline>
</glyph>
<glyph name="n" format="2">
	<advance width="748"/>
	<unicode hex="006E"/>
	<anchor x="375" y="998" name="top"/>
	<anchor x="375" y="0" name="bottom"/>
	<outline>
		<contour>
			<point x="492" y="704" type="curve" smooth="yes"/>
			<point x="492" y="0" type="line"/>
			<point x="666" y="0" type="line"/>
			<point x="666" y="726" type="line" smooth="yes"/>
			<point x="666" y="916"/>
			<point x="604" y="1012"/>
			<point x="463" y="1012" type="curve" smooth="yes"/>
			<point x="338" y="1012"/>
			<point x="286" y="946"/>
			<point x="264" y="853" type="curve"/>
			<point x="222" y="853" type="line"/>
			<point x="259" y="732" type="line"/>
			<point x="273" y="810"/>
			<point x="313" y="866"/>
			<point x="385" y="866" type="curve" smooth="yes"/>
			<point x="464" y="866"/>
			<point x="492" y="810"/>
		</contour>
		<contour>
			<point x="88" y="0" type="line"/>
			<point x="262" y="0" type="line"/>
			<point x="262" y="826" type="line"/>
			<point x="254" y="833" type="line"/>
			<point x="261" y="998" type="line"/>
			<point x="88" y="998" type="line"/>
		</contour>
	</outline>
</glyph>
<glyph name="s" format="2">
	<advance width="565"/>
	<unicode hex="0073"/>
	<anchor x="275" y="998" name="top"/>
	<anchor x="277" y="0" name="bottom"/>
	<outline>
		<contour>
			<point x="260" y="-14" type="curve" smooth="yes"/>
			<point x="436" y="-14"/>
			<point x="523" y="85"/>
			<point x="523" y="254" type="curve" smooth="yes"/>
			<point x="523" y="285" type="line" smooth="yes"/>
			<point x="523" y="424"/>
			<point x="472" y="486"/>
			<point x="350" y="563" type="curve" smooth="yes"/>
			<point x="254" y="624"/>
			<point x="211" y="655"/>
			<point x="211" y="733" type="curve" smooth="yes"/>
			<point x="211" y="748" type="line" smooth="yes"/>
			<point x="211" y="820"/>
			<point x="245" y="862"/>
			<point x="325" y="862" type="curve" smooth="yes"/>
			<point x="397" y="862"/>
			<point x="452" y="833"/>
			<point x="504" y="797" type="curve"/>
			<point x="492" y="953" type="line"/>
			<point x="448" y="986"/>
			<point x="384" y="1012"/>
			<point x="296" y="1012" type="curve" smooth="yes"/>
			<point x="130" y="1012"/>
			<point x="42" y="920"/>
			<point x="42" y="760" type="curve" smooth="yes"/>
			<point x="42" y="738" type="line" smooth="yes"/>
			<point x="42" y="607"/>
			<point x="88" y="535"/>
			<point x="212" y="460" type="curve" smooth="yes"/>
			<point x="334" y="386"/>
			<point x="353" y="352"/>
			<point x="353" y="283" type="curve" smooth="yes"/>
			<point x="353" y="258" type="line" smooth="yes"/>
			<point x="353" y="183"/>
			<point x="318" y="140"/>
			<point x="237" y="140" type="curve" smooth="yes"/>
			<point x="163" y="140"/>
			<point x="102" y="169"/>
			<point x="43" y="208" type="curve"/>
			<point x="55" y="42" type="line"/>
			<point x="101" y="13"/>
			<point x="172" y="-14"/>
		</contour>
	</outline>
</glyph>
<glyph name="u" format="2">
	<advance width="748"/>
	<unicode hex="0075"/>
	<anchor x="692" y="0" name="ogonek"/>
	<anchor x="375" y="998" name="top"/>
	<anchor x="736" y="998" name="topright"/>
	<anchor x="375" y="0" name="bottom"/>
	<outline>
		<contour>
			<point x="256" y="294" type="curve" smooth="yes"/>
			<point x="256" y="998" type="line"/>
			<point x="82" y="998" type="line"/>
			<point x="82" y="272" type="line" smooth="yes"/>
			<point x="82" y="82"/>
			<point x="144" y="-14"/>
			<point x="285" y="-14" type="curve" smooth="yes"/>
			<point x="410" y="-14"/>
			<point x="462" y="52"/>
			<point x="484" y="145" type="curve"/>
			<point x="526" y="145" type="line"/>
			<point x="489" y="266" type="line"/>
			<point x="475" y="188"/>
			<point x="435" y="132"/>
			<point x="363" y="132" type="curve" smooth="yes"/>
			<point x="284" y="132"/>
			<point x="256" y="188"/>
		</contour>
		<contour>
			<point x="660" y="998" type="line"/>
			<point x="486" y="998" type="line"/>
			<point x="486" y="172" type="line"/>
			<point x="494" y="165" type="line"/>
			<point x="487" y="0" type="line"/>
			<point x="660" y="0" type="line"/>
		</contour>
	</outline>
</glyph>
<glyph name="v" format="2">
  <advance width="690"/>
  <unicode hex="0076"/>
  <anchor x="345" y="0" name="bottom"/>
  <anchor x="345" y="998" name="top"/>
  <outline>
    <contour>
      <point x="353" y="120" type="line"/>
      <point x="337" y="120" type="line"/>
      <point x="211" y="998" type="line"/>
      <point x="36" y="998" type="line"/>
      <point x="203" y="0" type="line"/>
      <point x="487" y="0" type="line"/>
      <point x="654" y="998" type="line"/>
      <point x="479" y="998" type="line"/>
    </contour>
  </outline>
</glyph>
<glyph name="z" format="2">
  <advance width="588"/>
  <unicode hex="007A"/>
  <anchor x="293" y="0" name="bottom"/>
  <anchor x="294" y="499" name="center"/>
  <anchor x="293" y="998" name="top"/>
  <outline>
    <contour>
      <point x="536" y="152" type="line"/>
      <point x="229" y="152" type="line"/>
      <point x="534" y="859" type="line"/>
      <point x="534" y="998" type="line"/>
      <point x="53" y="998" type="line"/>
      <point x="53" y="848" type="line"/>
      <point x="355" y="848" type="line"/>
      <point x="51" y="141" type="line"/>
      <point x="51" y="0" type="line"/>
      <point x="536" y="0" type="line"/>
    </contour>
  </outline>
</glyph>
<glyph name="bar" format="2">
  <advance width="392"/>
  <unicode hex="007C"/>
  <outline>
    <contour>
      <point x="276" y="-419" type="line"/>
      <point x="276" y="1426" type="line"/>
      <point x="116" y="1426" type="line"/>
      <point x="116" y="-419" type="line"/>
    </contour>
  </outline>
</glyph>
<glyph name="braceright" format="2">
	<advance width="513"/>
	<unicode hex="007D"/>
	<outline>
		<contour>
			<point x="32" y="1338" type="curve"/>
			<point x="32" y="1203" type="line"/>
			<point x="52" y="1210"/>
			<point x="76" y="1215"/>
			<point x="100" y="1215" type="curve" smooth="yes"/>
			<point x="170" y="1215"/>
			<point x="199" y="1175"/>
			<point x="199" y="1087" type="curve" smooth="yes"/>
			<point x="199" y="1015"/>
			<point x="186" y="861"/>
			<point x="186" y="788" type="curve" smooth="yes"/>
			<point x="186" y="657"/>
			<point x="221" y="586"/>
			<point x="329" y="563" type="curve"/>
			<point x="329" y="519" type="line"/>
			<point x="341" y="556" type="line"/>
			<point x="218" y="535"/>
			<point x="186" y="458"/>
			<point x="186" y="328" type="curve" smooth="yes"/>
			<point x="186" y="253"/>
			<point x="199" y="97"/>
			<point x="199" y="25" type="curve" smooth="yes"/>
			<point x="199" y="-63"/>
			<point x="170" y="-103"/>
			<point x="100" y="-103" type="curve" smooth="yes"/>
			<point x="76" y="-103"/>
			<point x="52" y="-98"/>
			<point x="32" y="-91" type="curve"/>
			<point x="32" y="-226" type="line"/>
			<point x="72" y="-238"/>
			<point x="108" y="-245"/>
			<point x="146" y="-245" type="curve" smooth="yes"/>
			<point x="295" y="-245"/>
			<point x="369" y="-167"/>
			<point x="369" y="11" type="curve" smooth="yes"/>
			<point x="369" y="103"/>
			<point x="355" y="261"/>
			<point x="355" y="329" type="curve" smooth="yes"/>
			<point x="355" y="424"/>
			<point x="384" y="468"/>
			<point x="469" y="477" type="curve"/>
			<point x="469" y="639" type="line"/>
			<point x="384" y="648"/>
			<point x="355" y="692"/>
			<point x="355" y="787" type="curve" smooth="yes"/>
			<point x="355" y="857"/>
			<point x="369" y="1012"/>
			<point x="369" y="1101" type="curve" smooth="yes"/>
			<point x="369" y="1279"/>
			<point x="295" y="1357"/>
			<point x="146" y="1357" type="curve" smooth="yes"/>
			<point x="108" y="1357"/>
			<point x="72" y="1350"/>
		</contour>
	</outline>
</glyph>
<glyph name="cent" format="2">
  <advance width="555"/>
  <unicode hex="00A2"/>
  <anchor x="311" y="0" name="bottom"/>
  <anchor x="311" y="998" name="top"/>
  <outline>
    <contour>
      <point x="396" y="936" type="line"/>
      <point x="396" y="1160" type="line"/>
      <point x="246" y="1160" type="line"/>
      <point x="246" y="936" type="line"/>
    </contour>
    <contour>
      <point x="396" y="-175" type="line"/>
      <point x="396" y="55" type="line"/>
      <point x="246" y="55" type="line"/>
      <point x="246" y="-175" type="line"/>
    </contour>
    <component base="c"/>
  </outline>
</glyph>
<glyph name="currency" format="2">
	<advance width="777"/>
	<unicode hex="00A4"/>
	<outline>
		<contour>
			<point x="388" y="269" type="curve" smooth="yes"/>
			<point x="567" y="269"/>
			<point x="659" y="378"/>
			<point x="659" y="580" type="curve"/>
			<point x="659" y="659" type="line"/>
			<point x="659" y="860"/>
			<point x="567" y="969"/>
			<point x="388" y="969" type="curve" smooth="yes"/>
			<point x="209" y="969"/>
			<point x="117" y="860"/>
			<point x="117" y="659" type="curve"/>
			<point x="117" y="580" type="line"/>
			<point x="117" y="378"/>
			<point x="209" y="269"/>
		</contour>
		<contour>
			<point x="388" y="398" type="curve" smooth="yes"/>
			<point x="308" y="398"/>
			<point x="271" y="456"/>
			<point x="271" y="574" type="curve" smooth="yes"/>
			<point x="271" y="665" type="line" smooth="yes"/>
			<point x="271" y="783"/>
			<point x="308" y="841"/>
			<point x="388" y="841" type="curve" smooth="yes"/>
			<point x="468" y="841"/>
			<point x="503" y="782"/>
			<point x="504" y="665" type="curve" smooth="yes"/>
			<point x="505" y="574" type="line" smooth="yes"/>
			<point x="506" y="456"/>
			<point x="468" y="398"/>
		</contour>
		<contour>
			<point x="594" y="426" type="line"/>
			<point x="496" y="333" type="line"/>
			<point x="636" y="136" type="line"/>
			<point x="744" y="216" type="line"/>
		</contour>
		<contour>
			<point x="287" y="341" type="line"/>
			<point x="184" y="426" type="line"/>
			<point x="33" y="216" type="line"/>
			<point x="140" y="136" type="line"/>
		</contour>
		<contour>
			<point x="180" y="812" type="line"/>
			<point x="282" y="898" type="line"/>
			<point x="140" y="1097" type="line"/>
			<point x="33" y="1018" type="line"/>
		</contour>
		<contour>
			<point x="488" y="890" type="line"/>
			<point x="586" y="798" type="line"/>
			<point x="743" y="1018" type="line"/>
			<point x="636" y="1097" type="line"/>
		</contour>
	</outline>
</glyph>
<glyph name="yen" format="2">
	<advance width="739"/>
	<unicode hex="00A5"/>
	<outline>
		<contour>
			<point x="414" y="528" type="line"/>
			<point x="653" y="528" type="line"/>
			<point x="662" y="669" type="line"/>
			<point x="441" y="669" type="line"/>
		</contour>
		<contour>
			<point x="90" y="379" type="line"/>
			<point x="81" y="241" type="line"/>
			<point x="653" y="241" type="line"/>
			<point x="662" y="379" type="line"/>
		</contour>
		<contour>
			<point x="284" y="669" type="line"/>
			<point x="90" y="669" type="line"/>
			<point x="81" y="528" type="line"/>
			<point x="313" y="528" type="line"/>
		</contour>
		<component base="Y" xOffset="17"/>
	</outline>
</glyph>
<glyph name="copyright" format="2">
	<advance width="1116"/>
	<unicode hex="00A9"/>
	<outline>
		<contour>
			<point x="558" y="-18" type="curve" smooth="yes"/>
			<point x="863" y="-18"/>
			<point x="1038" y="158"/>
			<point x="1038" y="477" type="curve" smooth="yes"/>
			<point x="1038" y="801" type="line" smooth="yes"/>
			<point x="1038" y="1120"/>
			<point x="863" y="1296"/>
			<point x="558" y="1296" type="curve" smooth="yes"/>
			<point x="252" y="1296"/>
			<point x="78" y="1120"/>
			<point x="78" y="801" type="curve" smooth="yes"/>
			<point x="78" y="477" type="line" smooth="yes"/>
			<point x="78" y="158"/>
			<point x="252" y="-18"/>
		</contour>
		<contour>
			<point x="591" y="307" type="curve" smooth="yes"/>
			<point x="644" y="307"/>
			<point x="689" y="321"/>
			<point x="717" y="343" type="curve"/>
			<point x="726" y="457" type="line"/>
			<point x="698" y="437"/>
			<point x="666" y="422"/>
			<point x="626" y="422" type="curve" smooth="yes"/>
			<point x="551" y="422"/>
			<point x="519" y="471"/>
			<point x="519" y="553" type="curve" smooth="yes"/>
			<point x="519" y="727" type="line" smooth="yes"/>
			<point x="519" y="810"/>
			<point x="547" y="859"/>
			<point x="621" y="859" type="curve" smooth="yes"/>
			<point x="663" y="859"/>
			<point x="694" y="845"/>
			<point x="721" y="825" type="curve"/>
			<point x="712" y="937" type="line"/>
			<point x="683" y="957"/>
			<point x="642" y="972"/>
			<point x="589" y="972" type="curve" smooth="yes"/>
			<point x="452" y="972"/>
			<point x="390" y="881"/>
			<point x="390" y="725" type="curve" smooth="yes"/>
			<point x="390" y="553" type="line" smooth="yes"/>
			<point x="390" y="396"/>
			<point x="452" y="307"/>
		</contour>
		<contour>
			<point x="558" y="88" type="curve" smooth="yes"/>
			<point x="330" y="88"/>
			<point x="200" y="225"/>
			<point x="200" y="463" type="curve" smooth="yes"/>
			<point x="200" y="816" type="line" smooth="yes"/>
			<point x="200" y="1053"/>
			<point x="330" y="1190"/>
			<point x="558" y="1190" type="curve" smooth="yes"/>
			<point x="785" y="1190"/>
			<point x="916" y="1053"/>
			<point x="916" y="816" type="curve" smooth="yes"/>
			<point x="916" y="463" type="line" smooth="yes"/>
			<point x="916" y="225"/>
			<point x="785" y="88"/>
		</contour>
	</outline>
</glyph>
<glyph name="logicalnot" format="2">
	<advance width="688"/>
	<unicode hex="00AC"/>
	<outline>
		<contour>
			<point x="614" y="309" type="line"/>
			<point x="614" y="648" type="line"/>
			<point x="463" y="648" type="line"/>
			<point x="463" y="309" type="line"/>
		</contour>
		<contour>
			<point x="57" y="564" type="line"/>
			<point x="614" y="564" type="line"/>
			<point x="614" y="709" type="line"/>
			<point x="57" y="709" type="line"/>
		</contour>
	</outline>
</glyph>
<glyph name="threesuperior" format="2">
  <advance width="374"/>
  <unicode hex="00B3"/>
  <outline>
    <contour>
      <point x="155" y="688" type="curve" smooth="yes"/>
      <point x="292" y="688"/>
      <point x="337" y="767"/>
      <point x="337" y="866" type="curve" smooth="yes"/>
      <point x="337" y="908" type="line" smooth="yes"/>
      <point x="337" y="997"/>
      <point x="303" y="1045"/>
      <point x="226" y="1054" type="curve"/>
      <point x="233" y="1042" type="line"/>
      <point x="233" y="1058" type="line"/>
      <point x="305" y="1072"/>
      <point x="333" y="1123"/>
      <point x="333" y="1200" type="curve" smooth="yes"/>
      <point x="333" y="1233" type="line" smooth="yes"/>
      <point x="333" y="1334"/>
      <point x="284" y="1394"/>
      <point x="170" y="1394" type="curve" smooth="yes"/>
      <point x="115" y="1394"/>
      <point x="69" y="1379"/>
      <point x="37" y="1360" type="curve"/>
      <point x="27" y="1257" type="line"/>
      <point x="56" y="1273"/>
      <point x="92" y="1289"/>
      <point x="134" y="1289" type="curve" smooth="yes"/>
      <point x="189" y="1289"/>
      <point x="210" y="1259"/>
      <point x="210" y="1210" type="curve" smooth="yes"/>
      <point x="210" y="1180" type="line" smooth="yes"/>
      <point x="210" y="1117"/>
      <point x="175" y="1103"/>
      <point x="128" y="1101" type="curve" smooth="yes"/>
      <point x="74" y="1099" type="line"/>
      <point x="74" y="1003" type="line"/>
      <point x="135" y="1000" type="line" smooth="yes"/>
      <point x="192" y="997"/>
      <point x="211" y="967"/>
      <point x="211" y="920" type="curve" smooth="yes"/>
      <point x="211" y="883" type="line" smooth="yes"/>
      <point x="211" y="835"/>
      <point x="194" y="797"/>
      <point x="132" y="797" type="curve" smooth="yes"/>
      <point x="89" y="797"/>
      <point x="54" y="812"/>
      <point x="22" y="829" type="curve"/>
      <point x="32" y="718" type="line"/>
      <point x="59" y="702"/>
      <point x="104" y="688"/>
    </contour>
  </outline>
</glyph>
<glyph name="paragraph" format="2">
	<advance width="568"/>
	<unicode hex="00B6"/>
	<outline>
		<contour>
			<point x="279" y="656" type="curve"/>
			<point x="355" y="656" type="line"/>
			<point x="355" y="1278" type="line"/>
			<point x="279" y="1278" type="line" smooth="yes"/>
			<point x="129" y="1278"/>
			<point x="63" y="1192"/>
			<point x="63" y="1041" type="curve" smooth="yes"/>
			<point x="63" y="894" type="line" smooth="yes"/>
			<point x="63" y="738"/>
			<point x="129" y="656"/>
		</contour>
		<contour>
			<point x="470" y="0" type="line"/>
			<point x="470" y="1278" type="line"/>
			<point x="297" y="1278" type="line"/>
			<point x="296" y="0" type="line"/>
		</contour>
	</outline>
</glyph>
<glyph name="onesuperior" format="2">
	<advance width="316"/>
	<unicode hex="00B9"/>
	<outline>
		<contour>
			<point x="142" y="700" type="line"/>
			<point x="261" y="700" type="line"/>
			<point x="261" y="1384" type="line"/>
			<point x="154" y="1384" type="line"/>
			<point x="19" y="1288" type="line"/>
			<point x="16" y="1162" type="line"/>
			<point x="134" y="1249" type="line"/>
			<point x="141" y="1249" type="line"/>
		</contour>
	</outline>
</glyph>
<glyph name="ordmasculine" format="2">
	<advance width="489"/>
	<unicode hex="00BA"/>
	<outline>
		<contour>
			<point x="244" y="630" type="curve" smooth="yes"/>
			<point x="372" y="630"/>
			<point x="437" y="708"/>
			<point x="437" y="854" type="curve"/>
			<point x="437" y="1068" type="line"/>
			<point x="437" y="1214"/>
			<point x="373" y="1291"/>
			<point x="244" y="1291" type="curve" smooth="yes"/>
			<point x="117" y="1291"/>
			<point x="52" y="1214"/>
			<point x="52" y="1068" type="curve"/>
			<point x="52" y="854" type="line"/>
			<point x="52" y="707"/>
			<point x="117" y="630"/>
		</contour>
		<contour>
			<point x="245" y="735" type="curve" smooth="yes"/>
			<point x="197" y="735"/>
			<point x="178" y="771"/>
			<point x="178" y="837" type="curve" smooth="yes"/>
			<point x="178" y="1086" type="line" smooth="yes"/>
			<point x="178" y="1151"/>
			<point x="197" y="1186"/>
			<point x="245" y="1186" type="curve" smooth="yes"/>
			<point x="292" y="1186"/>
			<point x="311" y="1151"/>
			<point x="311" y="1086" type="curve" smooth="yes"/>
			<point x="311" y="837" type="line" smooth="yes"/>
			<point x="311" y="770"/>
			<point x="292" y="735"/>
		</contour>
	</outline>
</glyph>
<glyph name="questiondown" format="2">
	<advance width="522"/>
	<unicode hex="00BF"/>
	<outline>
		<contour>
			<point x="394" y="645" type="line"/>
			<point x="306" y="602" type="line" smooth="yes"/>
			<point x="133" y="518"/>
			<point x="60" y="418"/>
			<point x="60" y="203" type="curve" smooth="yes"/>
			<point x="60" y="-5" type="line" smooth="yes"/>
			<point x="60" y="-192"/>
			<point x="131" y="-299"/>
			<point x="295" y="-299" type="curve" smooth="yes"/>
			<point x="370" y="-299"/>
			<point x="434" y="-275"/>
			<point x="476" y="-250" type="curve"/>
			<point x="494" y="-99" type="line"/>
			<point x="451" y="-125"/>
			<point x="408" y="-143"/>
			<point x="355" y="-143" type="curve" smooth="yes"/>
			<point x="266" y="-143"/>
			<point x="233" y="-88"/>
			<point x="233" y="23" type="curve" smooth="yes"/>
			<point x="233" y="206" type="line" smooth="yes"/>
			<point x="233" y="332"/>
			<point x="255" y="390"/>
			<point x="354" y="445" type="curve" smooth="yes"/>
			<point x="394" y="467" type="line"/>
		</contour>
		<contour>
			<point x="333" y="1016" type="curve" smooth="yes"/>
			<point x="270" y="1016"/>
			<point x="238" y="973"/>
			<point x="238" y="895" type="curve" smooth="yes"/>
			<point x="238" y="878" type="line" smooth="yes"/>
			<point x="238" y="801"/>
			<point x="270" y="758"/>
			<point x="333" y="758" type="curve" smooth="yes"/>
			<point x="399" y="758"/>
			<point x="428" y="801"/>
			<point x="428" y="878" type="curve" smooth="yes"/>
			<point x="428" y="895" type="line" smooth="yes"/>
			<point x="428" y="973"/>
			<point x="399" y="1016"/>
		</contour>
	</outline>
</glyph>
<glyph name="Eth" format="2">
  <advance width="789"/>
  <unicode hex="00D0"/>
  <anchor x="383" y="0" name="bottom"/>
  <anchor x="397" y="639" name="center"/>
  <anchor x="383" y="1278" name="top"/>
  <outline>
    <contour>
      <point x="12" y="589" type="line"/>
      <point x="411" y="589" type="line"/>
      <point x="411" y="725" type="line"/>
      <point x="12" y="725" type="line"/>
    </contour>
    <component base="D"/>
  </outline>
</glyph>
<glyph name="Thorn" format="2">
	<advance width="733"/>
	<unicode hex="00DE"/>
	<anchor x="368" y="1278" name="top"/>
	<anchor x="368" y="0" name="bottom"/>
	<outline>
		<contour>
			<point x="201" y="208" type="line"/>
			<point x="371" y="208" type="line" smooth="yes"/>
			<point x="582" y="208"/>
			<point x="677" y="323"/>
			<point x="677" y="543" type="curve" smooth="yes"/>
			<point x="677" y="745" type="line" smooth="yes"/>
			<point x="677" y="958"/>
			<point x="582" y="1078"/>
			<point x="370" y="1078" type="curve" smooth="yes"/>
			<point x="204" y="1078" type="line"/>
			<point x="204" y="925" type="line"/>
			<point x="363" y="925" type="line" smooth="yes"/>
			<point x="461" y="925"/>
			<point x="500" y="862"/>
			<point x="500" y="741" type="curve" smooth="yes"/>
			<point x="500" y="546" type="line" smooth="yes"/>
			<point x="500" y="424"/>
			<point x="461" y="361"/>
			<point x="362" y="361" type="curve" smooth="yes"/>
			<point x="201" y="361" type="line"/>
		</contour>
		<contour>
			<point x="98" y="0" type="line"/>
			<point x="274" y="0" type="line"/>
			<point x="274" y="258" type="line"/>
			<point x="273" y="304" type="line"/>
			<point x="273" y="978" type="line"/>
			<point x="274" y="1056" type="line"/>
			<point x="274" y="1278" type="line"/>
			<point x="98" y="1278" type="line"/>
		</contour>
	</outline>
</glyph>
<glyph name="ae" format="2">
  <advance width="1045"/>
  <unicode hex="00E6"/>
  <anchor x="518" y="0" name="bottom"/>
  <anchor x="518" y="998" name="top"/>
  <outline>
    <contour>
      <point x="751" y="-14" type="curve" smooth="yes"/>
      <point x="838" y="-14"/>
      <point x="913" y="10"/>
      <point x="965" y="41" type="curve"/>
      <point x="977" y="195" type="line"/>
      <point x="923" y="162"/>
      <point x="859" y="138"/>
      <point x="786" y="138" type="curve" smooth="yes"/>
      <point x="666" y="138"/>
      <point x="603" y="197"/>
      <point x="603" y="326" type="curve" smooth="yes"/>
      <point x="603" y="469" type="line"/>
      <point x="603" y="499" type="line"/>
      <point x="603" y="708" type="line" smooth="yes"/>
      <point x="603" y="819"/>
      <point x="634" y="871"/>
      <point x="712" y="871" type="curve" smooth="yes"/>
      <point x="788" y="871"/>
      <point x="821" y="819"/>
      <point x="821" y="708" type="curve" smooth="yes"/>
      <point x="821" y="631"/>
      <point x="821" y="539"/>
      <point x="821" y="417" type="curve"/>
      <point x="978" y="417" type="line"/>
      <point x="986" y="474"/>
      <point x="988" y="526"/>
      <point x="988" y="581" type="curve" smooth="yes"/>
      <point x="988" y="688" type="line" smooth="yes"/>
      <point x="988" y="898"/>
      <point x="905" y="1015"/>
      <point x="732" y="1015" type="curve" smooth="yes"/>
      <point x="618" y="1015"/>
      <point x="544" y="960"/>
      <point x="514" y="857" type="curve"/>
      <point x="507" y="857" type="line"/>
      <point x="478" y="960"/>
      <point x="416" y="1014"/>
      <point x="305" y="1014" type="curve" smooth="yes"/>
      <point x="223" y="1014"/>
      <point x="141" y="981"/>
      <point x="89" y="944" type="curve"/>
      <point x="77" y="788" type="line"/>
      <point x="138" y="826"/>
      <point x="215" y="862"/>
      <point x="292" y="862" type="curve" smooth="yes"/>
      <point x="389" y="862"/>
      <point x="431" y="805"/>
      <point x="431" y="681" type="curve" smooth="yes"/>
      <point x="431" y="546" type="line"/>
      <point x="431" y="419"/>
      <point x="431" y="323"/>
      <point x="434" y="206" type="curve"/>
      <point x="448" y="203" type="line"/>
      <point x="484" y="61"/>
      <point x="587" y="-14"/>
    </contour>
    <contour>
      <point x="258" y="-14" type="curve" smooth="yes"/>
      <point x="379" y="-14"/>
      <point x="433" y="48"/>
      <point x="460" y="147" type="curve"/>
      <point x="483" y="147" type="line"/>
      <point x="440" y="253" type="line"/>
      <point x="424" y="183"/>
      <point x="386" y="132"/>
      <point x="318" y="132" type="curve" smooth="yes"/>
      <point x="246" y="132"/>
      <point x="221" y="185"/>
      <point x="221" y="278" type="curve" smooth="yes"/>
      <point x="221" y="319" type="line" smooth="yes"/>
      <point x="221" y="400"/>
      <point x="251" y="443"/>
      <point x="327" y="466" type="curve" smooth="yes"/>
      <point x="470" y="510" type="line"/>
      <point x="452" y="648" type="line"/>
      <point x="284" y="598" type="line" smooth="yes"/>
      <point x="117" y="548"/>
      <point x="49" y="472"/>
      <point x="49" y="310" type="curve" smooth="yes"/>
      <point x="49" y="251" type="line" smooth="yes"/>
      <point x="49" y="79"/>
      <point x="111" y="-14"/>
    </contour>
    <contour>
      <point x="529" y="417" type="line"/>
      <point x="929" y="417" type="line"/>
      <point x="929" y="555" type="line"/>
      <point x="529" y="555" type="line"/>
    </contour>
  </outline>
</glyph>
<glyph name="divide" format="2">
  <advance width="671"/>
  <unicode hex="00F7"/>
  <outline>
    <contour>
      <point x="57" y="563" type="line"/>
      <point x="614" y="563" type="line"/>
      <point x="614" y="710" type="line"/>
      <point x="57" y="710" type="line"/>
    </contour>
    <contour>
      <point x="344" y="258" type="curve" smooth="yes"/>
      <point x="397" y="258"/>
      <point x="424" y="294"/>
      <point x="424" y="361" type="curve" smooth="yes"/>
      <point x="424" y="375" type="line" smooth="yes"/>
      <point x="424" y="440"/>
      <point x="397" y="477"/>
      <point x="344" y="477" type="curve" smooth="yes"/>
      <point x="288" y="477"/>
      <point x="263" y="440"/>
      <point x="263" y="375" type="curve" smooth="yes"/>
      <point x="263" y="361" type="line" smooth="yes"/>
      <point x="263" y="294"/>
      <point x="288" y="258"/>
    </contour>
    <contour>
      <point x="344" y="796" type="curve" smooth="yes"/>
      <point x="397" y="796"/>
      <point x="424" y="832"/>
      <point x="424" y="899" type="curve" smooth="yes"/>
      <point x="424" y="913" type="line" smooth="yes"/>
      <point x="424" y="978"/>
      <point x="397" y="1015"/>
      <point x="344" y="1015" type="curve" smooth="yes"/>
      <point x="288" y="1015"/>
      <point x="263" y="978"/>
      <point x="263" y="913" type="curve" smooth="yes"/>
      <point x="263" y="899" type="line" smooth="yes"/>
      <point x="263" y="832"/>
      <point x="288" y="796"/>
    </contour>
  </outline>
</glyph>
<glyph name="thorn" format="2">
  <advance width="741"/>
  <unicode hex="00FE"/>
  <anchor x="370" y="0" name="bottom"/>
  <anchor x="370" y="998" name="top"/>
  <outline>
    <contour>
      <point x="452" y="-14" type="curve" smooth="yes"/>
      <point x="607" y="-14"/>
      <point x="671" y="103"/>
      <point x="671" y="326" type="curve" smooth="yes"/>
      <point x="671" y="675" type="line" smooth="yes"/>
      <point x="671" y="896"/>
      <point x="607" y="1012"/>
      <point x="451" y="1012" type="curve" smooth="yes"/>
      <point x="336" y="1012"/>
      <point x="284" y="946"/>
      <point x="264" y="853" type="curve"/>
      <point x="226" y="853" type="line"/>
      <point x="256" y="737" type="line"/>
      <point x="271" y="814"/>
      <point x="311" y="870"/>
      <point x="384" y="870" type="curve" smooth="yes"/>
      <point x="466" y="870"/>
      <point x="497" y="808"/>
      <point x="497" y="689" type="curve" smooth="yes"/>
      <point x="497" y="317" type="line" smooth="yes"/>
      <point x="497" y="195"/>
      <point x="464" y="132"/>
      <point x="383" y="132" type="curve" smooth="yes"/>
      <point x="300" y="132"/>
      <point x="259" y="200"/>
      <point x="258" y="305" type="curve"/>
      <point x="213" y="145" type="line"/>
      <point x="267" y="145" type="line"/>
      <point x="289" y="53"/>
      <point x="340" y="-14"/>
    </contour>
    <contour>
      <point x="88" y="-350" type="line"/>
      <point x="261" y="-350" type="line"/>
      <point x="261" y="-47" type="line"/>
      <point x="257" y="188" type="line"/>
      <point x="258" y="218" type="line"/>
      <point x="258" y="777" type="line"/>
      <point x="253" y="782" type="line"/>
      <point x="261" y="1066" type="line"/>
      <point x="261" y="1329" type="line"/>
      <point x="88" y="1329" type="line"/>
    </contour>
  </outline>
</glyph>
<glyph name="idotless" format="2">
	<advance width="356"/>
	<unicode hex="0131"/>
	<anchor x="297" y="0" name="ogonek"/>
	<anchor x="178" y="0" name="bottom"/>
	<anchor x="178" y="998" name="top"/>
	<outline>
		<contour>
			<point x="91" y="0" type="line"/>
			<point x="265" y="0" type="line"/>
			<point x="265" y="998" type="line"/>
			<point x="91" y="998" type="line"/>
		</contour>
	</outline>
</glyph>
<glyph name="gravecomb" format="2">
	<advance width="0"/>
	<unicode hex="0300"/>
	<anchor x="-238" y="1317" name="top"/>
	<anchor x="-165" y="998" name="_top"/>
	<outline>
		<contour>
			<point x="-214" y="1349" type="line"/>
			<point x="-392" y="1349" type="line"/>
			<point x="-392" y="1349" type="line"/>
			<point x="-236" y="1092" type="line"/>
			<point x="-96" y="1092" type="line"/>
			<point x="-96" y="1092" type="line"/>
		</contour>
	</outline>
</glyph>
<glyph name="circumflexcomb" format="2">
  <unicode hex="0302"/>
  <anchor x="312" y="998" name="_top"/>
  <anchor x="312" y="1307" name="top"/>
  <outline>
    <contour>
      <point x="214" y="1349" type="line"/>
      <point x="100" y="1092" type="line"/>
      <point x="100" y="1092" type="line"/>
      <point x="228" y="1092" type="line"/>
      <point x="308" y="1252" type="line"/>
      <point x="316" y="1252" type="line"/>
      <point x="396" y="1092" type="line"/>
      <point x="524" y="1092" type="line"/>
      <point x="524" y="1092" type="line"/>
      <point x="409" y="1349" type="line"/>
    </contour>
  </outline>
</glyph>
<glyph name="tildecomb" format="2">
	<advance width="0"/>
	<unicode hex="0303"/>
	<anchor x="-324" y="1317" name="top"/>
	<anchor x="-325" y="998" name="_top"/>
	<outline>
		<contour>
			<point x="-218" y="1124" type="curve" smooth="yes"/>
			<point x="-134" y="1124"/>
			<point x="-100" y="1181"/>
			<point x="-100" y="1280" type="curve" smooth="yes"/>
			<point x="-100" y="1312" type="line"/>
			<point x="-207" y="1312" type="line"/>
			<point x="-207" y="1299" type="line" smooth="yes"/>
			<point x="-207" y="1265"/>
			<point x="-215" y="1248"/>
			<point x="-243" y="1248" type="curve" smooth="yes"/>
			<point x="-284" y="1248"/>
			<point x="-349" y="1303"/>
			<point x="-421" y="1303" type="curve" smooth="yes"/>
			<point x="-506" y="1303"/>
			<point x="-540" y="1244"/>
			<point x="-540" y="1146" type="curve" smooth="yes"/>
			<point x="-540" y="1114" type="line"/>
			<point x="-433" y="1114" type="line"/>
			<point x="-433" y="1127" type="line" smooth="yes"/>
			<point x="-433" y="1160"/>
			<point x="-424" y="1178"/>
			<point x="-396" y="1178" type="curve" smooth="yes"/>
			<point x="-354" y="1178"/>
			<point x="-284" y="1124"/>
		</contour>
	</outline>
</glyph>
<glyph name="macroncomb" format="2">
  <unicode hex="0304"/>
  <anchor x="308" y="998" name="_top"/>
  <anchor x="308" y="1276" name="top"/>
  <outline>
    <contour>
      <point x="99" y="1140" type="line"/>
      <point x="516" y="1140" type="line"/>
      <point x="516" y="1263" type="line"/>
      <point x="99" y="1263" type="line"/>
    </contour>
  </outline>
</glyph>
<glyph name="dotaccentcomb" format="2">
	<advance width="0"/>
	<unicode hex="0307"/>
	<anchor x="-189" y="1320" name="top"/>
	<anchor x="-189" y="998" name="_top"/>
	<outline>
		<contour>
			<point x="-190" y="1117" type="curve" smooth="yes"/>
			<point x="-130" y="1117"/>
			<point x="-100" y="1155"/>
			<point x="-100" y="1223" type="curve" smooth="yes"/>
			<point x="-100" y="1230" type="line" smooth="yes"/>
			<point x="-100" y="1298"/>
			<point x="-130" y="1335"/>
			<point x="-190" y="1335" type="curve" smooth="yes"/>
			<point x="-249" y="1335"/>
			<point x="-278" y="1298"/>
			<point x="-278" y="1230" type="curve" smooth="yes"/>
			<point x="-278" y="1223" type="line" smooth="yes"/>
			<point x="-278" y="1155"/>
			<point x="-249" y="1117"/>
		</contour>
	</outline>
</glyph>
<glyph name="dieresiscomb" format="2">
	<advance width="0"/>
	<unicode hex="0308"/>
	<anchor x="-301" y="1322" name="top"/>
	<anchor x="-301" y="998" name="_top"/>
	<outline>
		<contour>
			<point x="-422" y="1119" type="curve" smooth="yes"/>
			<point x="-366" y="1119"/>
			<point x="-341" y="1157"/>
			<point x="-341" y="1222" type="curve" smooth="yes"/>
			<point x="-341" y="1233" type="line" smooth="yes"/>
			<point x="-341" y="1298"/>
			<point x="-366" y="1335"/>
			<point x="-422" y="1335" type="curve" smooth="yes"/>
			<point x="-478" y="1335"/>
			<point x="-503" y="1298"/>
			<point x="-503" y="1233" type="curve" smooth="yes"/>
			<point x="-503" y="1222" type="line" smooth="yes"/>
			<point x="-503" y="1157"/>
			<point x="-478" y="1119"/>
		</contour>
		<contour>
			<point x="-181" y="1119" type="curve" smooth="yes"/>
			<point x="-126" y="1119"/>
			<point x="-100" y="1158"/>
			<point x="-100" y="1222" type="curve" smooth="yes"/>
			<point x="-100" y="1233" type="line" smooth="yes"/>
			<point x="-100" y="1297"/>
			<point x="-126" y="1335"/>
			<point x="-181" y="1335" type="curve" smooth="yes"/>
			<point x="-238" y="1335"/>
			<point x="-262" y="1297"/>
			<point x="-262" y="1233" type="curve" smooth="yes"/>
			<point x="-262" y="1222" type="line" smooth="yes"/>
			<point x="-262" y="1158"/>
			<point x="-238" y="1119"/>
		</contour>
	</outline>
</glyph>
<glyph name="ringcomb" format="2">
	<advance width="0"/>
	<unicode hex="030A"/>
	<anchor x="-270" y="1374" name="top"/>
	<anchor x="-271" y="998" name="_top"/>
	<outline>
		<contour>
			<point x="-442" y="1238" type="curve" smooth="yes"/>
			<point x="-442" y="1234" type="line"/>
			<point x="-442" y="1145"/>
			<point x="-386" y="1081"/>
			<point x="-271" y="1081" type="curve" smooth="yes"/>
			<point x="-157" y="1081"/>
			<point x="-100" y="1145"/>
			<point x="-100" y="1234" type="curve" smooth="yes"/>
			<point x="-100" y="1238" type="line" smooth="yes"/>
			<point x="-100" y="1329"/>
			<point x="-157" y="1392"/>
			<point x="-271" y="1392" type="curve" smooth="yes"/>
			<point x="-386" y="1392"/>
			<point x="-442" y="1329"/>
		</contour>
		<contour>
			<point x="-341" y="1235" type="curve" smooth="yes"/>
			<point x="-341" y="1238" type="line" smooth="yes"/>
			<point x="-341" y="1281"/>
			<point x="-316" y="1305"/>
			<point x="-271" y="1305" type="curve" smooth="yes"/>
			<point x="-227" y="1305"/>
			<point x="-202" y="1281"/>
			<point x="-202" y="1238" type="curve" smooth="yes"/>
			<point x="-202" y="1235" type="line" smooth="yes"/>
			<point x="-202" y="1192"/>
			<point x="-227" y="1168"/>
			<point x="-271" y="1168" type="curve" smooth="yes"/>
			<point x="-316" y="1168"/>
			<point x="-341" y="1192"/>
		</contour>
	</outline>
</glyph>
<glyph name="cedillacomb" format="2">
	<advance width="0"/>
	<unicode hex="0327"/>
	<anchor x="-239" y="0" name="_bottom"/>
	<anchor x="-208" y="-339" name="bottom"/>
	<outline>
		<contour>
			<point x="-184" y="21" type="line"/>
			<point x="-290" y="21" type="line"/>
			<point x="-300" y="-126" type="line"/>
			<point x="-300" y="-126"/>
			<point x="-296" y="-126"/>
			<point x="-296" y="-126" type="curve" smooth="yes"/>
			<point x="-215" y="-132"/>
			<point x="-186" y="-148"/>
			<point x="-186" y="-185" type="curve" smooth="yes"/>
			<point x="-186" y="-187" type="line" smooth="yes"/>
			<point x="-186" y="-215"/>
			<point x="-209" y="-235"/>
			<point x="-259" y="-235" type="curve" smooth="yes"/>
			<point x="-290" y="-235"/>
			<point x="-324" y="-227"/>
			<point x="-350" y="-218" type="curve"/>
			<point x="-335" y="-321" type="line"/>
			<point x="-308" y="-328"/>
			<point x="-274" y="-335"/>
			<point x="-235" y="-335" type="curve" smooth="yes"/>
			<point x="-132" y="-335"/>
			<point x="-69" y="-292"/>
			<point x="-69" y="-203" type="curve" smooth="yes"/>
			<point x="-69" y="-197" type="line" smooth="yes"/>
			<point x="-69" y="-115"/>
			<point x="-126" y="-72"/>
			<point x="-223" y="-67" type="curve" smooth="yes"/>
			<point x="-239" y="-66"/>
			<point x="-253" y="-68"/>
			<point x="-270" y="-70" type="curve"/>
			<point x="-195" y="-115" type="line"/>
		</contour>
	</outline>
</glyph>
<glyph name="Danda.bn" format="2">
  <advance width="603"/>
  <unicode hex="0964"/>
  <outline>
    <contour>
      <point x="217" y="1369" type="line"/>
      <point x="217" y="-60" type="line"/>
      <point x="385" y="-60" type="line"/>
      <point x="385" y="1369" type="line"/>
    </contour>
  </outline>
</glyph>
<glyph name="Doubledanda.bn" format="2">
  <advance width="1096"/>
  <unicode hex="0965"/>
  <outline>
    <contour>
      <point x="217" y="1369" type="line"/>
      <point x="217" y="-60" type="line"/>
      <point x="385" y="-60" type="line"/>
      <point x="385" y="1369" type="line"/>
    </contour>
    <contour>
      <point x="710" y="1369" type="line"/>
      <point x="710" y="-60" type="line"/>
      <point x="878" y="-60" type="line"/>
      <point x="878" y="1369" type="line"/>
    </contour>
  </outline>
</glyph>
<glyph name="anji.bn" format="2">
	<advance width="805"/>
	<unicode hex="0980"/>
	<outline>
		<contour>
			<point x="386" y="1302" type="curve" smooth="yes"/>
			<point x="227" y="1302"/>
			<point x="125" y="1216"/>
			<point x="105" y="1052" type="curve" smooth="yes"/>
			<point x="98" y="1001"/>
			<point x="71" y="766"/>
			<point x="71" y="692" type="curve" smooth="yes"/>
			<point x="71" y="520"/>
			<point x="163" y="411"/>
			<point x="339" y="407" type="curve" smooth="yes"/>
			<point x="395" y="406" type="line"/>
			<point x="405" y="555" type="line"/>
			<point x="366" y="555" type="line" smooth="yes"/>
			<point x="282" y="555"/>
			<point x="238" y="616"/>
			<point x="238" y="709" type="curve" smooth="yes"/>
			<point x="238" y="761"/>
			<point x="261" y="966"/>
			<point x="267" y="1017" type="curve" smooth="yes"/>
			<point x="278" y="1109"/>
			<point x="318" y="1155"/>
			<point x="392" y="1155" type="curve" smooth="yes"/>
			<point x="472" y="1155"/>
			<point x="507" y="1102"/>
			<point x="507" y="1004" type="curve" smooth="yes"/>
			<point x="507" y="232" type="line"/>
			<point x="674" y="232" type="line"/>
			<point x="674" y="1003" type="line" smooth="yes"/>
			<point x="674" y="1192"/>
			<point x="595" y="1302"/>
		</contour>
		<contour>
			<point x="674" y="159" type="curve" smooth="yes"/>
			<point x="674" y="350" type="line"/>
			<point x="507" y="350" type="line"/>
			<point x="507" y="159" type="line" smooth="yes"/>
			<point x="507" y="4"/>
			<point x="582" y="-71"/>
			<point x="743" y="-71" type="curve" smooth="yes"/>
			<point x="782" y="-71" type="line"/>
			<point x="773" y="70" type="line"/>
			<point x="743" y="70" type="line" smooth="yes"/>
			<point x="698" y="70"/>
			<point x="674" y="101"/>
		</contour>
	</outline>
</glyph>
<glyph name="Candrabindu.bn" format="2">
  <unicode hex="0981"/>
  <anchor x="-115" y="1698" name="_top2"/>
  <outline>
    <contour>
      <point x="384" y="1725" type="curve"/>
      <point x="274" y="1725" type="line"/>
      <point x="274" y="1697" type="line" smooth="yes"/>
      <point x="274" y="1571"/>
      <point x="224" y="1519"/>
      <point x="121" y="1519" type="curve" smooth="yes"/>
      <point x="18" y="1519"/>
      <point x="-32" y="1571"/>
      <point x="-32" y="1697" type="curve" smooth="yes"/>
      <point x="-32" y="1725" type="line"/>
      <point x="-142" y="1725" type="line"/>
      <point x="-142" y="1706"/>
      <point x="-142" y="1693"/>
      <point x="-142" y="1680" type="curve" smooth="yes"/>
      <point x="-142" y="1492"/>
      <point x="-48" y="1391"/>
      <point x="122" y="1391" type="curve" smooth="yes"/>
      <point x="291" y="1391"/>
      <point x="384" y="1492"/>
      <point x="384" y="1680" type="curve" smooth="yes"/>
      <point x="384" y="1692"/>
      <point x="384" y="1705"/>
    </contour>
    <contour>
      <point x="122" y="1632" type="curve" smooth="yes"/>
      <point x="175" y="1632"/>
      <point x="198" y="1669"/>
      <point x="198" y="1735" type="curve" smooth="yes"/>
      <point x="198" y="1743" type="line" smooth="yes"/>
      <point x="198" y="1810"/>
      <point x="175" y="1846"/>
      <point x="122" y="1846" type="curve" smooth="yes"/>
      <point x="68" y="1846"/>
      <point x="46" y="1810"/>
      <point x="46" y="1743" type="curve" smooth="yes"/>
      <point x="46" y="1735" type="line" smooth="yes"/>
      <point x="46" y="1669"/>
      <point x="68" y="1632"/>
    </contour>
  </outline>
</glyph>
<glyph name="Anuswara.bn" format="2">
	<advance width="710"/>
	<unicode hex="0982"/>
	<outline>
		<contour>
			<point x="638" y="-102" type="line"/>
			<point x="654" y="82" type="line"/>
			<point x="119" y="537" type="line"/>
			<point x="103" y="346" type="line"/>
		</contour>
		<contour>
			<point x="353" y="590" type="curve" smooth="yes"/>
			<point x="507" y="590"/>
			<point x="597" y="678"/>
			<point x="597" y="850" type="curve" smooth="yes"/>
			<point x="597" y="1044" type="line" smooth="yes"/>
			<point x="597" y="1218"/>
			<point x="506" y="1308"/>
			<point x="351" y="1308" type="curve" smooth="yes"/>
			<point x="197" y="1308"/>
			<point x="106" y="1218"/>
			<point x="106" y="1044" type="curve" smooth="yes"/>
			<point x="106" y="850" type="line" smooth="yes"/>
			<point x="106" y="678"/>
			<point x="196" y="590"/>
		</contour>
		<contour>
			<point x="352" y="727" type="curve" smooth="yes"/>
			<point x="298" y="727"/>
			<point x="266" y="764"/>
			<point x="266" y="841" type="curve" smooth="yes"/>
			<point x="266" y="1057" type="line" smooth="yes"/>
			<point x="266" y="1135"/>
			<point x="298" y="1171"/>
			<point x="352" y="1171" type="curve" smooth="yes"/>
			<point x="407" y="1171"/>
			<point x="438" y="1135"/>
			<point x="438" y="1057" type="curve" smooth="yes"/>
			<point x="438" y="841" type="line" smooth="yes"/>
			<point x="438" y="764"/>
			<point x="407" y="727"/>
		</contour>
	</outline>
</glyph>
<glyph name="Visarga.bn" format="2">
	<advance width="697"/>
	<unicode hex="0983"/>
	<outline>
		<contour>
			<point x="350" y="681" type="curve" smooth="yes"/>
			<point x="504" y="681"/>
			<point x="594" y="769"/>
			<point x="594" y="941" type="curve" smooth="yes"/>
			<point x="594" y="1044" type="line" smooth="yes"/>
			<point x="594" y="1218"/>
			<point x="503" y="1308"/>
			<point x="348" y="1308" type="curve" smooth="yes"/>
			<point x="194" y="1308"/>
			<point x="103" y="1218"/>
			<point x="103" y="1044" type="curve" smooth="yes"/>
			<point x="103" y="941" type="line" smooth="yes"/>
			<point x="103" y="769"/>
			<point x="193" y="681"/>
		</contour>
		<contour>
			<point x="349" y="818" type="curve" smooth="yes"/>
			<point x="295" y="818"/>
			<point x="263" y="855"/>
			<point x="263" y="932" type="curve" smooth="yes"/>
			<point x="263" y="1057" type="line" smooth="yes"/>
			<point x="263" y="1135"/>
			<point x="295" y="1171"/>
			<point x="349" y="1171" type="curve" smooth="yes"/>
			<point x="404" y="1171"/>
			<point x="435" y="1135"/>
			<point x="435" y="1057" type="curve" smooth="yes"/>
			<point x="435" y="932" type="line" smooth="yes"/>
			<point x="435" y="855"/>
			<point x="404" y="818"/>
		</contour>
		<contour>
			<point x="350" y="-24" type="curve" smooth="yes"/>
			<point x="504" y="-24"/>
			<point x="594" y="64"/>
			<point x="594" y="236" type="curve" smooth="yes"/>
			<point x="594" y="339" type="line" smooth="yes"/>
			<point x="594" y="513"/>
			<point x="503" y="603"/>
			<point x="348" y="603" type="curve" smooth="yes"/>
			<point x="194" y="603"/>
			<point x="103" y="513"/>
			<point x="103" y="339" type="curve" smooth="yes"/>
			<point x="103" y="236" type="line" smooth="yes"/>
			<point x="103" y="64"/>
			<point x="193" y="-24"/>
		</contour>
		<contour>
			<point x="349" y="113" type="curve" smooth="yes"/>
			<point x="295" y="113"/>
			<point x="263" y="150"/>
			<point x="263" y="227" type="curve" smooth="yes"/>
			<point x="263" y="352" type="line" smooth="yes"/>
			<point x="263" y="430"/>
			<point x="295" y="466"/>
			<point x="349" y="466" type="curve" smooth="yes"/>
			<point x="404" y="466"/>
			<point x="435" y="430"/>
			<point x="435" y="352" type="curve" smooth="yes"/>
			<point x="435" y="227" type="line" smooth="yes"/>
			<point x="435" y="150"/>
			<point x="404" y="113"/>
		</contour>
	</outline>
</glyph>
<glyph name="VowelA.bn" format="2">
	<advance width="1412"/>
	<unicode hex="0985"/>
	<anchor x="1112" y="1451" name="top"/>
	<anchor x="985" y="1713" name="top2"/>
	<note>
		VowelA.bn
	</note>
	<outline>
		<contour>
			<point x="526" y="179" type="curve" smooth="yes"/>
			<point x="779" y="179"/>
			<point x="917" y="319"/>
			<point x="917" y="579" type="curve" smooth="yes"/>
			<point x="917" y="770" type="line" smooth="yes"/>
			<point x="917" y="957"/>
			<point x="829" y="1056"/>
			<point x="664" y="1056" type="curve" smooth="yes"/>
			<point x="501" y="1056"/>
			<point x="417" y="961"/>
			<point x="417" y="780" type="curve" smooth="yes"/>
			<point x="417" y="726"/>
			<point x="417" y="672"/>
			<point x="417" y="611" type="curve"/>
			<point x="585" y="611" type="line"/>
			<point x="585" y="671"/>
			<point x="585" y="726"/>
			<point x="585" y="781" type="curve" smooth="yes"/>
			<point x="585" y="861"/>
			<point x="609" y="901"/>
			<point x="666" y="901" type="curve" smooth="yes"/>
			<point x="727" y="901"/>
			<point x="749" y="860"/>
			<point x="749" y="778" type="curve" smooth="yes"/>
			<point x="749" y="585" type="line" smooth="yes"/>
			<point x="749" y="422"/>
			<point x="668" y="336"/>
			<point x="517" y="336" type="curve" smooth="yes"/>
			<point x="378" y="336"/>
			<point x="279" y="413"/>
			<point x="270" y="576" type="curve" smooth="yes"/>
			<point x="249" y="970" type="line"/>
			<point x="87" y="972" type="line"/>
			<point x="107" y="571" type="line" smooth="yes"/>
			<point x="120" y="316"/>
			<point x="277" y="179"/>
		</contour>
		<contour>
			<point x="1149" y="-1" type="line"/>
			<point x="1294" y="-1" type="line"/>
			<point x="1294" y="1229" type="line"/>
			<point x="1126" y="1229" type="line"/>
			<point x="1126" y="313" type="line"/>
			<point x="1133" y="132" type="line"/>
			<point x="1180" y="176" type="line"/>
			<point x="1143" y="192" type="line"/>
			<point x="830" y="459" type="line"/>
			<point x="790" y="288" type="line"/>
		</contour>
		<contour>
			<point x="-36" y="1142" type="line"/>
			<point x="1303" y="1142" type="line"/>
			<point x="1303" y="1289" type="line"/>
			<point x="-46" y="1289" type="line"/>
		</contour>
		<contour>
			<point x="1211" y="1219" type="line"/>
			<point x="1211" y="855" type="line"/>
			<point x="1294" y="855" type="line"/>
			<point x="1294" y="1219" type="line"/>
		</contour>
		<contour>
			<point x="1211" y="1142" type="line"/>
			<point x="1467" y="1142" type="line"/>
			<point x="1457" y="1289" type="line"/>
			<point x="1211" y="1289" type="line"/>
		</contour>
	</outline>
</glyph>
<glyph name="VowelAa.bn" format="2">
  <advance width="1820"/>
  <unicode hex="0986"/>
  <note>
VowelAa.bn
</note>
  <anchor x="1520" y="1451" name="top"/>
  <anchor x="1393" y="1713" name="top2"/>
  <outline>
    <contour>
      <point x="526" y="179" type="curve" smooth="yes"/>
      <point x="779" y="179"/>
      <point x="917" y="319"/>
      <point x="917" y="579" type="curve" smooth="yes"/>
      <point x="917" y="770" type="line" smooth="yes"/>
      <point x="917" y="957"/>
      <point x="829" y="1056"/>
      <point x="664" y="1056" type="curve" smooth="yes"/>
      <point x="501" y="1056"/>
      <point x="417" y="961"/>
      <point x="417" y="780" type="curve" smooth="yes"/>
      <point x="417" y="726"/>
      <point x="417" y="672"/>
      <point x="417" y="611" type="curve"/>
      <point x="585" y="611" type="line"/>
      <point x="585" y="671"/>
      <point x="585" y="726"/>
      <point x="585" y="781" type="curve" smooth="yes"/>
      <point x="585" y="861"/>
      <point x="609" y="901"/>
      <point x="666" y="901" type="curve" smooth="yes"/>
      <point x="727" y="901"/>
      <point x="749" y="860"/>
      <point x="749" y="778" type="curve" smooth="yes"/>
      <point x="749" y="585" type="line" smooth="yes"/>
      <point x="749" y="422"/>
      <point x="668" y="336"/>
      <point x="517" y="336" type="curve" smooth="yes"/>
      <point x="378" y="336"/>
      <point x="279" y="413"/>
      <point x="270" y="576" type="curve" smooth="yes"/>
      <point x="249" y="970" type="line"/>
      <point x="87" y="972" type="line"/>
      <point x="107" y="571" type="line" smooth="yes"/>
      <point x="120" y="316"/>
      <point x="277" y="179"/>
    </contour>
    <contour>
      <point x="1149" y="-1" type="line"/>
      <point x="1294" y="-1" type="line"/>
      <point x="1294" y="1229" type="line"/>
      <point x="1126" y="1229" type="line"/>
      <point x="1126" y="313" type="line"/>
      <point x="1133" y="132" type="line"/>
      <point x="1180" y="176" type="line"/>
      <point x="1143" y="192" type="line"/>
      <point x="830" y="459" type="line"/>
      <point x="790" y="288" type="line"/>
    </contour>
    <contour>
      <point x="-36" y="1142" type="line"/>
      <point x="1303" y="1142" type="line"/>
      <point x="1303" y="1289" type="line"/>
      <point x="-46" y="1289" type="line"/>
    </contour>
    <contour>
      <point x="1211" y="1219" type="line"/>
      <point x="1211" y="855" type="line"/>
      <point x="1294" y="855" type="line"/>
      <point x="1294" y="1219" type="line"/>
    </contour>
    <contour>
      <point x="1211" y="1142" type="line"/>
      <point x="1467" y="1142" type="line"/>
      <point x="1457" y="1289" type="line"/>
      <point x="1211" y="1289" type="line"/>
    </contour>
    <contour>
      <point x="1534" y="0" type="line"/>
      <point x="1702" y="0" type="line"/>
      <point x="1702" y="1211" type="line"/>
      <point x="1534" y="1211" type="line"/>
    </contour>
    <contour>
      <point x="1370" y="1142" type="line"/>
      <point x="1695" y="1142" type="line"/>
      <point x="1695" y="1289" type="line"/>
      <point x="1360" y="1289" type="line"/>
    </contour>
    <contour>
      <point x="1619" y="1219" type="line"/>
      <point x="1619" y="855" type="line"/>
      <point x="1702" y="855" type="line"/>
      <point x="1702" y="1219" type="line"/>
    </contour>
    <contour>
      <point x="1619" y="1142" type="line"/>
      <point x="1875" y="1142" type="line"/>
      <point x="1865" y="1289" type="line"/>
      <point x="1619" y="1289" type="line"/>
    </contour>
  </outline>
</glyph>
<glyph name="VowelI.bn" format="2">
  <advance width="776"/>
  <unicode hex="0987"/>
  <note>
VowelI.bn
</note>
  <anchor x="504" y="214" name="bottom1"/>
  <anchor x="391.5" y="1520" name="top"/>
  <anchor x="484.5" y="1681" name="top2"/>
  <outline>
    <contour>
      <point x="708" y="-151" type="line"/>
      <point x="720" y="24" type="line"/>
      <point x="442" y="189" type="line"/>
      <point x="352" y="244" type="line"/>
      <point x="363" y="299" type="line"/>
      <point x="244" y="280" type="line"/>
      <point x="304" y="258"/>
      <point x="356" y="248"/>
      <point x="403" y="248" type="curve" smooth="yes"/>
      <point x="580" y="248"/>
      <point x="674" y="347"/>
      <point x="674" y="538" type="curve" smooth="yes"/>
      <point x="674" y="756" type="line" smooth="yes"/>
      <point x="674" y="952"/>
      <point x="572" y="1056"/>
      <point x="391" y="1056" type="curve" smooth="yes"/>
      <point x="216" y="1056"/>
      <point x="112" y="953"/>
      <point x="112" y="757" type="curve" smooth="yes"/>
      <point x="112" y="701"/>
      <point x="112" y="629"/>
      <point x="112" y="575" type="curve"/>
      <point x="280" y="575" type="line"/>
      <point x="280" y="629"/>
      <point x="280" y="702"/>
      <point x="280" y="760" type="curve" smooth="yes"/>
      <point x="280" y="847"/>
      <point x="318" y="901"/>
      <point x="393" y="901" type="curve" smooth="yes"/>
      <point x="467" y="901"/>
      <point x="506" y="847"/>
      <point x="506" y="760" type="curve" smooth="yes"/>
      <point x="506" y="539" type="line" smooth="yes"/>
      <point x="506" y="424"/>
      <point x="443" y="364"/>
      <point x="318" y="364" type="curve" smooth="yes"/>
      <point x="263" y="364"/>
      <point x="205" y="372"/>
      <point x="140" y="389" type="curve" smooth="yes"/>
      <point x="101" y="399" type="line"/>
      <point x="88" y="236" type="line"/>
    </contour>
    <contour>
      <point x="-18" y="1142" type="line"/>
      <point x="808" y="1142" type="line"/>
      <point x="798" y="1289" type="line"/>
      <point x="-28" y="1289" type="line"/>
    </contour>
    <contour>
      <point x="709" y="1321" type="line"/>
      <point x="714" y="1344"/>
      <point x="716" y="1365"/>
      <point x="716" y="1385" type="curve" smooth="yes"/>
      <point x="716" y="1556"/>
      <point x="609" y="1615"/>
      <point x="415" y="1615" type="curve" smooth="yes"/>
      <point x="333" y="1615" type="line" smooth="yes"/>
      <point x="241" y="1615"/>
      <point x="194" y="1649"/>
      <point x="191" y="1722" type="curve" smooth="yes"/>
      <point x="190" y="1749" type="line"/>
      <point x="42" y="1749" type="line"/>
      <point x="42" y="1713" type="line" smooth="yes"/>
      <point x="42" y="1547"/>
      <point x="142" y="1462"/>
      <point x="335" y="1462" type="curve" smooth="yes"/>
      <point x="419" y="1462" type="line" smooth="yes"/>
      <point x="514" y="1462"/>
      <point x="556" y="1434"/>
      <point x="556" y="1360" type="curve" smooth="yes"/>
      <point x="556" y="1321"/>
      <point x="549" y="1286"/>
      <point x="537" y="1258" type="curve"/>
      <point x="583" y="1271" type="line"/>
    </contour>
  </outline>
</glyph>
<glyph name="VowelIi.bn" format="2">
  <advance width="1082"/>
  <unicode hex="0988"/>
  <anchor x="657.3" y="1520" name="top"/>
  <anchor x="750.3" y="1681" name="top2"/>
  <outline>
    <contour>
      <point x="796" y="-30" type="line"/>
      <point x="964" y="-30" type="line"/>
      <point x="964" y="918" type="line"/>
      <point x="807" y="918" type="line"/>
      <point x="703" y="749"/>
      <point x="599" y="576"/>
      <point x="513" y="459" type="curve"/>
      <point x="536" y="411" type="line"/>
      <point x="575" y="480"/>
      <point x="598" y="556"/>
      <point x="598" y="642" type="curve" smooth="yes"/>
      <point x="598" y="778" type="line" smooth="yes"/>
      <point x="598" y="958"/>
      <point x="514" y="1055"/>
      <point x="351" y="1055" type="curve" smooth="yes"/>
      <point x="184" y="1055"/>
      <point x="101" y="967"/>
      <point x="101" y="772" type="curve" smooth="yes"/>
      <point x="101" y="713"/>
      <point x="101" y="640"/>
      <point x="101" y="569" type="curve"/>
      <point x="269" y="569" type="line"/>
      <point x="269" y="642"/>
      <point x="269" y="718"/>
      <point x="269" y="783" type="curve" smooth="yes"/>
      <point x="269" y="861"/>
      <point x="297" y="900"/>
      <point x="357" y="900" type="curve" smooth="yes"/>
      <point x="416" y="900"/>
      <point x="442" y="860"/>
      <point x="442" y="781" type="curve" smooth="yes"/>
      <point x="442" y="524" type="line" smooth="yes"/>
      <point x="442" y="411"/>
      <point x="373" y="364"/>
      <point x="247" y="364" type="curve" smooth="yes"/>
      <point x="206" y="364"/>
      <point x="166" y="370"/>
      <point x="129" y="378" type="curve" smooth="yes"/>
      <point x="90" y="386" type="line"/>
      <point x="90" y="232" type="line"/>
      <point x="134" y="217"/>
      <point x="197" y="206"/>
      <point x="263" y="206" type="curve" smooth="yes"/>
      <point x="403" y="206"/>
      <point x="488" y="234"/>
      <point x="573" y="326" type="curve" smooth="yes"/>
      <point x="658" y="418"/>
      <point x="758" y="584"/>
      <point x="895" y="812" type="curve"/>
      <point x="810" y="832" type="line"/>
      <point x="796" y="539" type="line"/>
    </contour>
    <contour>
      <point x="-25" y="1142" type="line"/>
      <point x="1120" y="1142" type="line"/>
      <point x="1110" y="1289" type="line"/>
      <point x="-35" y="1289" type="line"/>
    </contour>
    <contour>
      <point x="974" y="1321" type="line"/>
      <point x="979" y="1344"/>
      <point x="981" y="1365"/>
      <point x="981" y="1385" type="curve" smooth="yes"/>
      <point x="981" y="1556"/>
      <point x="872" y="1615"/>
      <point x="674" y="1615" type="curve" smooth="yes"/>
      <point x="380" y="1615" type="line" smooth="yes"/>
      <point x="288" y="1615"/>
      <point x="241" y="1650"/>
      <point x="238" y="1722" type="curve" smooth="yes"/>
      <point x="237" y="1749" type="line"/>
      <point x="92" y="1749" type="line"/>
      <point x="92" y="1713" type="line" smooth="yes"/>
      <point x="92" y="1546"/>
      <point x="193" y="1462"/>
      <point x="390" y="1462" type="curve" smooth="yes"/>
      <point x="680" y="1462" type="line" smooth="yes"/>
      <point x="778" y="1462"/>
      <point x="821" y="1434"/>
      <point x="821" y="1360" type="curve" smooth="yes"/>
      <point x="821" y="1321"/>
      <point x="814" y="1286"/>
      <point x="802" y="1258" type="curve"/>
      <point x="857" y="1271" type="line"/>
    </contour>
  </outline>
</glyph>
<glyph name="VowelU.bn" format="2">
	<advance width="1020"/>
	<unicode hex="0989"/>
	<anchor x="693" y="189" name="bottom1"/>
	<anchor x="602.68" y="1520" name="top"/>
	<anchor x="695.68" y="1681" name="top2"/>
	<note>
		VowelU.bn
	</note>
	<outline>
		<contour>
			<point x="281" y="446" type="curve" smooth="yes"/>
			<point x="251" y="972" type="line"/>
			<point x="89" y="972" type="line"/>
			<point x="119" y="431" type="line" smooth="yes"/>
			<point x="134" y="159"/>
			<point x="279" y="10"/>
			<point x="535" y="10" type="curve" smooth="yes"/>
			<point x="795" y="10"/>
			<point x="934" y="157"/>
			<point x="934" y="430" type="curve" smooth="yes"/>
			<point x="934" y="594"/>
			<point x="932" y="728"/>
			<point x="919" y="929" type="curve"/>
			<point x="784" y="937" type="line"/>
			<point x="768" y="831" type="line" smooth="yes"/>
			<point x="752" y="726"/>
			<point x="724" y="682"/>
			<point x="667" y="682" type="curve" smooth="yes"/>
			<point x="615" y="682"/>
			<point x="590" y="716"/>
			<point x="590" y="798" type="curve" smooth="yes"/>
			<point x="590" y="1244" type="line"/>
			<point x="422" y="1244" type="line"/>
			<point x="422" y="771" type="line" smooth="yes"/>
			<point x="422" y="610"/>
			<point x="493" y="527"/>
			<point x="630" y="527" type="curve" smooth="yes"/>
			<point x="740" y="527"/>
			<point x="804" y="602"/>
			<point x="829" y="714" type="curve" smooth="yes"/>
			<point x="857" y="840" type="line"/>
			<point x="765" y="717" type="line"/>
			<point x="766" y="631"/>
			<point x="766" y="529"/>
			<point x="766" y="430" type="curve" smooth="yes"/>
			<point x="766" y="257"/>
			<point x="686" y="167"/>
			<point x="532" y="167" type="curve" smooth="yes"/>
			<point x="377" y="167"/>
			<point x="291" y="266"/>
		</contour>
		<contour>
			<point x="-37" y="1142" type="line"/>
			<point x="1088" y="1142" type="line"/>
			<point x="1078" y="1289" type="line"/>
			<point x="-47" y="1289" type="line"/>
		</contour>
		<contour>
			<point x="920" y="1321" type="line"/>
			<point x="925" y="1344"/>
			<point x="927" y="1365"/>
			<point x="927" y="1385" type="curve" smooth="yes"/>
			<point x="927" y="1556"/>
			<point x="818" y="1615"/>
			<point x="621" y="1615" type="curve" smooth="yes"/>
			<point x="397" y="1615" type="line" smooth="yes"/>
			<point x="305" y="1615"/>
			<point x="258" y="1650"/>
			<point x="255" y="1722" type="curve" smooth="yes"/>
			<point x="254" y="1749" type="line"/>
			<point x="108" y="1749" type="line"/>
			<point x="108" y="1713" type="line" smooth="yes"/>
			<point x="108" y="1548"/>
			<point x="209" y="1466"/>
			<point x="405" y="1466" type="curve" smooth="yes"/>
			<point x="632" y="1466" type="line" smooth="yes"/>
			<point x="729" y="1466"/>
			<point x="772" y="1437"/>
			<point x="772" y="1360" type="curve" smooth="yes"/>
			<point x="772" y="1321"/>
			<point x="765" y="1286"/>
			<point x="753" y="1258" type="curve"/>
			<point x="804" y="1271" type="line"/>
		</contour>
	</outline>
</glyph>
<glyph name="VowelUu.bn" format="2">
	<advance width="1146"/>
	<unicode hex="098A"/>
	<anchor x="728.48" y="1520" name="top"/>
	<anchor x="821.48" y="1681" name="top2"/>
	<outline>
		<contour>
			<point x="548" y="1243" type="line"/>
			<point x="548" y="771" type="line" smooth="yes"/>
			<point x="548" y="610"/>
			<point x="619" y="527"/>
			<point x="756" y="527" type="curve" smooth="yes"/>
			<point x="866" y="527"/>
			<point x="926" y="615"/>
			<point x="955" y="744" type="curve" smooth="yes"/>
			<point x="983" y="870" type="line"/>
			<point x="891" y="797" type="line"/>
			<point x="892" y="686"/>
			<point x="892" y="555"/>
			<point x="892" y="431" type="curve" smooth="yes"/>
			<point x="892" y="256"/>
			<point x="812" y="166"/>
			<point x="671" y="166" type="curve" smooth="yes"/>
			<point x="542" y="166"/>
			<point x="473" y="263"/>
			<point x="462" y="461" type="curve" smooth="yes"/>
			<point x="434" y="986" type="line"/>
			<point x="298" y="986" type="line"/>
			<point x="326" y="475" type="line" smooth="yes"/>
			<point x="337" y="282"/>
			<point x="383" y="167"/>
			<point x="542" y="110" type="curve"/>
			<point x="490" y="183" type="line"/>
			<point x="463" y="109" type="line"/>
			<point x="503" y="130" type="line"/>
			<point x="369" y="147"/>
			<point x="265" y="258"/>
			<point x="253" y="479" type="curve" smooth="yes"/>
			<point x="230" y="897" type="line"/>
			<point x="93" y="897" type="line"/>
			<point x="119" y="456" type="line" smooth="yes"/>
			<point x="136" y="163"/>
			<point x="324" y="10"/>
			<point x="642" y="10" type="curve" smooth="yes"/>
			<point x="912" y="10"/>
			<point x="1060" y="149"/>
			<point x="1060" y="431" type="curve" smooth="yes"/>
			<point x="1060" y="612"/>
			<point x="1058" y="729"/>
			<point x="1045" y="929" type="curve"/>
			<point x="910" y="937" type="line"/>
			<point x="894" y="831" type="line" smooth="yes"/>
			<point x="878" y="727"/>
			<point x="850" y="682"/>
			<point x="793" y="682" type="curve" smooth="yes"/>
			<point x="740" y="682"/>
			<point x="716" y="716"/>
			<point x="716" y="799" type="curve" smooth="yes"/>
			<point x="716" y="1243" type="line"/>
		</contour>
		<contour>
			<point x="-37" y="1142" type="line"/>
			<point x="1214" y="1142" type="line"/>
			<point x="1204" y="1289" type="line"/>
			<point x="-47" y="1289" type="line"/>
		</contour>
		<contour>
			<point x="1045" y="1321" type="line"/>
			<point x="1050" y="1344"/>
			<point x="1052" y="1365"/>
			<point x="1052" y="1385" type="curve" smooth="yes"/>
			<point x="1052" y="1556"/>
			<point x="943" y="1615"/>
			<point x="745" y="1615" type="curve" smooth="yes"/>
			<point x="461" y="1615" type="line" smooth="yes"/>
			<point x="368" y="1615"/>
			<point x="322" y="1650"/>
			<point x="319" y="1722" type="curve" smooth="yes"/>
			<point x="318" y="1749" type="line"/>
			<point x="172" y="1749" type="line"/>
			<point x="172" y="1713" type="line" smooth="yes"/>
			<point x="172" y="1549"/>
			<point x="273" y="1467"/>
			<point x="471" y="1467" type="curve" smooth="yes"/>
			<point x="757" y="1467" type="line" smooth="yes"/>
			<point x="856" y="1467"/>
			<point x="899" y="1438"/>
			<point x="899" y="1360" type="curve" smooth="yes"/>
			<point x="899" y="1321"/>
			<point x="892" y="1286"/>
			<point x="880" y="1258" type="curve"/>
			<point x="934" y="1271" type="line"/>
		</contour>
	</outline>
</glyph>
<glyph name="VowelLru.bn" format="2">
  <advance width="1032"/>
  <unicode hex="098C"/>
  <anchor x="464" y="1496" name="top2"/>
  <outline>
    <contour>
      <point x="93" y="0" type="curve"/>
      <point x="261" y="0" type="line"/>
      <point x="261" y="74"/>
      <point x="261" y="168"/>
      <point x="261" y="256" type="curve" smooth="yes"/>
      <point x="261" y="429" type="line" smooth="yes"/>
      <point x="261" y="530"/>
      <point x="289" y="569"/>
      <point x="353" y="569" type="curve" smooth="yes"/>
      <point x="416" y="569"/>
      <point x="443" y="529"/>
      <point x="443" y="426" type="curve" smooth="yes"/>
      <point x="443" y="0" type="line"/>
      <point x="608" y="0" type="line" smooth="yes"/>
      <point x="822" y="0"/>
      <point x="946" y="116"/>
      <point x="946" y="313" type="curve" smooth="yes"/>
      <point x="946" y="528" type="line" smooth="yes"/>
      <point x="946" y="792"/>
      <point x="849" y="920"/>
      <point x="587" y="1035" type="curve" smooth="yes"/>
      <point x="498" y="1074" type="line" smooth="yes"/>
      <point x="322" y="1151"/>
      <point x="287" y="1191"/>
      <point x="287" y="1294" type="curve" smooth="yes"/>
      <point x="287" y="1302" type="line"/>
      <point x="133" y="1302" type="line"/>
      <point x="133" y="1290" type="line" smooth="yes"/>
      <point x="133" y="1129"/>
      <point x="193" y="1042"/>
      <point x="426" y="939" type="curve" smooth="yes"/>
      <point x="514" y="900" type="line" smooth="yes"/>
      <point x="717" y="810"/>
      <point x="778" y="727"/>
      <point x="778" y="526" type="curve" smooth="yes"/>
      <point x="778" y="318" type="line" smooth="yes"/>
      <point x="778" y="192"/>
      <point x="713" y="141"/>
      <point x="609" y="141" type="curve" smooth="yes"/>
      <point x="566" y="141" type="line"/>
      <point x="608" y="82" type="line"/>
      <point x="608" y="424" type="line" smooth="yes"/>
      <point x="608" y="620"/>
      <point x="511" y="724"/>
      <point x="345" y="724" type="curve" smooth="yes"/>
      <point x="180" y="724"/>
      <point x="93" y="622"/>
      <point x="93" y="429" type="curve" smooth="yes"/>
      <point x="93" y="257" type="line" smooth="yes"/>
      <point x="93" y="168"/>
      <point x="93" y="78"/>
    </contour>
  </outline>
</glyph>
<glyph name="VowelE.bn" format="2">
  <advance width="974"/>
  <unicode hex="098F"/>
  <anchor x="363" y="1713" name="top2"/>
  <outline>
    <contour>
      <point x="567" y="519" type="curve"/>
      <point x="579" y="676" type="line"/>
      <point x="563" y="676"/>
      <point x="536" y="677"/>
      <point x="524" y="678" type="curve" smooth="yes"/>
      <point x="477" y="679"/>
      <point x="448" y="702"/>
      <point x="448" y="767" type="curve" smooth="yes"/>
      <point x="448" y="826"/>
      <point x="458" y="942"/>
      <point x="463" y="985" type="curve" smooth="yes"/>
      <point x="475" y="1105"/>
      <point x="513" y="1152"/>
      <point x="583" y="1152" type="curve" smooth="yes"/>
      <point x="666" y="1152"/>
      <point x="688" y="1088"/>
      <point x="688" y="992" type="curve" smooth="yes"/>
      <point x="688" y="283" type="line"/>
      <point x="698" y="115" type="line"/>
      <point x="710" y="-1" type="line"/>
      <point x="856" y="-1" type="line"/>
      <point x="856" y="991" type="line" smooth="yes"/>
      <point x="856" y="1201"/>
      <point x="766" y="1307"/>
      <point x="583" y="1307" type="curve" smooth="yes"/>
      <point x="419" y="1307"/>
      <point x="320" y="1213"/>
      <point x="297" y="1006" type="curve" smooth="yes"/>
      <point x="289" y="929"/>
      <point x="279" y="809"/>
      <point x="279" y="751" type="curve" smooth="yes"/>
      <point x="279" y="593"/>
      <point x="376" y="519"/>
      <point x="514" y="519" type="curve" smooth="yes"/>
      <point x="530" y="519"/>
      <point x="549" y="519"/>
    </contour>
    <contour>
      <point x="710" y="-1" type="line"/>
      <point x="706" y="168" type="line"/>
      <point x="685" y="168" type="line"/>
      <point x="663" y="239"/>
      <point x="605" y="276"/>
      <point x="514" y="276" type="curve" smooth="yes"/>
      <point x="413" y="276" type="line" smooth="yes"/>
      <point x="299" y="276"/>
      <point x="244" y="336"/>
      <point x="243" y="455" type="curve" smooth="yes"/>
      <point x="242" y="562" type="line"/>
      <point x="80" y="562" type="line"/>
      <point x="80" y="526"/>
      <point x="80" y="485"/>
      <point x="80" y="450" type="curve" smooth="yes"/>
      <point x="80" y="231"/>
      <point x="185" y="122"/>
      <point x="410" y="122" type="curve" smooth="yes"/>
      <point x="541" y="122" type="line" smooth="yes"/>
      <point x="626" y="122"/>
      <point x="677" y="89"/>
      <point x="697" y="35" type="curve" smooth="yes"/>
    </contour>
  </outline>
</glyph>
<glyph name="VowelAi.bn" format="2">
  <advance width="1244"/>
  <unicode hex="0990"/>
  <anchor x="899" y="1636" name="top2"/>
  <outline>
    <contour>
      <point x="873" y="539" type="curve" smooth="yes"/>
      <point x="1088" y="539"/>
      <point x="1193" y="664"/>
      <point x="1193" y="897" type="curve" smooth="yes"/>
      <point x="1193" y="1089" type="line" smooth="yes"/>
      <point x="1193" y="1299"/>
      <point x="1126" y="1450"/>
      <point x="858" y="1570" type="curve" smooth="yes"/>
      <point x="735" y="1625" type="line" smooth="yes"/>
      <point x="586" y="1692"/>
      <point x="551" y="1735"/>
      <point x="551" y="1839" type="curve" smooth="yes"/>
      <point x="551" y="1848" type="line"/>
      <point x="397" y="1848" type="line"/>
      <point x="397" y="1835" type="line" smooth="yes"/>
      <point x="397" y="1679"/>
      <point x="442" y="1587"/>
      <point x="673" y="1484" type="curve" smooth="yes"/>
      <point x="801" y="1427" type="line" smooth="yes"/>
      <point x="994" y="1341"/>
      <point x="1026" y="1240"/>
      <point x="1026" y="1086" type="curve" smooth="yes"/>
      <point x="1026" y="897" type="line" smooth="yes"/>
      <point x="1026" y="755"/>
      <point x="975" y="690"/>
      <point x="870" y="690" type="curve" smooth="yes"/>
      <point x="838" y="690"/>
      <point x="808" y="690"/>
      <point x="803" y="690" type="curve"/>
      <point x="750" y="539" type="line"/>
      <point x="805" y="539" type="line"/>
      <point x="794" y="539"/>
      <point x="833" y="539"/>
    </contour>
    <contour>
      <point x="567" y="519" type="curve"/>
      <point x="579" y="676" type="line"/>
      <point x="563" y="676"/>
      <point x="536" y="677"/>
      <point x="524" y="678" type="curve" smooth="yes"/>
      <point x="477" y="679"/>
      <point x="448" y="702"/>
      <point x="448" y="767" type="curve" smooth="yes"/>
      <point x="448" y="826"/>
      <point x="458" y="942"/>
      <point x="463" y="985" type="curve" smooth="yes"/>
      <point x="475" y="1105"/>
      <point x="513" y="1152"/>
      <point x="583" y="1152" type="curve" smooth="yes"/>
      <point x="666" y="1152"/>
      <point x="688" y="1088"/>
      <point x="688" y="992" type="curve" smooth="yes"/>
      <point x="688" y="283" type="line"/>
      <point x="698" y="115" type="line"/>
      <point x="710" y="-1" type="line"/>
      <point x="856" y="-1" type="line"/>
      <point x="856" y="991" type="line" smooth="yes"/>
      <point x="856" y="1201"/>
      <point x="766" y="1307"/>
      <point x="583" y="1307" type="curve" smooth="yes"/>
      <point x="419" y="1307"/>
      <point x="320" y="1213"/>
      <point x="297" y="1006" type="curve" smooth="yes"/>
      <point x="289" y="929"/>
      <point x="279" y="809"/>
      <point x="279" y="751" type="curve" smooth="yes"/>
      <point x="279" y="593"/>
      <point x="376" y="519"/>
      <point x="514" y="519" type="curve" smooth="yes"/>
      <point x="530" y="519"/>
      <point x="549" y="519"/>
    </contour>
    <contour>
      <point x="710" y="-1" type="line"/>
      <point x="706" y="168" type="line"/>
      <point x="685" y="168" type="line"/>
      <point x="663" y="239"/>
      <point x="605" y="276"/>
      <point x="514" y="276" type="curve" smooth="yes"/>
      <point x="413" y="276" type="line" smooth="yes"/>
      <point x="299" y="276"/>
      <point x="244" y="336"/>
      <point x="243" y="455" type="curve" smooth="yes"/>
      <point x="242" y="562" type="line"/>
      <point x="80" y="562" type="line"/>
      <point x="80" y="526"/>
      <point x="80" y="485"/>
      <point x="80" y="450" type="curve" smooth="yes"/>
      <point x="80" y="231"/>
      <point x="185" y="122"/>
      <point x="410" y="122" type="curve" smooth="yes"/>
      <point x="541" y="122" type="line" smooth="yes"/>
      <point x="626" y="122"/>
      <point x="677" y="89"/>
      <point x="697" y="35" type="curve" smooth="yes"/>
    </contour>
  </outline>
</glyph>
<glyph name="VowelO.bn" format="2">
  <advance width="875"/>
  <unicode hex="0993"/>
  <anchor x="243" y="1713" name="top2"/>
  <outline>
    <contour>
      <point x="88" y="650" type="line"/>
      <point x="102" y="369" type="line" smooth="yes"/>
      <point x="114" y="135"/>
      <point x="236" y="10"/>
      <point x="459" y="10" type="curve" smooth="yes"/>
      <point x="663" y="10"/>
      <point x="771" y="112"/>
      <point x="771" y="293" type="curve" smooth="yes"/>
      <point x="771" y="338" type="line" smooth="yes"/>
      <point x="771" y="474"/>
      <point x="712" y="560"/>
      <point x="593" y="580" type="curve"/>
      <point x="593" y="590" type="line"/>
      <point x="711" y="610"/>
      <point x="762" y="693"/>
      <point x="762" y="836" type="curve" smooth="yes"/>
      <point x="762" y="991" type="line" smooth="yes"/>
      <point x="762" y="1196"/>
      <point x="663" y="1308"/>
      <point x="480" y="1308" type="curve" smooth="yes"/>
      <point x="297" y="1308"/>
      <point x="201" y="1200"/>
      <point x="201" y="989" type="curve" smooth="yes"/>
      <point x="201" y="923"/>
      <point x="201" y="856"/>
      <point x="201" y="789" type="curve"/>
      <point x="369" y="789" type="line"/>
      <point x="369" y="858"/>
      <point x="369" y="927"/>
      <point x="369" y="996" type="curve" smooth="yes"/>
      <point x="369" y="1099"/>
      <point x="408" y="1153"/>
      <point x="481" y="1153" type="curve" smooth="yes"/>
      <point x="557" y="1153"/>
      <point x="594" y="1098"/>
      <point x="594" y="996" type="curve" smooth="yes"/>
      <point x="594" y="833" type="line" smooth="yes"/>
      <point x="594" y="718"/>
      <point x="549" y="667"/>
      <point x="457" y="664" type="curve" smooth="yes"/>
      <point x="404" y="662" type="line"/>
      <point x="404" y="508" type="line"/>
      <point x="457" y="506" type="line" smooth="yes"/>
      <point x="553" y="502"/>
      <point x="601" y="456"/>
      <point x="601" y="362" type="curve" smooth="yes"/>
      <point x="601" y="321" type="line" smooth="yes"/>
      <point x="601" y="222"/>
      <point x="548" y="167"/>
      <point x="447" y="167" type="curve" smooth="yes"/>
      <point x="333" y="167"/>
      <point x="272" y="241"/>
      <point x="265" y="374" type="curve" smooth="yes"/>
      <point x="250" y="650" type="line"/>
    </contour>
  </outline>
</glyph>
<glyph name="VowelAu.bn" format="2">
	<advance width="1147"/>
	<unicode hex="0994"/>
	<anchor x="813" y="1636" name="top2"/>
	<outline>
		<contour>
			<point x="755" y="574" type="curve" smooth="yes"/>
			<point x="985" y="574"/>
			<point x="1096" y="686"/>
			<point x="1096" y="918" type="curve" smooth="yes"/>
			<point x="1096" y="1089" type="line" smooth="yes"/>
			<point x="1096" y="1299"/>
			<point x="1027" y="1451"/>
			<point x="760" y="1570" type="curve" smooth="yes"/>
			<point x="637" y="1625" type="line" smooth="yes"/>
			<point x="486" y="1692"/>
			<point x="454" y="1737"/>
			<point x="454" y="1839" type="curve" smooth="yes"/>
			<point x="454" y="1848" type="line"/>
			<point x="300" y="1848" type="line"/>
			<point x="300" y="1835" type="line" smooth="yes"/>
			<point x="300" y="1679"/>
			<point x="341" y="1589"/>
			<point x="576" y="1484" type="curve" smooth="yes"/>
			<point x="704" y="1427" type="line" smooth="yes"/>
			<point x="896" y="1341"/>
			<point x="929" y="1239"/>
			<point x="929" y="1087" type="curve" smooth="yes"/>
			<point x="929" y="918" type="line" smooth="yes"/>
			<point x="929" y="778"/>
			<point x="876" y="718"/>
			<point x="757" y="718" type="curve" smooth="yes"/>
			<point x="724" y="718"/>
			<point x="688" y="718"/>
			<point x="657" y="718" type="curve"/>
			<point x="545" y="645" type="line"/>
			<point x="568" y="578" type="line"/>
			<point x="640" y="575"/>
			<point x="552" y="574"/>
		</contour>
		<contour>
			<point x="88" y="650" type="line"/>
			<point x="102" y="369" type="line" smooth="yes"/>
			<point x="114" y="135"/>
			<point x="236" y="10"/>
			<point x="460" y="10" type="curve" smooth="yes"/>
			<point x="664" y="10"/>
			<point x="772" y="112"/>
			<point x="772" y="293" type="curve" smooth="yes"/>
			<point x="772" y="338" type="line" smooth="yes"/>
			<point x="772" y="475"/>
			<point x="713" y="562"/>
			<point x="594" y="582" type="curve"/>
			<point x="594" y="588" type="line"/>
			<point x="708" y="608"/>
			<point x="758" y="692"/>
			<point x="758" y="836" type="curve" smooth="yes"/>
			<point x="758" y="991" type="line" smooth="yes"/>
			<point x="758" y="1196"/>
			<point x="661" y="1308"/>
			<point x="481" y="1308" type="curve" smooth="yes"/>
			<point x="298" y="1308"/>
			<point x="202" y="1200"/>
			<point x="202" y="989" type="curve" smooth="yes"/>
			<point x="202" y="923"/>
			<point x="202" y="856"/>
			<point x="202" y="789" type="curve"/>
			<point x="369" y="789" type="line"/>
			<point x="369" y="858"/>
			<point x="369" y="927"/>
			<point x="369" y="996" type="curve" smooth="yes"/>
			<point x="369" y="1100"/>
			<point x="408" y="1155"/>
			<point x="482" y="1155" type="curve" smooth="yes"/>
			<point x="557" y="1155"/>
			<point x="594" y="1099"/>
			<point x="594" y="996" type="curve" smooth="yes"/>
			<point x="594" y="833" type="line" smooth="yes"/>
			<point x="594" y="711"/>
			<point x="549" y="657"/>
			<point x="458" y="654" type="curve" smooth="yes"/>
			<point x="405" y="652" type="line"/>
			<point x="405" y="518" type="line"/>
			<point x="458" y="516" type="line" smooth="yes"/>
			<point x="551" y="512"/>
			<point x="598" y="462"/>
			<point x="598" y="362" type="curve" smooth="yes"/>
			<point x="598" y="321" type="line" smooth="yes"/>
			<point x="598" y="220"/>
			<point x="546" y="163"/>
			<point x="448" y="163" type="curve" smooth="yes"/>
			<point x="334" y="163"/>
			<point x="273" y="239"/>
			<point x="266" y="374" type="curve" smooth="yes"/>
			<point x="251" y="650" type="line"/>
		</contour>
	</outline>
</glyph>
<glyph name="Ka.bn" format="2">
  <advance width="1105"/>
  <unicode hex="0995"/>
  <anchor x="669" y="-1" name="bottom1"/>
  <anchor x="484" y="1451" name="top"/>
  <anchor x="357" y="1713" name="top2"/>
  <outline>
    <contour>
      <point x="524" y="-1" type="line"/>
      <point x="669" y="-1" type="line"/>
      <point x="669" y="979" type="line"/>
      <point x="666" y="1017" type="line"/>
      <point x="666" y="1188" type="line"/>
      <point x="510" y="1188" type="line"/>
      <point x="510" y="1015" type="line"/>
      <point x="503" y="983" type="line"/>
      <point x="503" y="312" type="line"/>
      <point x="512" y="129" type="line"/>
      <point x="529" y="190" type="line"/>
      <point x="208" y="484" type="line"/>
      <point x="256" y="345" type="line"/>
      <point x="256" y="769" type="line"/>
      <point x="210" y="665" type="line"/>
      <point x="308" y="760"/>
      <point x="447" y="861"/>
      <point x="587" y="925" type="curve"/>
      <point x="538" y="1072" type="line"/>
      <point x="388" y="1003"/>
      <point x="209" y="888"/>
      <point x="89" y="776" type="curve"/>
      <point x="89" y="388" type="line"/>
    </contour>
    <contour>
      <point x="781" y="276" type="line"/>
      <point x="787" y="276"/>
      <point x="791" y="276"/>
      <point x="797" y="276" type="curve" smooth="yes"/>
      <point x="959" y="276"/>
      <point x="1032" y="355"/>
      <point x="1032" y="545" type="curve" smooth="yes"/>
      <point x="1032" y="674" type="line" smooth="yes"/>
      <point x="1032" y="866"/>
      <point x="954" y="963"/>
      <point x="759" y="1032" type="curve" smooth="yes"/>
      <point x="629" y="1078" type="line"/>
      <point x="629" y="913" type="line"/>
      <point x="740" y="872" type="line" smooth="yes"/>
      <point x="833" y="838"/>
      <point x="867" y="786"/>
      <point x="867" y="681" type="curve" smooth="yes"/>
      <point x="867" y="540" type="line" smooth="yes"/>
      <point x="867" y="468"/>
      <point x="840" y="432"/>
      <point x="786" y="432" type="curve" smooth="yes"/>
      <point x="782" y="432"/>
      <point x="779" y="432"/>
      <point x="774" y="432" type="curve"/>
    </contour>
    <contour>
      <point x="-26" y="1142" type="line"/>
      <point x="1141" y="1142" type="line"/>
      <point x="1131" y="1289" type="line"/>
      <point x="-36" y="1289" type="line"/>
    </contour>
    <contour>
      <point x="583" y="1219" type="line"/>
      <point x="583" y="855" type="line"/>
      <point x="666" y="855" type="line"/>
      <point x="666" y="1219" type="line"/>
    </contour>
    <contour>
      <point x="583" y="1142" type="line"/>
      <point x="839" y="1142" type="line"/>
      <point x="829" y="1289" type="line"/>
      <point x="583" y="1289" type="line"/>
    </contour>
  </outline>
</glyph>
<glyph name="Kha.bn" format="2">
  <advance width="939"/>
  <unicode hex="0996"/>
  <anchor x="820" y="-1" name="bottom1"/>
  <anchor x="639" y="1451" name="top"/>
  <anchor x="512" y="1713" name="top2"/>
  <outline>
    <contour>
      <point x="673" y="-1" type="line"/>
      <point x="821" y="-1" type="line"/>
      <point x="821" y="1289" type="line"/>
      <point x="653" y="1289" type="line"/>
      <point x="653" y="312" type="line"/>
      <point x="661" y="129" type="line"/>
      <point x="680" y="166" type="line"/>
      <point x="263" y="464" type="line"/>
      <point x="290" y="401" type="line"/>
      <point x="290" y="658" type="line"/>
      <point x="181" y="554" type="line"/>
      <point x="287" y="573" type="line" smooth="yes"/>
      <point x="441" y="601"/>
      <point x="522" y="678"/>
      <point x="522" y="867" type="curve" smooth="yes"/>
      <point x="522" y="1023"/>
      <point x="522" y="1138"/>
      <point x="521" y="1288" type="curve"/>
      <point x="375" y="1288" type="line"/>
      <point x="357" y="1096"/>
      <point x="340" y="1035"/>
      <point x="265" y="1035" type="curve" smooth="yes"/>
      <point x="217" y="1035"/>
      <point x="190" y="1070"/>
      <point x="189" y="1139" type="curve" smooth="yes"/>
      <point x="187" y="1289" type="line"/>
      <point x="41" y="1289" type="line"/>
      <point x="41" y="1119" type="line" smooth="yes"/>
      <point x="41" y="967"/>
      <point x="115" y="889"/>
      <point x="244" y="889" type="curve" smooth="yes"/>
      <point x="373" y="889"/>
      <point x="434" y="969"/>
      <point x="459" y="1194" type="curve"/>
      <point x="357" y="1110" type="line"/>
      <point x="357" y="1042"/>
      <point x="356" y="946"/>
      <point x="356" y="872" type="curve" smooth="yes"/>
      <point x="356" y="771"/>
      <point x="313" y="733"/>
      <point x="214" y="714" type="curve" smooth="yes"/>
      <point x="112" y="694" type="line"/>
      <point x="112" y="381" type="line"/>
    </contour>
    <contour>
      <point x="738" y="1219" type="line"/>
      <point x="738" y="855" type="line"/>
      <point x="821" y="855" type="line"/>
      <point x="821" y="1219" type="line"/>
    </contour>
    <contour>
      <point x="738" y="1142" type="line"/>
      <point x="994" y="1142" type="line"/>
      <point x="984" y="1289" type="line"/>
      <point x="738" y="1289" type="line"/>
    </contour>
  </outline>
</glyph>
<glyph name="Gha.bn" format="2">
	<advance width="895"/>
	<unicode hex="0998"/>
	<anchor x="776" y="-1" name="bottom1"/>
	<anchor x="595" y="1451" name="top"/>
	<anchor x="468" y="1713" name="top2"/>
	<outline>
		<contour>
			<point x="777" y="-1" type="line"/>
			<point x="777" y="1192" type="line"/>
			<point x="610" y="1192" type="line"/>
			<point x="610" y="312" type="line"/>
			<point x="618" y="129" type="line"/>
			<point x="637" y="178" type="line"/>
			<point x="260" y="438" type="line"/>
			<point x="286" y="377" type="line"/>
			<point x="286" y="605" type="line"/>
			<point x="264" y="551" type="line"/>
			<point x="482" y="678" type="line"/>
			<point x="478" y="850" type="line"/>
			<point x="115" y="642" type="line"/>
			<point x="115" y="350" type="line"/>
			<point x="632" y="-1" type="line"/>
		</contour>
		<contour>
			<point x="369" y="1144" type="curve"/>
			<point x="187" y="1176" type="line"/>
			<point x="120" y="1157"/>
			<point x="82" y="1107"/>
			<point x="82" y="1010" type="curve" smooth="yes"/>
			<point x="82" y="957" type="line" smooth="yes"/>
			<point x="82" y="830"/>
			<point x="159" y="750"/>
			<point x="287" y="749" type="curve"/>
			<point x="286" y="732" type="line"/>
			<point x="478" y="850" type="line"/>
			<point x="451" y="842"/>
			<point x="420" y="836"/>
			<point x="393" y="836" type="curve" smooth="yes"/>
			<point x="309" y="836"/>
			<point x="260" y="880"/>
			<point x="260" y="957" type="curve" smooth="yes"/>
			<point x="260" y="1010" type="line" smooth="yes"/>
			<point x="260" y="1093"/>
			<point x="295" y="1136"/>
		</contour>
		<contour>
			<point x="-31" y="1142" type="line"/>
			<point x="764" y="1142" type="line"/>
			<point x="764" y="1289" type="line"/>
			<point x="-41" y="1289" type="line"/>
		</contour>
		<contour>
			<point x="694" y="1219" type="line"/>
			<point x="694" y="855" type="line"/>
			<point x="777" y="855" type="line"/>
			<point x="777" y="1219" type="line"/>
		</contour>
		<contour>
			<point x="694" y="1142" type="line"/>
			<point x="950" y="1142" type="line"/>
			<point x="940" y="1289" type="line"/>
			<point x="694" y="1289" type="line"/>
		</contour>
	</outline>
</glyph>
<glyph name="Nga.bn" format="2">
	<advance width="978"/>
	<unicode hex="0999"/>
	<anchor x="665" y="189" name="bottom1"/>
	<anchor x="445" y="1451" name="top"/>
	<anchor x="290" y="1713" name="top2"/>
	<outline>
		<contour>
			<point x="522" y="10" type="curve" smooth="yes"/>
			<point x="761" y="10"/>
			<point x="888" y="133"/>
			<point x="888" y="363" type="curve" smooth="yes"/>
			<point x="888" y="456"/>
			<point x="884" y="517"/>
			<point x="876" y="591" type="curve"/>
			<point x="761" y="573" type="line" smooth="yes"/>
			<point x="714" y="566"/>
			<point x="671" y="560"/>
			<point x="640" y="560" type="curve" smooth="yes"/>
			<point x="573" y="560"/>
			<point x="540" y="592"/>
			<point x="540" y="660" type="curve" smooth="yes"/>
			<point x="540" y="783" type="line"/>
			<point x="537" y="818" type="line"/>
			<point x="537" y="1048" type="line" smooth="yes"/>
			<point x="537" y="1119"/>
			<point x="562" y="1154"/>
			<point x="612" y="1154" type="curve" smooth="yes"/>
			<point x="658" y="1154"/>
			<point x="681" y="1120"/>
			<point x="681" y="1053" type="curve" smooth="yes"/>
			<point x="681" y="1000" type="line" smooth="yes"/>
			<point x="681" y="905"/>
			<point x="621" y="858"/>
			<point x="500" y="858" type="curve" smooth="yes"/>
			<point x="486" y="858"/>
			<point x="465" y="859"/>
			<point x="465" y="861" type="curve"/>
			<point x="465" y="713" type="line"/>
			<point x="485" y="711"/>
			<point x="495" y="711"/>
			<point x="496" y="711" type="curve" smooth="yes"/>
			<point x="727" y="711"/>
			<point x="839" y="813"/>
			<point x="839" y="998" type="curve" smooth="yes"/>
			<point x="839" y="1060" type="line" smooth="yes"/>
			<point x="839" y="1216"/>
			<point x="761" y="1307"/>
			<point x="610" y="1307" type="curve" smooth="yes"/>
			<point x="454" y="1307"/>
			<point x="377" y="1215"/>
			<point x="377" y="1028" type="curve" smooth="yes"/>
			<point x="377" y="666" type="line" smooth="yes"/>
			<point x="377" y="488"/>
			<point x="457" y="401"/>
			<point x="620" y="401" type="curve" smooth="yes"/>
			<point x="677" y="401"/>
			<point x="729" y="411"/>
			<point x="793" y="429" type="curve" smooth="yes"/>
			<point x="838" y="442" type="line"/>
			<point x="723" y="515" type="line"/>
			<point x="723" y="465"/>
			<point x="723" y="414"/>
			<point x="723" y="366" type="curve" smooth="yes"/>
			<point x="723" y="235"/>
			<point x="654" y="167"/>
			<point x="519" y="167" type="curve" smooth="yes"/>
			<point x="361" y="167"/>
			<point x="268" y="263"/>
			<point x="258" y="437" type="curve" smooth="yes"/>
			<point x="247" y="620" type="line"/>
			<point x="85" y="620" type="line"/>
			<point x="97" y="422" type="line" smooth="yes"/>
			<point x="113" y="152"/>
			<point x="259" y="10"/>
		</contour>
		<contour>
			<point x="87" y="1216" type="line"/>
			<point x="87" y="1104" type="line" smooth="yes"/>
			<point x="87" y="843"/>
			<point x="200" y="715"/>
			<point x="428" y="715" type="curve" smooth="yes"/>
			<point x="435" y="715" type="line"/>
			<point x="433" y="862" type="line"/>
			<point x="420" y="862" type="line" smooth="yes"/>
			<point x="299" y="862"/>
			<point x="236" y="942"/>
			<point x="235" y="1104" type="curve" smooth="yes"/>
			<point x="234" y="1216" type="line"/>
		</contour>
	</outline>
</glyph>
<glyph name="Ca.bn" format="2">
	<advance width="796"/>
	<unicode hex="099A"/>
	<anchor x="562" y="189" name="bottom1"/>
	<anchor x="106" y="1451" name="top"/>
	<anchor x="104" y="1713" name="top2"/>
	<outline>
		<contour>
			<point x="415" y="10" type="curve" smooth="yes"/>
			<point x="577" y="10"/>
			<point x="674" y="105"/>
			<point x="702" y="269" type="curve" smooth="yes"/>
			<point x="713" y="329"/>
			<point x="733" y="539"/>
			<point x="733" y="603" type="curve" smooth="yes"/>
			<point x="733" y="778"/>
			<point x="653" y="876"/>
			<point x="471" y="926" type="curve" smooth="yes"/>
			<point x="202" y="1000" type="line"/>
			<point x="202" y="841" type="line"/>
			<point x="425" y="774" type="line" smooth="yes"/>
			<point x="522" y="745"/>
			<point x="564" y="693"/>
			<point x="564" y="606" type="curve" smooth="yes"/>
			<point x="564" y="558"/>
			<point x="549" y="382"/>
			<point x="537" y="304" type="curve" smooth="yes"/>
			<point x="524" y="217"/>
			<point x="485" y="166"/>
			<point x="409" y="166" type="curve" smooth="yes"/>
			<point x="322" y="166"/>
			<point x="279" y="214"/>
			<point x="279" y="322" type="curve" smooth="yes"/>
			<point x="279" y="1240" type="line"/>
			<point x="111" y="1240" type="line"/>
			<point x="111" y="326" type="line" smooth="yes"/>
			<point x="111" y="111"/>
			<point x="208" y="10"/>
		</contour>
		<contour>
			<point x="-58" y="1142" type="line"/>
			<point x="853" y="1142" type="line"/>
			<point x="843" y="1289" type="line"/>
			<point x="-68" y="1289" type="line"/>
		</contour>
	</outline>
</glyph>
<glyph name="Ja.bn" format="2">
  <advance width="1314"/>
  <unicode hex="099C"/>
  <note>
Ja.bn
</note>
  <anchor x="1204" y="295" name="bottom1"/>
  <anchor x="632" y="1451" name="top"/>
  <anchor x="475" y="1713" name="top2"/>
  <outline>
    <contour>
      <point x="515" y="10" type="curve" smooth="yes"/>
      <point x="752" y="10"/>
      <point x="879" y="136"/>
      <point x="879" y="373" type="curve" smooth="yes"/>
      <point x="879" y="522"/>
      <point x="877" y="602"/>
      <point x="873" y="682" type="curve"/>
      <point x="775" y="726" type="line"/>
      <point x="742" y="695" type="line" smooth="yes"/>
      <point x="708" y="663"/>
      <point x="682" y="647"/>
      <point x="648" y="647" type="curve" smooth="yes"/>
      <point x="602" y="647"/>
      <point x="576" y="678"/>
      <point x="576" y="738" type="curve" smooth="yes"/>
      <point x="576" y="881" type="line" smooth="yes"/>
      <point x="576" y="1014"/>
      <point x="627" y="1106"/>
      <point x="757" y="1136" type="curve"/>
      <point x="722" y="1194" type="line"/>
      <point x="583" y="1177" type="line"/>
      <point x="461" y="1137"/>
      <point x="407" y="1034"/>
      <point x="407" y="898" type="curve" smooth="yes"/>
      <point x="407" y="723" type="line" smooth="yes"/>
      <point x="407" y="581"/>
      <point x="491" y="503"/>
      <point x="622" y="503" type="curve" smooth="yes"/>
      <point x="694" y="503"/>
      <point x="745" y="535"/>
      <point x="812" y="584" type="curve" smooth="yes"/>
      <point x="845" y="608" type="line"/>
      <point x="717" y="645" type="line"/>
      <point x="717" y="589"/>
      <point x="717" y="536"/>
      <point x="717" y="392" type="curve" smooth="yes"/>
      <point x="717" y="244"/>
      <point x="636" y="166"/>
      <point x="518" y="166" type="curve" smooth="yes"/>
      <point x="375" y="166"/>
      <point x="288" y="253"/>
      <point x="278" y="425" type="curve" smooth="yes"/>
      <point x="247" y="972" type="line"/>
      <point x="88" y="972" type="line"/>
      <point x="119" y="409" type="line" smooth="yes"/>
      <point x="133" y="148"/>
      <point x="275" y="10"/>
    </contour>
    <contour>
      <point x="1036" y="-10" type="curve"/>
      <point x="1204" y="-10" type="line"/>
      <point x="1204" y="88"/>
      <point x="1204" y="187"/>
      <point x="1204" y="295" type="curve" smooth="yes"/>
      <point x="1204" y="511"/>
      <point x="1204" y="778"/>
      <point x="1204" y="899" type="curve"/>
      <point x="1061" y="904"/>
      <point x="913" y="1008"/>
      <point x="894" y="1174" type="curve"/>
      <point x="730" y="1172" type="line"/>
      <point x="733" y="948"/>
      <point x="918" y="790"/>
      <point x="1106" y="777" type="curve"/>
      <point x="1051" y="856" type="line"/>
      <point x="1036" y="713"/>
      <point x="1036" y="494"/>
      <point x="1036" y="295" type="curve" smooth="yes"/>
      <point x="1036" y="198"/>
      <point x="1036" y="82"/>
    </contour>
    <contour>
      <point x="-37" y="1142" type="line"/>
      <point x="1383" y="1142" type="line"/>
      <point x="1373" y="1289" type="line"/>
      <point x="-47" y="1289" type="line"/>
    </contour>
  </outline>
</glyph>
<glyph name="Jha.bn" format="2">
  <advance width="1177"/>
  <unicode hex="099D"/>
  <anchor x="691" y="-1" name="bottom1"/>
  <anchor x="508" y="1451" name="top"/>
  <anchor x="351" y="1713" name="top2"/>
  <outline>
    <contour>
      <point x="546" y="-1" type="line"/>
      <point x="691" y="-1" type="line"/>
      <point x="691" y="1195" type="line"/>
      <point x="529" y="1195" type="line"/>
      <point x="529" y="1011" type="line"/>
      <point x="524" y="964" type="line"/>
      <point x="524" y="312" type="line"/>
      <point x="532" y="129" type="line"/>
      <point x="543" y="188" type="line"/>
      <point x="204" y="489" type="line"/>
      <point x="256" y="370" type="line"/>
      <point x="256" y="756" type="line"/>
      <point x="210" y="651" type="line"/>
      <point x="313" y="760"/>
      <point x="461" y="856"/>
      <point x="615" y="920" type="curve"/>
      <point x="560" y="1074" type="line"/>
      <point x="381" y="994"/>
      <point x="198" y="871"/>
      <point x="89" y="766" type="curve"/>
      <point x="89" y="385" type="line"/>
    </contour>
    <contour>
      <point x="-26" y="1142" type="line"/>
      <point x="691" y="1142" type="line"/>
      <point x="691" y="1289" type="line"/>
      <point x="-36" y="1289" type="line"/>
    </contour>
    <contour>
      <point x="914" y="109" type="line"/>
      <point x="1059" y="109" type="line"/>
      <point x="1059" y="1289" type="line"/>
      <point x="892" y="1289" type="line"/>
      <point x="892" y="421" type="line"/>
      <point x="900" y="238" type="line"/>
      <point x="911" y="298" type="line"/>
      <point x="628" y="558" type="line"/>
      <point x="586" y="397" type="line"/>
    </contour>
    <contour>
      <point x="976" y="1219" type="line"/>
      <point x="976" y="855" type="line"/>
      <point x="1059" y="855" type="line"/>
      <point x="1059" y="1219" type="line"/>
    </contour>
    <contour>
      <point x="976" y="1142" type="line"/>
      <point x="1232" y="1142" type="line"/>
      <point x="1222" y="1289" type="line"/>
      <point x="976" y="1289" type="line"/>
    </contour>
  </outline>
</glyph>
<glyph name="Nya.bn" format="2">
	<advance width="1365"/>
	<unicode hex="099E"/>
	<anchor x="856" y="-1" name="bottom1"/>
	<anchor x="690" y="1451" name="top"/>
	<anchor x="596" y="1713" name="top2"/>
	<outline>
		<contour>
			<point x="1060" y="216" type="curve" smooth="yes"/>
			<point x="1204" y="216"/>
			<point x="1282" y="301"/>
			<point x="1282" y="460" type="curve" smooth="yes"/>
			<point x="1282" y="490" type="line" smooth="yes"/>
			<point x="1282" y="610"/>
			<point x="1229" y="688"/>
			<point x="1126" y="705" type="curve"/>
			<point x="1126" y="715" type="line"/>
			<point x="1230" y="734"/>
			<point x="1282" y="809"/>
			<point x="1282" y="931" type="curve" smooth="yes"/>
			<point x="1282" y="961" type="line" smooth="yes"/>
			<point x="1282" y="1118"/>
			<point x="1204" y="1204"/>
			<point x="1058" y="1204" type="curve" smooth="yes"/>
			<point x="944" y="1204"/>
			<point x="875" y="1139"/>
			<point x="861" y="1067" type="curve"/>
			<point x="839" y="1067" type="line"/>
			<point x="827" y="883" type="line"/>
			<point x="854" y="883" type="line"/>
			<point x="866" y="984"/>
			<point x="921" y="1049"/>
			<point x="1002" y="1049" type="curve" smooth="yes"/>
			<point x="1073" y="1049"/>
			<point x="1114" y="1006"/>
			<point x="1114" y="926" type="curve" smooth="yes"/>
			<point x="1114" y="903" type="line" smooth="yes"/>
			<point x="1114" y="828"/>
			<point x="1081" y="790"/>
			<point x="1010" y="786" type="curve" smooth="yes"/>
			<point x="977" y="784" type="line"/>
			<point x="977" y="636" type="line"/>
			<point x="1010" y="634" type="line" smooth="yes"/>
			<point x="1079" y="630"/>
			<point x="1114" y="590"/>
			<point x="1114" y="518" type="curve" smooth="yes"/>
			<point x="1114" y="495" type="line" smooth="yes"/>
			<point x="1114" y="414"/>
			<point x="1074" y="370"/>
			<point x="1002" y="370" type="curve" smooth="yes"/>
			<point x="921" y="370"/>
			<point x="869" y="430"/>
			<point x="854" y="526" type="curve"/>
			<point x="828" y="526" type="line"/>
			<point x="836" y="355" type="line"/>
			<point x="866" y="355" type="line"/>
			<point x="881" y="283"/>
			<point x="947" y="216"/>
		</contour>
		<contour>
			<point x="567" y="519" type="curve"/>
			<point x="579" y="676" type="line"/>
			<point x="563" y="676"/>
			<point x="536" y="677"/>
			<point x="524" y="678" type="curve" smooth="yes"/>
			<point x="477" y="679"/>
			<point x="448" y="702"/>
			<point x="448" y="767" type="curve" smooth="yes"/>
			<point x="448" y="826"/>
			<point x="458" y="942"/>
			<point x="463" y="985" type="curve" smooth="yes"/>
			<point x="475" y="1105"/>
			<point x="513" y="1152"/>
			<point x="583" y="1152" type="curve" smooth="yes"/>
			<point x="666" y="1152"/>
			<point x="688" y="1088"/>
			<point x="688" y="992" type="curve" smooth="yes"/>
			<point x="688" y="283" type="line"/>
			<point x="698" y="115" type="line"/>
			<point x="710" y="-1" type="line"/>
			<point x="856" y="-1" type="line"/>
			<point x="856" y="991" type="line" smooth="yes"/>
			<point x="856" y="1201"/>
			<point x="766" y="1307"/>
			<point x="583" y="1307" type="curve" smooth="yes"/>
			<point x="419" y="1307"/>
			<point x="320" y="1213"/>
			<point x="297" y="1006" type="curve" smooth="yes"/>
			<point x="289" y="929"/>
			<point x="279" y="809"/>
			<point x="279" y="751" type="curve" smooth="yes"/>
			<point x="279" y="593"/>
			<point x="376" y="519"/>
			<point x="514" y="519" type="curve" smooth="yes"/>
			<point x="530" y="519"/>
			<point x="549" y="519"/>
		</contour>
		<contour>
			<point x="697" y="35" type="curve" smooth="yes"/>
			<point x="710" y="-1" type="line"/>
			<point x="706" y="168" type="line"/>
			<point x="685" y="168" type="line"/>
			<point x="663" y="239"/>
			<point x="605" y="276"/>
			<point x="514" y="276" type="curve" smooth="yes"/>
			<point x="413" y="276" type="line" smooth="yes"/>
			<point x="299" y="276"/>
			<point x="244" y="336"/>
			<point x="243" y="455" type="curve" smooth="yes"/>
			<point x="242" y="562" type="line"/>
			<point x="80" y="562" type="line"/>
			<point x="80" y="526"/>
			<point x="80" y="485"/>
			<point x="80" y="450" type="curve" smooth="yes"/>
			<point x="80" y="231"/>
			<point x="185" y="122"/>
			<point x="410" y="122" type="curve" smooth="yes"/>
			<point x="541" y="122" type="line" smooth="yes"/>
			<point x="626" y="122"/>
			<point x="677" y="89"/>
		</contour>
	</outline>
</glyph>
<glyph name="Tta.bn" format="2">
	<advance width="819"/>
	<unicode hex="099F"/>
	<anchor x="544" y="189" name="bottom1"/>
	<anchor x="435.08" y="1520" name="top"/>
	<anchor x="528.08" y="1681" name="top2"/>
	<outline>
		<contour>
			<point x="412" y="10" type="curve" smooth="yes"/>
			<point x="581" y="10"/>
			<point x="687" y="103"/>
			<point x="707" y="286" type="curve" smooth="yes"/>
			<point x="720" y="394"/>
			<point x="739" y="595"/>
			<point x="739" y="652" type="curve" smooth="yes"/>
			<point x="739" y="814"/>
			<point x="653" y="897"/>
			<point x="497" y="897" type="curve" smooth="yes"/>
			<point x="470" y="897"/>
			<point x="449" y="897"/>
			<point x="415" y="897" type="curve"/>
			<point x="402" y="741" type="line"/>
			<point x="438" y="741"/>
			<point x="453" y="741"/>
			<point x="468" y="741" type="curve" smooth="yes"/>
			<point x="536" y="741"/>
			<point x="570" y="698"/>
			<point x="570" y="627" type="curve" smooth="yes"/>
			<point x="570" y="566"/>
			<point x="550" y="384"/>
			<point x="542" y="321" type="curve" smooth="yes"/>
			<point x="530" y="215"/>
			<point x="484" y="168"/>
			<point x="409" y="168" type="curve" smooth="yes"/>
			<point x="324" y="168"/>
			<point x="279" y="217"/>
			<point x="279" y="328" type="curve" smooth="yes"/>
			<point x="279" y="1240" type="line"/>
			<point x="111" y="1240" type="line"/>
			<point x="111" y="330" type="line" smooth="yes"/>
			<point x="111" y="114"/>
			<point x="207" y="10"/>
		</contour>
		<contour>
			<point x="-58" y="1142" type="line"/>
			<point x="853" y="1142" type="line"/>
			<point x="843" y="1289" type="line"/>
			<point x="-68" y="1289" type="line"/>
		</contour>
		<contour>
			<point x="752" y="1321" type="line"/>
			<point x="757" y="1344"/>
			<point x="759" y="1365"/>
			<point x="759" y="1385" type="curve" smooth="yes"/>
			<point x="759" y="1556"/>
			<point x="652" y="1615"/>
			<point x="458" y="1615" type="curve" smooth="yes"/>
			<point x="355" y="1615" type="line" smooth="yes"/>
			<point x="262" y="1615"/>
			<point x="216" y="1649"/>
			<point x="213" y="1722" type="curve" smooth="yes"/>
			<point x="212" y="1749" type="line"/>
			<point x="64" y="1749" type="line"/>
			<point x="64" y="1713" type="line" smooth="yes"/>
			<point x="64" y="1548"/>
			<point x="164" y="1464"/>
			<point x="358" y="1464" type="curve" smooth="yes"/>
			<point x="464" y="1464" type="line" smooth="yes"/>
			<point x="560" y="1464"/>
			<point x="601" y="1435"/>
			<point x="601" y="1360" type="curve" smooth="yes"/>
			<point x="601" y="1321"/>
			<point x="594" y="1286"/>
			<point x="582" y="1258" type="curve"/>
			<point x="629" y="1271" type="line"/>
		</contour>
	</outline>
</glyph>
<glyph name="Ttha.bn" format="2">
	<advance width="829"/>
	<unicode hex="09A0"/>
	<anchor x="543" y="189" name="bottom1"/>
	<anchor x="487" y="1451" name="top"/>
	<anchor x="565" y="1535" name="top2"/>
	<outline>
		<contour>
			<point x="413" y="12" type="curve" smooth="yes"/>
			<point x="622" y="12"/>
			<point x="739" y="138"/>
			<point x="739" y="363" type="curve" smooth="yes"/>
			<point x="739" y="483" type="line" smooth="yes"/>
			<point x="739" y="749"/>
			<point x="648" y="902"/>
			<point x="538" y="1076" type="curve" smooth="yes"/>
			<point x="442" y="1228" type="line"/>
			<point x="320" y="1164" type="line"/>
			<point x="413" y="1001" type="line" smooth="yes"/>
			<point x="507" y="836"/>
			<point x="571" y="685"/>
			<point x="571" y="487" type="curve" smooth="yes"/>
			<point x="571" y="360" type="line" smooth="yes"/>
			<point x="571" y="234"/>
			<point x="518" y="171"/>
			<point x="411" y="171" type="curve" smooth="yes"/>
			<point x="301" y="171"/>
			<point x="247" y="234"/>
			<point x="247" y="360" type="curve" smooth="yes"/>
			<point x="247" y="401"/>
			<point x="247" y="484"/>
			<point x="247" y="558" type="curve"/>
			<point x="204" y="453" type="line"/>
			<point x="350" y="510"/>
			<point x="442" y="655"/>
			<point x="442" y="889" type="curve" smooth="yes"/>
			<point x="442" y="1204" type="line"/>
			<point x="302" y="1201" type="line"/>
			<point x="302" y="967" type="line" smooth="yes"/>
			<point x="302" y="719"/>
			<point x="211" y="603"/>
			<point x="84" y="535" type="curve"/>
			<point x="84" y="369"/>
			<point x="84" y="451"/>
			<point x="84" y="353" type="curve" smooth="yes"/>
			<point x="84" y="134"/>
			<point x="202" y="12"/>
		</contour>
		<contour>
			<point x="-55" y="1142" type="line"/>
			<point x="870" y="1142" type="line"/>
			<point x="860" y="1289" type="line"/>
			<point x="-65" y="1289" type="line"/>
		</contour>
		<contour>
			<point x="265" y="1286" type="curve" smooth="yes"/>
			<point x="290" y="1239" type="line"/>
			<point x="435" y="1263" type="line"/>
			<point x="415" y="1299" type="line" smooth="yes"/>
			<point x="343" y="1444"/>
			<point x="321" y="1519"/>
			<point x="321" y="1624" type="curve" smooth="yes"/>
			<point x="321" y="1692"/>
			<point x="335" y="1759"/>
			<point x="366" y="1829" type="curve"/>
			<point x="203" y="1829" type="line"/>
			<point x="174" y="1777"/>
			<point x="160" y="1717"/>
			<point x="160" y="1645" type="curve" smooth="yes"/>
			<point x="160" y="1530"/>
			<point x="186" y="1448"/>
		</contour>
	</outline>
</glyph>
<glyph name="Dda.bn" format="2">
	<advance width="1020"/>
	<unicode hex="09A1"/>
	<anchor x="693" y="189" name="bottom1"/>
	<anchor x="417" y="1451" name="top"/>
	<anchor x="286" y="1713" name="top2"/>
	<note>
		Dda.bn
	</note>
	<outline>
		<contour>
			<point x="281" y="446" type="curve" smooth="yes"/>
			<point x="251" y="972" type="line"/>
			<point x="89" y="972" type="line"/>
			<point x="119" y="431" type="line" smooth="yes"/>
			<point x="134" y="159"/>
			<point x="279" y="10"/>
			<point x="535" y="10" type="curve" smooth="yes"/>
			<point x="795" y="10"/>
			<point x="934" y="157"/>
			<point x="934" y="430" type="curve" smooth="yes"/>
			<point x="934" y="594"/>
			<point x="932" y="728"/>
			<point x="919" y="929" type="curve"/>
			<point x="784" y="937" type="line"/>
			<point x="768" y="831" type="line" smooth="yes"/>
			<point x="752" y="726"/>
			<point x="724" y="682"/>
			<point x="667" y="682" type="curve" smooth="yes"/>
			<point x="615" y="682"/>
			<point x="590" y="716"/>
			<point x="590" y="798" type="curve" smooth="yes"/>
			<point x="590" y="1244" type="line"/>
			<point x="422" y="1244" type="line"/>
			<point x="422" y="771" type="line" smooth="yes"/>
			<point x="422" y="610"/>
			<point x="493" y="527"/>
			<point x="630" y="527" type="curve" smooth="yes"/>
			<point x="740" y="527"/>
			<point x="804" y="602"/>
			<point x="829" y="714" type="curve" smooth="yes"/>
			<point x="857" y="840" type="line"/>
			<point x="765" y="717" type="line"/>
			<point x="766" y="631"/>
			<point x="766" y="529"/>
			<point x="766" y="430" type="curve" smooth="yes"/>
			<point x="766" y="257"/>
			<point x="686" y="167"/>
			<point x="532" y="167" type="curve" smooth="yes"/>
			<point x="377" y="167"/>
			<point x="291" y="266"/>
		</contour>
		<contour>
			<point x="-37" y="1142" type="line"/>
			<point x="1088" y="1142" type="line"/>
			<point x="1078" y="1289" type="line"/>
			<point x="-47" y="1289" type="line"/>
		</contour>
	</outline>
</glyph>
<glyph name="Nna.bn" format="2">
  <advance width="843"/>
  <unicode hex="09A3"/>
  <anchor x="725" y="200" name="bottom1"/>
  <anchor x="543" y="1451" name="top"/>
  <anchor x="416" y="1713" name="top2"/>
  <outline>
    <contour>
      <point x="370" y="454" type="curve" smooth="yes"/>
      <point x="385" y="454"/>
      <point x="401" y="454"/>
      <point x="417" y="454" type="curve"/>
      <point x="430" y="610" type="line"/>
      <point x="418" y="610"/>
      <point x="406" y="610"/>
      <point x="394" y="610" type="curve" smooth="yes"/>
      <point x="299" y="610"/>
      <point x="256" y="668"/>
      <point x="256" y="794" type="curve" smooth="yes"/>
      <point x="256" y="955" type="line" smooth="yes"/>
      <point x="256" y="1080"/>
      <point x="304" y="1141"/>
      <point x="400" y="1141" type="curve" smooth="yes"/>
      <point x="481" y="1141"/>
      <point x="532" y="1084"/>
      <point x="557" y="966" type="curve"/>
      <point x="595" y="1139" type="line"/>
      <point x="564" y="1139" type="line"/>
      <point x="543" y="1250"/>
      <point x="468" y="1304"/>
      <point x="350" y="1304" type="curve" smooth="yes"/>
      <point x="174" y="1304"/>
      <point x="85" y="1189"/>
      <point x="85" y="955" type="curve" smooth="yes"/>
      <point x="85" y="794" type="line" smooth="yes"/>
      <point x="85" y="567"/>
      <point x="181" y="454"/>
    </contour>
    <contour>
      <point x="557" y="0" type="line"/>
      <point x="725" y="0" type="line"/>
      <point x="725" y="1289" type="line"/>
      <point x="574" y="1289" type="line"/>
      <point x="574" y="1049" type="line"/>
      <point x="557" y="1040" type="line"/>
    </contour>
    <contour>
      <point x="642" y="1219" type="line"/>
      <point x="642" y="855" type="line"/>
      <point x="725" y="855" type="line"/>
      <point x="725" y="1219" type="line"/>
    </contour>
    <contour>
      <point x="642" y="1142" type="line"/>
      <point x="898" y="1142" type="line"/>
      <point x="888" y="1289" type="line"/>
      <point x="642" y="1289" type="line"/>
    </contour>
  </outline>
</glyph>
<glyph name="Ta.bn" format="2">
	<advance width="1026"/>
	<unicode hex="09A4"/>
	<anchor x="693" y="191" name="bottom1"/>
	<anchor x="531" y="1451" name="top"/>
	<anchor x="422" y="1713" name="top2"/>
	<outline>
		<contour>
			<point x="539" y="10" type="curve" smooth="yes"/>
			<point x="791" y="10"/>
			<point x="934" y="150"/>
			<point x="934" y="437" type="curve" smooth="yes"/>
			<point x="934" y="776" type="line" smooth="yes"/>
			<point x="934" y="959"/>
			<point x="845" y="1056"/>
			<point x="672" y="1056" type="curve" smooth="yes"/>
			<point x="514" y="1056"/>
			<point x="424" y="963"/>
			<point x="424" y="787" type="curve" smooth="yes"/>
			<point x="424" y="700"/>
			<point x="424" y="613"/>
			<point x="424" y="526" type="curve"/>
			<point x="592" y="526" type="line"/>
			<point x="592" y="614"/>
			<point x="592" y="701"/>
			<point x="592" y="788" type="curve" smooth="yes"/>
			<point x="592" y="864"/>
			<point x="620" y="902"/>
			<point x="678" y="902" type="curve" smooth="yes"/>
			<point x="737" y="902"/>
			<point x="766" y="863"/>
			<point x="766" y="785" type="curve" smooth="yes"/>
			<point x="766" y="440" type="line" smooth="yes"/>
			<point x="766" y="252"/>
			<point x="684" y="170"/>
			<point x="539" y="170" type="curve" smooth="yes"/>
			<point x="381" y="170"/>
			<point x="292" y="267"/>
			<point x="282" y="445" type="curve" smooth="yes"/>
			<point x="252" y="972" type="line"/>
			<point x="90" y="972" type="line"/>
			<point x="119" y="431" type="line" smooth="yes"/>
			<point x="133" y="164"/>
			<point x="278" y="10"/>
		</contour>
		<contour>
			<point x="-37" y="1142" type="line"/>
			<point x="1088" y="1142" type="line"/>
			<point x="1078" y="1289" type="line"/>
			<point x="-47" y="1289" type="line"/>
		</contour>
	</outline>
</glyph>
<glyph name="Tha.bn" format="2">
	<advance width="954"/>
	<unicode hex="09A5"/>
	<anchor x="835" y="-1" name="bottom1"/>
	<anchor x="654" y="1451" name="top"/>
	<anchor x="527" y="1713" name="top2"/>
	<outline>
		<contour>
			<point x="688" y="-1" type="line"/>
			<point x="836" y="-1" type="line"/>
			<point x="836" y="1289" type="line"/>
			<point x="668" y="1289" type="line"/>
			<point x="668" y="312" type="line"/>
			<point x="676" y="128" type="line"/>
			<point x="694" y="166" type="line"/>
			<point x="278" y="464" type="line"/>
			<point x="305" y="401" type="line"/>
			<point x="305" y="648" type="line"/>
			<point x="185" y="548" type="line"/>
			<point x="295" y="570" type="line" smooth="yes"/>
			<point x="453" y="602"/>
			<point x="537" y="671"/>
			<point x="537" y="866" type="curve" smooth="yes"/>
			<point x="537" y="1048" type="line" smooth="yes"/>
			<point x="537" y="1221"/>
			<point x="448" y="1308"/>
			<point x="293" y="1308" type="curve" smooth="yes"/>
			<point x="142" y="1308"/>
			<point x="64" y="1221"/>
			<point x="64" y="1048" type="curve" smooth="yes"/>
			<point x="64" y="973"/>
			<point x="64" y="911"/>
			<point x="64" y="845" type="curve"/>
			<point x="229" y="845" type="line"/>
			<point x="229" y="910"/>
			<point x="229" y="976"/>
			<point x="229" y="1052" type="curve" smooth="yes"/>
			<point x="229" y="1120"/>
			<point x="253" y="1154"/>
			<point x="300" y="1154" type="curve" smooth="yes"/>
			<point x="347" y="1154"/>
			<point x="371" y="1120"/>
			<point x="371" y="1052" type="curve" smooth="yes"/>
			<point x="371" y="874" type="line" smooth="yes"/>
			<point x="371" y="771"/>
			<point x="329" y="733"/>
			<point x="230" y="714" type="curve" smooth="yes"/>
			<point x="127" y="694" type="line"/>
			<point x="127" y="381" type="line"/>
		</contour>
		<contour>
			<point x="753" y="1219" type="line"/>
			<point x="753" y="855" type="line"/>
			<point x="836" y="855" type="line"/>
			<point x="836" y="1219" type="line"/>
		</contour>
		<contour>
			<point x="753" y="1142" type="line"/>
			<point x="1009" y="1142" type="line"/>
			<point x="999" y="1289" type="line"/>
			<point x="753" y="1289" type="line"/>
		</contour>
	</outline>
</glyph>
<glyph name="Da.bn" format="2">
	<advance width="881"/>
	<unicode hex="09A6"/>
	<anchor x="762" y="0" name="bottom1"/>
	<anchor x="112" y="1451" name="top"/>
	<anchor x="225" y="1713" name="top2"/>
	<note>
		Da.bn
	</note>
	<outline>
		<contour>
			<point x="-70" y="1142" type="line"/>
			<point x="919" y="1142" type="line"/>
			<point x="909" y="1289" type="line"/>
			<point x="-80" y="1289" type="line"/>
		</contour>
		<contour>
			<point x="594" y="-35" type="line"/>
			<point x="762" y="-35" type="line"/>
			<point x="762" y="918" type="line"/>
			<point x="579" y="918" type="line"/>
			<point x="429" y="763"/>
			<point x="281" y="559"/>
			<point x="195" y="388" type="curve"/>
			<point x="269" y="330" type="line"/>
			<point x="284" y="713" type="line"/>
			<point x="284" y="1254" type="line"/>
			<point x="116" y="1254" type="line"/>
			<point x="116" y="259" type="line"/>
			<point x="277" y="259" type="line"/>
			<point x="376" y="433"/>
			<point x="537" y="648"/>
			<point x="693" y="816" type="curve"/>
			<point x="613" y="876" type="line"/>
			<point x="594" y="566" type="line"/>
		</contour>
	</outline>
</glyph>
<glyph name="Na.bn" format="2">
  <advance width="845"/>
  <unicode hex="09A8"/>
  <anchor x="728" y="200" name="bottom1"/>
  <anchor x="545" y="1451" name="top"/>
  <anchor x="418" y="1713" name="top2"/>
  <outline>
    <contour>
      <point x="559" y="0" type="line"/>
      <point x="727" y="0" type="line"/>
      <point x="727" y="1218" type="line"/>
      <point x="559" y="1218" type="line"/>
      <point x="559" y="812" type="line"/>
      <point x="566" y="619" type="line"/>
      <point x="559" y="510" type="line"/>
    </contour>
    <contour>
      <point x="-15" y="1142" type="line"/>
      <point x="719" y="1142" type="line"/>
      <point x="719" y="1289" type="line"/>
      <point x="-25" y="1289" type="line"/>
    </contour>
    <contour>
      <point x="80" y="339" type="curve"/>
      <point x="246" y="339" type="line"/>
      <point x="246" y="420"/>
      <point x="246" y="499"/>
      <point x="246" y="580" type="curve" smooth="yes"/>
      <point x="246" y="680"/>
      <point x="284" y="732"/>
      <point x="358" y="732" type="curve" smooth="yes"/>
      <point x="460" y="732"/>
      <point x="513" y="604"/>
      <point x="560" y="443" type="curve"/>
      <point x="577" y="700" type="line"/>
      <point x="553" y="700" type="line"/>
      <point x="521" y="813"/>
      <point x="463" y="897"/>
      <point x="323" y="897" type="curve" smooth="yes"/>
      <point x="168" y="897"/>
      <point x="80" y="791"/>
      <point x="80" y="598" type="curve" smooth="yes"/>
      <point x="80" y="511"/>
      <point x="80" y="426"/>
    </contour>
    <contour>
      <point x="644" y="1219" type="line"/>
      <point x="644" y="855" type="line"/>
      <point x="727" y="855" type="line"/>
      <point x="727" y="1219" type="line"/>
    </contour>
    <contour>
      <point x="644" y="1142" type="line"/>
      <point x="900" y="1142" type="line"/>
      <point x="890" y="1289" type="line"/>
      <point x="644" y="1289" type="line"/>
    </contour>
  </outline>
</glyph>
<glyph name="Pha.bn" format="2">
  <advance width="1198"/>
  <unicode hex="09AB"/>
  <anchor x="754" y="-1" name="bottom1"/>
  <anchor x="572" y="1451" name="top"/>
  <anchor x="415" y="1713" name="top2"/>
  <outline>
    <contour>
      <point x="-75" y="1142" type="line"/>
      <point x="1236" y="1142" type="line"/>
      <point x="1226" y="1289" type="line"/>
      <point x="-85" y="1289" type="line"/>
    </contour>
    <contour>
      <point x="612" y="-1" type="line"/>
      <point x="754" y="-1" type="line"/>
      <point x="754" y="999" type="line"/>
      <point x="588" y="999" type="line"/>
      <point x="588" y="312" type="line"/>
      <point x="596" y="128" type="line"/>
      <point x="614" y="178" type="line"/>
      <point x="255" y="451" type="line"/>
      <point x="272" y="373" type="line"/>
      <point x="272" y="626" type="line"/>
      <point x="248" y="568" type="line"/>
      <point x="451" y="745" type="line"/>
      <point x="451" y="883" type="line"/>
      <point x="328" y="1022"/>
      <point x="228" y="1127"/>
      <point x="126" y="1233" type="curve"/>
      <point x="54" y="1229" type="line"/>
      <point x="54" y="1047" type="line"/>
      <point x="287" y="834" type="line"/>
      <point x="287" y="824" type="line"/>
      <point x="105" y="659" type="line"/>
      <point x="105" y="365" type="line"/>
    </contour>
    <contour>
      <point x="863" y="443" type="curve"/>
      <point x="868" y="287" type="line"/>
      <point x="874" y="287"/>
      <point x="877" y="287"/>
      <point x="883" y="287" type="curve" smooth="yes"/>
      <point x="1049" y="287"/>
      <point x="1120" y="367"/>
      <point x="1120" y="555" type="curve" smooth="yes"/>
      <point x="1120" y="706" type="line" smooth="yes"/>
      <point x="1120" y="894"/>
      <point x="1008" y="999"/>
      <point x="805" y="999" type="curve" smooth="yes"/>
      <point x="682" y="999" type="line"/>
      <point x="682" y="847" type="line"/>
      <point x="812" y="847" type="line" smooth="yes"/>
      <point x="908" y="847"/>
      <point x="954" y="800"/>
      <point x="954" y="702" type="curve" smooth="yes"/>
      <point x="954" y="551" type="line" smooth="yes"/>
      <point x="954" y="476"/>
      <point x="930" y="443"/>
      <point x="875" y="443" type="curve" smooth="yes"/>
      <point x="870" y="443"/>
      <point x="867" y="443"/>
    </contour>
  </outline>
</glyph>
<glyph name="Ba.bn" format="2">
	<advance width="809"/>
	<unicode hex="09AC"/>
	<anchor x="691" y="-1" name="bottom1"/>
	<anchor x="509" y="1451" name="top"/>
	<anchor x="382" y="1713" name="top2"/>
	<note>
		Ba.bn
	</note>
	<outline>
		<contour>
			<point x="-26" y="1142" type="line"/>
			<point x="691" y="1142" type="line"/>
			<point x="691" y="1289" type="line"/>
			<point x="-36" y="1289" type="line"/>
		</contour>
		<contour>
			<point x="546" y="-1" type="line"/>
			<point x="691" y="-1" type="line"/>
			<point x="691" y="1195" type="line"/>
			<point x="529" y="1195" type="line"/>
			<point x="529" y="1011" type="line"/>
			<point x="524" y="964" type="line"/>
			<point x="524" y="312" type="line"/>
			<point x="532" y="129" type="line"/>
			<point x="543" y="190" type="line"/>
			<point x="204" y="490" type="line"/>
			<point x="256" y="370" type="line"/>
			<point x="256" y="756" type="line"/>
			<point x="210" y="649" type="line"/>
			<point x="313" y="758"/>
			<point x="461" y="854"/>
			<point x="615" y="918" type="curve"/>
			<point x="560" y="1074" type="line"/>
			<point x="381" y="994"/>
			<point x="198" y="871"/>
			<point x="89" y="766" type="curve"/>
			<point x="89" y="385" type="line"/>
		</contour>
		<contour>
			<point x="608" y="1219" type="line"/>
			<point x="608" y="855" type="line"/>
			<point x="691" y="855" type="line"/>
			<point x="691" y="1219" type="line"/>
		</contour>
		<contour>
			<point x="608" y="1142" type="line"/>
			<point x="864" y="1142" type="line"/>
			<point x="854" y="1289" type="line"/>
			<point x="608" y="1289" type="line"/>
		</contour>
	</outline>
</glyph>
<glyph name="Ma.bn" format="2">
	<advance width="869"/>
	<unicode hex="09AE"/>
	<anchor x="753" y="200" name="bottom1"/>
	<anchor x="569" y="1451" name="top"/>
	<anchor x="442" y="1713" name="top2"/>
	<outline>
		<contour>
			<point x="377" y="131" type="curve" smooth="yes"/>
			<point x="392" y="131"/>
			<point x="402" y="131"/>
			<point x="423" y="131" type="curve"/>
			<point x="436" y="287" type="line"/>
			<point x="418" y="287"/>
			<point x="409" y="287"/>
			<point x="391" y="287" type="curve" smooth="yes"/>
			<point x="304" y="287"/>
			<point x="259" y="332"/>
			<point x="259" y="422" type="curve" smooth="yes"/>
			<point x="259" y="457" type="line" smooth="yes"/>
			<point x="259" y="557"/>
			<point x="308" y="606"/>
			<point x="403" y="606" type="curve" smooth="yes"/>
			<point x="500" y="606"/>
			<point x="559" y="546"/>
			<point x="583" y="423" type="curve"/>
			<point x="616" y="629" type="line"/>
			<point x="577" y="629" type="line"/>
			<point x="556" y="716"/>
			<point x="483" y="765"/>
			<point x="366" y="765" type="curve" smooth="yes"/>
			<point x="163" y="765"/>
			<point x="90" y="638"/>
			<point x="90" y="468" type="curve" smooth="yes"/>
			<point x="90" y="417" type="line" smooth="yes"/>
			<point x="90" y="234"/>
			<point x="186" y="131"/>
		</contour>
		<contour>
			<point x="239" y="754" type="curve"/>
			<point x="239" y="721" type="line"/>
			<point x="332" y="738" type="line"/>
			<point x="304" y="782"/>
			<point x="285" y="865"/>
			<point x="285" y="980" type="curve" smooth="yes"/>
			<point x="285" y="1205" type="line"/>
			<point x="106" y="1205" type="line"/>
			<point x="106" y="964" type="line" smooth="yes"/>
			<point x="106" y="847"/>
			<point x="144" y="780"/>
		</contour>
		<contour>
			<point x="583" y="0" type="line"/>
			<point x="751" y="0" type="line"/>
			<point x="751" y="1219" type="line"/>
			<point x="583" y="1219" type="line"/>
			<point x="583" y="741" type="line"/>
			<point x="590" y="549" type="line"/>
			<point x="583" y="514" type="line"/>
		</contour>
		<contour>
			<point x="-56" y="1142" type="line"/>
			<point x="751" y="1142" type="line"/>
			<point x="751" y="1289" type="line"/>
			<point x="-66" y="1289" type="line"/>
		</contour>
		<contour>
			<point x="668" y="1219" type="line"/>
			<point x="668" y="855" type="line"/>
			<point x="751" y="855" type="line"/>
			<point x="751" y="1219" type="line"/>
		</contour>
		<contour>
			<point x="668" y="1142" type="line"/>
			<point x="924" y="1142" type="line"/>
			<point x="914" y="1289" type="line"/>
			<point x="668" y="1289" type="line"/>
		</contour>
	</outline>
</glyph>
<glyph name="Ya.bn" format="2">
  <advance width="874"/>
  <unicode hex="09AF"/>
  <note>
Ya.bn
</note>
  <anchor x="756" y="-1" name="bottom1"/>
  <anchor x="574" y="1451" name="top"/>
  <anchor x="447" y="1713" name="top2"/>
  <outline>
    <contour>
      <point x="612" y="-1" type="line"/>
      <point x="756" y="-1" type="line"/>
      <point x="756" y="1233" type="line"/>
      <point x="588" y="1233" type="line"/>
      <point x="588" y="312" type="line"/>
      <point x="596" y="128" type="line"/>
      <point x="613" y="180" type="line"/>
      <point x="254" y="451" type="line"/>
      <point x="272" y="373" type="line"/>
      <point x="272" y="626" type="line"/>
      <point x="246" y="568" type="line"/>
      <point x="451" y="745" type="line"/>
      <point x="451" y="883" type="line"/>
      <point x="363" y="981"/>
      <point x="226" y="1133"/>
      <point x="124" y="1241" type="curve"/>
      <point x="54" y="1237" type="line"/>
      <point x="54" y="1047" type="line"/>
      <point x="287" y="834" type="line"/>
      <point x="287" y="824" type="line"/>
      <point x="105" y="659" type="line"/>
      <point x="105" y="365" type="line"/>
    </contour>
    <contour>
      <point x="-75" y="1142" type="line"/>
      <point x="750" y="1142" type="line"/>
      <point x="750" y="1289" type="line"/>
      <point x="-85" y="1289" type="line"/>
    </contour>
    <contour>
      <point x="673" y="1219" type="line"/>
      <point x="673" y="855" type="line"/>
      <point x="756" y="855" type="line"/>
      <point x="756" y="1219" type="line"/>
    </contour>
    <contour>
      <point x="673" y="1142" type="line"/>
      <point x="929" y="1142" type="line"/>
      <point x="919" y="1289" type="line"/>
      <point x="673" y="1289" type="line"/>
    </contour>
  </outline>
</glyph>
<glyph name="Sa.bn" format="2">
  <advance width="887"/>
  <unicode hex="09B8"/>
  <anchor x="769" y="200" name="bottom1"/>
  <anchor x="587" y="1451" name="top"/>
  <anchor x="460" y="1713" name="top2"/>
  <outline>
    <contour>
      <point x="601" y="0" type="line"/>
      <point x="769" y="0" type="line"/>
      <point x="769" y="1209" type="line"/>
      <point x="601" y="1209" type="line"/>
      <point x="601" y="879" type="line"/>
      <point x="607" y="676" type="line"/>
      <point x="601" y="613" type="line"/>
    </contour>
    <contour>
      <point x="-70" y="1142" type="line"/>
      <point x="740" y="1142" type="line"/>
      <point x="740" y="1289" type="line"/>
      <point x="-80" y="1289" type="line"/>
    </contour>
    <contour>
      <point x="626" y="561" type="curve"/>
      <point x="642" y="717" type="line"/>
      <point x="618" y="731"/>
      <point x="594" y="739"/>
      <point x="559" y="739" type="curve" smooth="yes"/>
      <point x="469" y="739"/>
      <point x="397" y="667"/>
      <point x="323" y="576" type="curve" smooth="yes"/>
      <point x="304" y="552"/>
      <point x="285" y="530"/>
      <point x="262" y="505" type="curve"/>
      <point x="312" y="478" type="line"/>
      <point x="353" y="536"/>
      <point x="391" y="631"/>
      <point x="391" y="761" type="curve" smooth="yes"/>
      <point x="391" y="776" type="line" smooth="yes"/>
      <point x="391" y="985"/>
      <point x="309" y="1146"/>
      <point x="181" y="1193" type="curve"/>
      <point x="88" y="1179" type="line"/>
      <point x="88" y="1073" type="line"/>
      <point x="185" y="1015"/>
      <point x="243" y="905"/>
      <point x="243" y="732" type="curve" smooth="yes"/>
      <point x="243" y="714" type="line" smooth="yes"/>
      <point x="243" y="557"/>
      <point x="175" y="476"/>
      <point x="72" y="472" type="curve" smooth="yes"/>
      <point x="44" y="471" type="line"/>
      <point x="44" y="293" type="line"/>
      <point x="78" y="294" type="line" smooth="yes"/>
      <point x="220" y="298"/>
      <point x="301" y="380"/>
      <point x="381" y="457" type="curve" smooth="yes"/>
      <point x="465" y="538"/>
      <point x="513" y="575"/>
      <point x="570" y="575" type="curve" smooth="yes"/>
      <point x="594" y="575"/>
      <point x="609" y="571"/>
    </contour>
    <contour>
      <point x="686" y="1219" type="line"/>
      <point x="686" y="855" type="line"/>
      <point x="769" y="855" type="line"/>
      <point x="769" y="1219" type="line"/>
    </contour>
    <contour>
      <point x="686" y="1142" type="line"/>
      <point x="942" y="1142" type="line"/>
      <point x="932" y="1289" type="line"/>
      <point x="686" y="1289" type="line"/>
    </contour>
  </outline>
</glyph>
<glyph name="Ha.bn" format="2">
	<advance width="776"/>
	<unicode hex="09B9"/>
	<anchor x="534" y="175" name="bottom1"/>
	<anchor x="241" y="1451" name="top"/>
	<anchor x="159" y="1713" name="top2"/>
	<note>
		Ha.bn
	</note>
	<outline>
		<contour>
			<point x="708" y="-151" type="line"/>
			<point x="720" y="24" type="line"/>
			<point x="442" y="189" type="line"/>
			<point x="352" y="244" type="line"/>
			<point x="363" y="299" type="line"/>
			<point x="244" y="280" type="line"/>
			<point x="304" y="258"/>
			<point x="356" y="248"/>
			<point x="403" y="248" type="curve" smooth="yes"/>
			<point x="580" y="248"/>
			<point x="674" y="347"/>
			<point x="674" y="538" type="curve" smooth="yes"/>
			<point x="674" y="756" type="line" smooth="yes"/>
			<point x="674" y="952"/>
			<point x="572" y="1056"/>
			<point x="391" y="1056" type="curve" smooth="yes"/>
			<point x="216" y="1056"/>
			<point x="112" y="953"/>
			<point x="112" y="757" type="curve" smooth="yes"/>
			<point x="112" y="701"/>
			<point x="112" y="629"/>
			<point x="112" y="575" type="curve"/>
			<point x="280" y="575" type="line"/>
			<point x="280" y="629"/>
			<point x="280" y="702"/>
			<point x="280" y="760" type="curve" smooth="yes"/>
			<point x="280" y="847"/>
			<point x="318" y="901"/>
			<point x="393" y="901" type="curve" smooth="yes"/>
			<point x="467" y="901"/>
			<point x="506" y="847"/>
			<point x="506" y="760" type="curve" smooth="yes"/>
			<point x="506" y="539" type="line" smooth="yes"/>
			<point x="506" y="424"/>
			<point x="443" y="364"/>
			<point x="318" y="364" type="curve" smooth="yes"/>
			<point x="263" y="364"/>
			<point x="205" y="372"/>
			<point x="140" y="389" type="curve" smooth="yes"/>
			<point x="101" y="399" type="line"/>
			<point x="88" y="236" type="line"/>
		</contour>
		<contour>
			<point x="-18" y="1142" type="line"/>
			<point x="808" y="1142" type="line"/>
			<point x="798" y="1289" type="line"/>
			<point x="-28" y="1289" type="line"/>
		</contour>
	</outline>
</glyph>
<glyph name="Nukta.bn" format="2">
  <unicode hex="09BC"/>
  <outline>
    <contour>
      <point x="-350" y="-265" type="curve" smooth="yes"/>
      <point x="-283" y="-265"/>
      <point x="-255" y="-223"/>
      <point x="-255" y="-149" type="curve" smooth="yes"/>
      <point x="-255" y="-139" type="line" smooth="yes"/>
      <point x="-255" y="-65"/>
      <point x="-283" y="-23"/>
      <point x="-350" y="-23" type="curve" smooth="yes"/>
      <point x="-416" y="-23"/>
      <point x="-445" y="-65"/>
      <point x="-445" y="-139" type="curve" smooth="yes"/>
      <point x="-445" y="-149" type="line" smooth="yes"/>
      <point x="-445" y="-223"/>
      <point x="-416" y="-265"/>
    </contour>
  </outline>
</glyph>
<glyph name="Avagraha.bn" format="2">
	<advance width="765"/>
	<unicode hex="09BD"/>
	<outline>
		<contour>
			<point x="188" y="1035" type="curve" smooth="yes"/>
			<point x="188" y="943" type="line"/>
			<point x="350" y="943" type="line"/>
			<point x="350" y="1035" type="line" smooth="yes"/>
			<point x="350" y="1202"/>
			<point x="254" y="1289"/>
			<point x="67" y="1289" type="curve" smooth="yes"/>
			<point x="-28" y="1289" type="line"/>
			<point x="-18" y="1142" type="line"/>
			<point x="71" y="1142" type="line" smooth="yes"/>
			<point x="149" y="1142"/>
			<point x="188" y="1105"/>
		</contour>
		<contour>
			<point x="707" y="-121" type="line"/>
			<point x="719" y="55" type="line"/>
			<point x="441" y="220" type="line"/>
			<point x="351" y="275" type="line"/>
			<point x="362" y="330" type="line"/>
			<point x="243" y="311" type="line"/>
			<point x="303" y="289"/>
			<point x="355" y="279"/>
			<point x="402" y="279" type="curve" smooth="yes"/>
			<point x="579" y="279"/>
			<point x="673" y="378"/>
			<point x="673" y="568" type="curve" smooth="yes"/>
			<point x="673" y="758" type="line" smooth="yes"/>
			<point x="673" y="954"/>
			<point x="574" y="1056"/>
			<point x="388" y="1056" type="curve" smooth="yes"/>
			<point x="207" y="1056"/>
			<point x="111" y="955"/>
			<point x="111" y="758" type="curve" smooth="yes"/>
			<point x="111" y="710"/>
			<point x="111" y="659"/>
			<point x="111" y="605" type="curve"/>
			<point x="278" y="605" type="line"/>
			<point x="278" y="659"/>
			<point x="278" y="711"/>
			<point x="278" y="760" type="curve" smooth="yes"/>
			<point x="278" y="857"/>
			<point x="316" y="903"/>
			<point x="392" y="903" type="curve" smooth="yes"/>
			<point x="466" y="903"/>
			<point x="505" y="857"/>
			<point x="505" y="760" type="curve" smooth="yes"/>
			<point x="505" y="569" type="line" smooth="yes"/>
			<point x="505" y="450"/>
			<point x="442" y="388"/>
			<point x="317" y="388" type="curve" smooth="yes"/>
			<point x="262" y="388"/>
			<point x="204" y="394"/>
			<point x="139" y="416" type="curve" smooth="yes"/>
			<point x="100" y="429" type="line"/>
			<point x="87" y="266" type="line"/>
		</contour>
	</outline>
</glyph>
<glyph name="SignAa.bn" format="2">
	<advance width="407"/>
	<unicode hex="09BE"/>
	<anchor x="107" y="1451" name="top"/>
	<anchor x="-20" y="1713" name="top2"/>
	<outline>
		<contour>
			<point x="121" y="0" type="line"/>
			<point x="289" y="0" type="line"/>
			<point x="289" y="1211" type="line"/>
			<point x="121" y="1211" type="line"/>
		</contour>
		<contour>
			<point x="-43" y="1142" type="line"/>
			<point x="282" y="1142" type="line"/>
			<point x="282" y="1289" type="line"/>
			<point x="-53" y="1289" type="line"/>
		</contour>
		<contour>
			<point x="206" y="1219" type="line"/>
			<point x="206" y="855" type="line"/>
			<point x="289" y="855" type="line"/>
			<point x="289" y="1219" type="line"/>
		</contour>
		<contour>
			<point x="206" y="1142" type="line"/>
			<point x="462" y="1142" type="line"/>
			<point x="452" y="1289" type="line"/>
			<point x="206" y="1289" type="line"/>
		</contour>
	</outline>
</glyph>
<glyph name="SignIi.bn" format="2">
	<advance width="405"/>
	<unicode hex="09C0"/>
	<anchor x="105" y="1451" name="top"/>
	<anchor x="203" y="1657" name="top2"/>
	<outline>
		<contour>
			<point x="-328" y="1388" type="curve" smooth="yes"/>
			<point x="-86" y="1388" type="line"/>
			<point x="-95" y="1520" type="line"/>
			<point x="-332" y="1520" type="line" smooth="yes"/>
			<point x="-409" y="1520"/>
			<point x="-441" y="1541"/>
			<point x="-441" y="1586" type="curve" smooth="yes"/>
			<point x="-441" y="1645"/>
			<point x="-382" y="1671"/>
			<point x="-256" y="1671" type="curve" smooth="yes"/>
			<point x="-29" y="1671"/>
			<point x="126" y="1550"/>
			<point x="126" y="1289" type="curve" smooth="yes"/>
			<point x="126" y="1188" type="line"/>
			<point x="287" y="1211" type="line"/>
			<point x="287" y="1274" type="line" smooth="yes"/>
			<point x="287" y="1629"/>
			<point x="66" y="1808"/>
			<point x="-267" y="1808" type="curve" smooth="yes"/>
			<point x="-481" y="1808"/>
			<point x="-601" y="1727"/>
			<point x="-601" y="1589" type="curve" smooth="yes"/>
			<point x="-601" y="1453"/>
			<point x="-512" y="1388"/>
		</contour>
		<contour>
			<point x="119" y="0" type="line"/>
			<point x="287" y="0" type="line"/>
			<point x="287" y="1211" type="line"/>
			<point x="119" y="1211" type="line"/>
		</contour>
		<contour>
			<point x="-45" y="1142" type="line"/>
			<point x="280" y="1142" type="line"/>
			<point x="280" y="1289" type="line"/>
			<point x="-55" y="1289" type="line"/>
		</contour>
		<contour>
			<point x="204" y="1219" type="line"/>
			<point x="204" y="855" type="line"/>
			<point x="287" y="855" type="line"/>
			<point x="287" y="1219" type="line"/>
		</contour>
		<contour>
			<point x="204" y="1142" type="line"/>
			<point x="460" y="1142" type="line"/>
			<point x="450" y="1289" type="line"/>
			<point x="204" y="1289" type="line"/>
		</contour>
	</outline>
</glyph>
<glyph name="SignU.bn" format="2">
	<advance width="0"/>
	<unicode hex="09C1"/>
	<anchor x="-583" y="-1" name="_bottom1"/>
	<outline>
		<contour>
			<point x="-738" y="-185" type="line"/>
			<point x="-583" y="-217" type="line"/>
			<point x="-583" y="59" type="line"/>
			<point x="-738" y="63" type="line"/>
		</contour>
		<contour>
			<point x="-349" y="-529" type="curve"/>
			<point x="-334" y="-380" type="line"/>
			<point x="-510" y="-199"/>
			<point x="-652" y="-95"/>
			<point x="-804" y="-95" type="curve" smooth="yes"/>
			<point x="-958" y="-95"/>
			<point x="-1046" y="-182"/>
			<point x="-1046" y="-322" type="curve" smooth="yes"/>
			<point x="-1046" y="-452"/>
			<point x="-969" y="-536"/>
			<point x="-822" y="-536" type="curve" smooth="yes"/>
			<point x="-690" y="-536"/>
			<point x="-602" y="-454"/>
			<point x="-602" y="-307" type="curve" smooth="yes"/>
			<point x="-602" y="-224" type="line"/>
			<point x="-738" y="-176" type="line"/>
			<point x="-738" y="-296" type="line" smooth="yes"/>
			<point x="-738" y="-369"/>
			<point x="-765" y="-406"/>
			<point x="-820" y="-406" type="curve" smooth="yes"/>
			<point x="-875" y="-406"/>
			<point x="-905" y="-370"/>
			<point x="-905" y="-319" type="curve" smooth="yes"/>
			<point x="-905" y="-263"/>
			<point x="-869" y="-224"/>
			<point x="-805" y="-224" type="curve" smooth="yes"/>
			<point x="-699" y="-224"/>
			<point x="-561" y="-314"/>
		</contour>
	</outline>
</glyph>
<glyph name="SignUu.bn" format="2">
	<advance width="0"/>
	<unicode hex="09C2"/>
	<anchor x="264" y="0" name="_bottom1"/>
	<outline>
		<contour>
			<point x="264" y="-222" type="line"/>
			<point x="264" y="59" type="line"/>
			<point x="109" y="63" type="line"/>
			<point x="109" y="-174" type="line"/>
		</contour>
		<contour>
			<point x="490" y="-626" type="line"/>
			<point x="506" y="-486" type="line"/>
			<point x="273" y="-337" type="line"/>
			<point x="231" y="-374"/>
			<point x="178" y="-396"/>
			<point x="130" y="-396" type="curve" smooth="yes"/>
			<point x="70" y="-396"/>
			<point x="29" y="-366"/>
			<point x="29" y="-313" type="curve" smooth="yes"/>
			<point x="29" y="-244"/>
			<point x="81" y="-220"/>
			<point x="145" y="-220" type="curve" smooth="yes"/>
			<point x="177" y="-220"/>
			<point x="216" y="-220"/>
			<point x="264" y="-222" type="curve"/>
			<point x="202" y="-101" type="line"/>
			<point x="179" y="-96"/>
			<point x="147" y="-92"/>
			<point x="110" y="-92" type="curve" smooth="yes"/>
			<point x="-34" y="-92"/>
			<point x="-126" y="-171"/>
			<point x="-126" y="-311" type="curve" smooth="yes"/>
			<point x="-126" y="-441"/>
			<point x="-45" y="-529"/>
			<point x="116" y="-529" type="curve" smooth="yes"/>
			<point x="190" y="-529"/>
			<point x="261" y="-495"/>
			<point x="296" y="-453" type="curve"/>
			<point x="220" y="-448" type="line"/>
		</contour>
	</outline>
</glyph>
<glyph name="SignRu.bn" format="2">
	<advance width="0"/>
	<unicode hex="09C3"/>
	<anchor x="-80" y="0" name="_bottom1"/>
	<outline>
		<contour>
			<point x="-80" y="-169" type="line"/>
			<point x="-80" y="59" type="line"/>
			<point x="-235" y="63" type="line"/>
			<point x="-235" y="-137" type="line"/>
		</contour>
		<contour>
			<point x="-13" y="-605" type="line"/>
			<point x="1" y="-467" type="line"/>
			<point x="-316" y="-306" type="line"/>
			<point x="-316" y="-300" type="line"/>
			<point x="-258" y="-266"/>
			<point x="-151" y="-205"/>
			<point x="-80" y="-168" type="curve"/>
			<point x="-100" y="-21" type="line"/>
			<point x="-235" y="-93"/>
			<point x="-394" y="-177"/>
			<point x="-488" y="-239" type="curve"/>
			<point x="-488" y="-369" type="line"/>
		</contour>
	</outline>
</glyph>
<glyph name="SignRuu.bn" format="2">
  <unicode hex="09C4"/>
  <anchor x="365" y="189" name="_bottom1"/>
  <outline>
    <contour>
      <point x="333" y="-501" type="curve"/>
      <point x="201" y="-414" type="line"/>
      <point x="110" y="-463"/>
      <point x="19" y="-514"/>
      <point x="-43" y="-555" type="curve"/>
      <point x="-43" y="-684" type="line"/>
      <point x="432" y="-920" type="line"/>
      <point x="446" y="-783" type="line"/>
      <point x="129" y="-622" type="line"/>
      <point x="129" y="-616" type="line"/>
      <point x="179" y="-587"/>
      <point x="265" y="-537"/>
    </contour>
    <contour>
      <point x="365" y="-169" type="line"/>
      <point x="365" y="59" type="line"/>
      <point x="210" y="63" type="line"/>
      <point x="210" y="-137" type="line"/>
    </contour>
    <contour>
      <point x="432" y="-606" type="line"/>
      <point x="446" y="-469" type="line"/>
      <point x="129" y="-308" type="line"/>
      <point x="129" y="-301" type="line"/>
      <point x="187" y="-267"/>
      <point x="294" y="-206"/>
      <point x="365" y="-169" type="curve"/>
      <point x="345" y="-20" type="line"/>
      <point x="210" y="-92"/>
      <point x="51" y="-176"/>
      <point x="-43" y="-238" type="curve"/>
      <point x="-43" y="-370" type="line"/>
    </contour>
  </outline>
</glyph>
<glyph name="SignE.bn" format="2">
	<advance width="471"/>
	<unicode hex="09C7"/>
	<outline>
		<contour>
			<point x="472" y="1170" type="curve"/>
			<point x="362" y="1222" type="line"/>
			<point x="188" y="1135"/>
			<point x="99" y="998"/>
			<point x="99" y="669" type="curve" smooth="yes"/>
			<point x="99" y="464" type="line" smooth="yes"/>
			<point x="99" y="197"/>
			<point x="201" y="-2"/>
			<point x="418" y="-34" type="curve" smooth="yes"/>
			<point x="445" y="-38" type="line"/>
			<point x="459" y="119" type="line"/>
			<point x="445" y="124" type="line" smooth="yes"/>
			<point x="339" y="162"/>
			<point x="268" y="241"/>
			<point x="268" y="465" type="curve" smooth="yes"/>
			<point x="268" y="673" type="line" smooth="yes"/>
			<point x="268" y="973"/>
			<point x="346" y="1094"/>
		</contour>
		<contour>
			<point x="-62" y="1142" type="line"/>
			<point x="617" y="1142" type="line"/>
			<point x="608" y="1289" type="line"/>
			<point x="-71" y="1289" type="line"/>
		</contour>
	</outline>
</glyph>
<glyph name="SignAi.bn" format="2">
  <advance width="482"/>
  <unicode hex="09C8"/>
  <anchor x="180.06" y="1520" name="top"/>
  <anchor x="273.06" y="1681" name="top2"/>
  <outline>
    <contour>
      <point x="483" y="1170" type="curve"/>
      <point x="373" y="1222" type="line"/>
      <point x="199" y="1135"/>
      <point x="110" y="998"/>
      <point x="110" y="669" type="curve" smooth="yes"/>
      <point x="110" y="464" type="line" smooth="yes"/>
      <point x="110" y="197"/>
      <point x="212" y="-2"/>
      <point x="429" y="-34" type="curve" smooth="yes"/>
      <point x="456" y="-38" type="line"/>
      <point x="470" y="119" type="line"/>
      <point x="456" y="124" type="line" smooth="yes"/>
      <point x="350" y="162"/>
      <point x="279" y="241"/>
      <point x="279" y="465" type="curve" smooth="yes"/>
      <point x="279" y="673" type="line" smooth="yes"/>
      <point x="279" y="973"/>
      <point x="357" y="1094"/>
    </contour>
    <contour>
      <point x="-51" y="1142" type="line"/>
      <point x="628" y="1142" type="line"/>
      <point x="619" y="1289" type="line"/>
      <point x="-60" y="1289" type="line"/>
    </contour>
    <contour>
      <point x="497" y="1321" type="line"/>
      <point x="502" y="1344"/>
      <point x="504" y="1365"/>
      <point x="504" y="1385" type="curve" smooth="yes"/>
      <point x="504" y="1556"/>
      <point x="398" y="1615"/>
      <point x="206" y="1615" type="curve" smooth="yes"/>
      <point x="203" y="1615" type="line" smooth="yes"/>
      <point x="110" y="1615"/>
      <point x="64" y="1649"/>
      <point x="61" y="1722" type="curve" smooth="yes"/>
      <point x="60" y="1749" type="line"/>
      <point x="-89" y="1749" type="line"/>
      <point x="-89" y="1713" type="line" smooth="yes"/>
      <point x="-89" y="1547"/>
      <point x="10" y="1462"/>
      <point x="202" y="1462" type="curve" smooth="yes"/>
      <point x="209" y="1462" type="line" smooth="yes"/>
      <point x="303" y="1462"/>
      <point x="344" y="1434"/>
      <point x="344" y="1360" type="curve" smooth="yes"/>
      <point x="344" y="1321"/>
      <point x="337" y="1286"/>
      <point x="325" y="1258" type="curve"/>
      <point x="368" y="1271" type="line"/>
    </contour>
  </outline>
</glyph>
<glyph name="SignO.bn" format="2">
	<advance width="1122"/>
	<unicode hex="09CB"/>
	<anchor x="822" y="1451" name="top"/>
	<anchor x="695" y="1713" name="top2"/>
	<outline>
		<contour>
			<point x="510" y="1289" type="line"/>
			<point x="510" y="1142" type="line"/>
			<point x="759" y="1142" type="line"/>
			<point x="759" y="1289" type="line"/>
		</contour>
		<contour>
			<point x="472" y="1170" type="curve"/>
			<point x="362" y="1222" type="line"/>
			<point x="188" y="1135"/>
			<point x="99" y="998"/>
			<point x="99" y="669" type="curve" smooth="yes"/>
			<point x="99" y="464" type="line" smooth="yes"/>
			<point x="99" y="197"/>
			<point x="201" y="-2"/>
			<point x="418" y="-34" type="curve" smooth="yes"/>
			<point x="445" y="-38" type="line"/>
			<point x="459" y="119" type="line"/>
			<point x="445" y="124" type="line" smooth="yes"/>
			<point x="339" y="162"/>
			<point x="268" y="241"/>
			<point x="268" y="465" type="curve" smooth="yes"/>
			<point x="268" y="673" type="line" smooth="yes"/>
			<point x="268" y="973"/>
			<point x="346" y="1094"/>
		</contour>
		<contour>
			<point x="-62" y="1142" type="line"/>
			<point x="617" y="1142" type="line"/>
			<point x="608" y="1289" type="line"/>
			<point x="-71" y="1289" type="line"/>
		</contour>
		<contour>
			<point x="836" y="0" type="line"/>
			<point x="1004" y="0" type="line"/>
			<point x="1004" y="1211" type="line"/>
			<point x="836" y="1211" type="line"/>
		</contour>
		<contour>
			<point x="672" y="1142" type="line"/>
			<point x="997" y="1142" type="line"/>
			<point x="997" y="1289" type="line"/>
			<point x="662" y="1289" type="line"/>
		</contour>
		<contour>
			<point x="921" y="1219" type="line"/>
			<point x="921" y="855" type="line"/>
			<point x="1004" y="855" type="line"/>
			<point x="1004" y="1219" type="line"/>
		</contour>
		<contour>
			<point x="921" y="1142" type="line"/>
			<point x="1177" y="1142" type="line"/>
			<point x="1167" y="1289" type="line"/>
			<point x="921" y="1289" type="line"/>
		</contour>
	</outline>
</glyph>
<glyph name="SignAu.bn" format="2">
	<advance width="1119"/>
	<unicode hex="09CC"/>
	<anchor x="180.06" y="1520" name="top"/>
	<anchor x="273.06" y="1681" name="top2"/>
	<outline>
		<contour>
			<point x="507" y="1289" type="line"/>
			<point x="507" y="1142" type="line"/>
			<point x="756" y="1142" type="line"/>
			<point x="756" y="1289" type="line"/>
		</contour>
		<contour>
			<point x="469" y="1170" type="curve"/>
			<point x="359" y="1222" type="line"/>
			<point x="185" y="1135"/>
			<point x="96" y="998"/>
			<point x="96" y="669" type="curve" smooth="yes"/>
			<point x="96" y="464" type="line" smooth="yes"/>
			<point x="96" y="197"/>
			<point x="198" y="-2"/>
			<point x="415" y="-34" type="curve" smooth="yes"/>
			<point x="442" y="-38" type="line"/>
			<point x="456" y="119" type="line"/>
			<point x="442" y="124" type="line" smooth="yes"/>
			<point x="336" y="162"/>
			<point x="265" y="241"/>
			<point x="265" y="465" type="curve" smooth="yes"/>
			<point x="265" y="673" type="line" smooth="yes"/>
			<point x="265" y="973"/>
			<point x="343" y="1094"/>
		</contour>
		<contour>
			<point x="-65" y="1142" type="line"/>
			<point x="614" y="1142" type="line"/>
			<point x="605" y="1289" type="line"/>
			<point x="-74" y="1289" type="line"/>
		</contour>
		<contour>
			<point x="833" y="0" type="line"/>
			<point x="1001" y="0" type="line"/>
			<point x="1001" y="1211" type="line"/>
			<point x="833" y="1211" type="line"/>
		</contour>
		<contour>
			<point x="669" y="1142" type="line"/>
			<point x="994" y="1142" type="line"/>
			<point x="994" y="1289" type="line"/>
			<point x="659" y="1289" type="line"/>
		</contour>
		<contour>
			<point x="918" y="1219" type="line"/>
			<point x="918" y="855" type="line"/>
			<point x="1001" y="855" type="line"/>
			<point x="1001" y="1219" type="line"/>
		</contour>
		<contour>
			<point x="918" y="1142" type="line"/>
			<point x="1174" y="1142" type="line"/>
			<point x="1164" y="1289" type="line"/>
			<point x="918" y="1289" type="line"/>
		</contour>
		<contour>
			<point x="497" y="1321" type="line"/>
			<point x="502" y="1344"/>
			<point x="504" y="1365"/>
			<point x="504" y="1385" type="curve" smooth="yes"/>
			<point x="504" y="1556"/>
			<point x="398" y="1615"/>
			<point x="206" y="1615" type="curve" smooth="yes"/>
			<point x="203" y="1615" type="line" smooth="yes"/>
			<point x="110" y="1615"/>
			<point x="64" y="1649"/>
			<point x="61" y="1722" type="curve" smooth="yes"/>
			<point x="60" y="1749" type="line"/>
			<point x="-89" y="1749" type="line"/>
			<point x="-89" y="1713" type="line" smooth="yes"/>
			<point x="-89" y="1547"/>
			<point x="10" y="1462"/>
			<point x="202" y="1462" type="curve" smooth="yes"/>
			<point x="209" y="1462" type="line" smooth="yes"/>
			<point x="303" y="1462"/>
			<point x="344" y="1434"/>
			<point x="344" y="1360" type="curve" smooth="yes"/>
			<point x="344" y="1321"/>
			<point x="337" y="1286"/>
			<point x="325" y="1258" type="curve"/>
			<point x="368" y="1271" type="line"/>
		</contour>
	</outline>
</glyph>
<glyph name="Hasant.bn" format="2">
  <unicode hex="09CD"/>
  <anchor x="-67" y="21" name="_bottom1"/>
  <outline>
    <contour>
      <point x="390" y="-327" type="line"/>
      <point x="10" y="-35" type="line"/>
      <point x="0" y="-227" type="line"/>
      <point x="380" y="-506" type="line"/>
    </contour>
  </outline>
</glyph>
<glyph name="KhandaTa.bn" format="2">
	<advance width="782"/>
	<unicode hex="09CE"/>
	<anchor x="60" y="-10" name="mark0"/>
	<outline>
		<contour>
			<point x="535" y="-2" type="curve"/>
			<point x="703" y="-2" type="line"/>
			<point x="703" y="24"/>
			<point x="703" y="49"/>
			<point x="703" y="75" type="curve" smooth="yes"/>
			<point x="703" y="217"/>
			<point x="636" y="343"/>
			<point x="488" y="435" type="curve" smooth="yes"/>
			<point x="391" y="495" type="line" smooth="yes"/>
			<point x="303" y="549"/>
			<point x="267" y="612"/>
			<point x="267" y="716" type="curve" smooth="yes"/>
			<point x="267" y="1000" type="line" smooth="yes"/>
			<point x="267" y="1099"/>
			<point x="307" y="1152"/>
			<point x="380" y="1152" type="curve" smooth="yes"/>
			<point x="454" y="1152"/>
			<point x="492" y="1099"/>
			<point x="492" y="1000" type="curve" smooth="yes"/>
			<point x="492" y="810" type="line" smooth="yes"/>
			<point x="492" y="740"/>
			<point x="472" y="706"/>
			<point x="422" y="706" type="curve" smooth="yes"/>
			<point x="392" y="706" type="line"/>
			<point x="402" y="551" type="line"/>
			<point x="445" y="551" type="line" smooth="yes"/>
			<point x="593" y="551"/>
			<point x="661" y="636"/>
			<point x="661" y="810" type="curve" smooth="yes"/>
			<point x="661" y="991" type="line" smooth="yes"/>
			<point x="661" y="1193"/>
			<point x="561" y="1307"/>
			<point x="379" y="1307" type="curve" smooth="yes"/>
			<point x="198" y="1307"/>
			<point x="99" y="1193"/>
			<point x="99" y="991" type="curve" smooth="yes"/>
			<point x="99" y="716" type="line" smooth="yes"/>
			<point x="99" y="554"/>
			<point x="156" y="458"/>
			<point x="318" y="352" type="curve" smooth="yes"/>
			<point x="414" y="289" type="line" smooth="yes"/>
			<point x="494" y="236"/>
			<point x="535" y="164"/>
			<point x="535" y="75" type="curve" smooth="yes"/>
			<point x="535" y="49"/>
			<point x="535" y="24"/>
		</contour>
	</outline>
</glyph>
<glyph name="SignAuMark.bn" format="2">
  <advance width="407"/>
  <unicode hex="09D7"/>
  <anchor x="-6.94" y="1520" name="top"/>
  <anchor x="86.06" y="1681" name="top2"/>
  <outline>
    <contour>
      <point x="121" y="0" type="line"/>
      <point x="289" y="0" type="line"/>
      <point x="289" y="1211" type="line"/>
      <point x="121" y="1211" type="line"/>
    </contour>
    <contour>
      <point x="-43" y="1142" type="line"/>
      <point x="282" y="1142" type="line"/>
      <point x="282" y="1289" type="line"/>
      <point x="-53" y="1289" type="line"/>
    </contour>
    <contour>
      <point x="206" y="1219" type="line"/>
      <point x="206" y="855" type="line"/>
      <point x="289" y="855" type="line"/>
      <point x="289" y="1219" type="line"/>
    </contour>
    <contour>
      <point x="206" y="1142" type="line"/>
      <point x="462" y="1142" type="line"/>
      <point x="452" y="1289" type="line"/>
      <point x="206" y="1289" type="line"/>
    </contour>
    <contour>
      <point x="310" y="1321" type="line"/>
      <point x="315" y="1344"/>
      <point x="317" y="1365"/>
      <point x="317" y="1385" type="curve" smooth="yes"/>
      <point x="317" y="1556"/>
      <point x="211" y="1615"/>
      <point x="19" y="1615" type="curve" smooth="yes"/>
      <point x="16" y="1615" type="line" smooth="yes"/>
      <point x="-77" y="1615"/>
      <point x="-123" y="1649"/>
      <point x="-126" y="1722" type="curve" smooth="yes"/>
      <point x="-127" y="1749" type="line"/>
      <point x="-276" y="1749" type="line"/>
      <point x="-276" y="1713" type="line" smooth="yes"/>
      <point x="-276" y="1547"/>
      <point x="-177" y="1462"/>
      <point x="15" y="1462" type="curve" smooth="yes"/>
      <point x="22" y="1462" type="line" smooth="yes"/>
      <point x="116" y="1462"/>
      <point x="157" y="1434"/>
      <point x="157" y="1360" type="curve" smooth="yes"/>
      <point x="157" y="1321"/>
      <point x="150" y="1286"/>
      <point x="138" y="1258" type="curve"/>
      <point x="181" y="1271" type="line"/>
    </contour>
  </outline>
</glyph>
<glyph name="Rra.bn" format="2">
	<advance width="1020"/>
	<unicode hex="09DC"/>
	<anchor x="693" y="189" name="bottom1"/>
	<anchor x="417" y="1451" name="top"/>
	<anchor x="286" y="1713" name="top2"/>
	<outline>
		<contour>
			<point x="281" y="446" type="curve" smooth="yes"/>
			<point x="251" y="972" type="line"/>
			<point x="89" y="972" type="line"/>
			<point x="119" y="431" type="line" smooth="yes"/>
			<point x="134" y="159"/>
			<point x="279" y="10"/>
			<point x="535" y="10" type="curve" smooth="yes"/>
			<point x="795" y="10"/>
			<point x="934" y="157"/>
			<point x="934" y="430" type="curve" smooth="yes"/>
			<point x="934" y="594"/>
			<point x="932" y="728"/>
			<point x="919" y="929" type="curve"/>
			<point x="784" y="937" type="line"/>
			<point x="768" y="831" type="line" smooth="yes"/>
			<point x="752" y="726"/>
			<point x="724" y="682"/>
			<point x="667" y="682" type="curve" smooth="yes"/>
			<point x="615" y="682"/>
			<point x="590" y="716"/>
			<point x="590" y="798" type="curve" smooth="yes"/>
			<point x="590" y="1244" type="line"/>
			<point x="422" y="1244" type="line"/>
			<point x="422" y="771" type="line" smooth="yes"/>
			<point x="422" y="610"/>
			<point x="493" y="527"/>
			<point x="630" y="527" type="curve" smooth="yes"/>
			<point x="740" y="527"/>
			<point x="804" y="602"/>
			<point x="829" y="714" type="curve" smooth="yes"/>
			<point x="857" y="840" type="line"/>
			<point x="765" y="717" type="line"/>
			<point x="766" y="631"/>
			<point x="766" y="529"/>
			<point x="766" y="430" type="curve" smooth="yes"/>
			<point x="766" y="257"/>
			<point x="686" y="167"/>
			<point x="532" y="167" type="curve" smooth="yes"/>
			<point x="377" y="167"/>
			<point x="291" y="266"/>
		</contour>
		<contour>
			<point x="-37" y="1142" type="line"/>
			<point x="1088" y="1142" type="line"/>
			<point x="1078" y="1289" type="line"/>
			<point x="-47" y="1289" type="line"/>
		</contour>
		<contour>
			<point x="542" y="-353" type="curve" smooth="yes"/>
			<point x="609" y="-353"/>
			<point x="637" y="-311"/>
			<point x="637" y="-237" type="curve" smooth="yes"/>
			<point x="637" y="-227" type="line" smooth="yes"/>
			<point x="637" y="-153"/>
			<point x="609" y="-111"/>
			<point x="542" y="-111" type="curve" smooth="yes"/>
			<point x="476" y="-111"/>
			<point x="447" y="-153"/>
			<point x="447" y="-227" type="curve" smooth="yes"/>
			<point x="447" y="-237" type="line" smooth="yes"/>
			<point x="447" y="-311"/>
			<point x="476" y="-353"/>
		</contour>
	</outline>
</glyph>
<glyph name="Rha.bn" format="2">
  <advance width="819"/>
  <unicode hex="09DD"/>
  <anchor x="544" y="189" name="bottom1"/>
  <anchor x="106" y="1451" name="top"/>
  <anchor x="184" y="1713" name="top2"/>
  <outline>
    <contour>
      <point x="395" y="-354" type="curve" smooth="yes"/>
      <point x="462" y="-354"/>
      <point x="490" y="-312"/>
      <point x="490" y="-238" type="curve" smooth="yes"/>
      <point x="490" y="-228" type="line" smooth="yes"/>
      <point x="490" y="-154"/>
      <point x="462" y="-112"/>
      <point x="395" y="-112" type="curve" smooth="yes"/>
      <point x="329" y="-112"/>
      <point x="300" y="-154"/>
      <point x="300" y="-228" type="curve" smooth="yes"/>
      <point x="300" y="-238" type="line" smooth="yes"/>
      <point x="300" y="-312"/>
      <point x="329" y="-354"/>
    </contour>
    <contour>
      <point x="412" y="10" type="curve" smooth="yes"/>
      <point x="581" y="10"/>
      <point x="687" y="103"/>
      <point x="707" y="286" type="curve" smooth="yes"/>
      <point x="720" y="394"/>
      <point x="739" y="595"/>
      <point x="739" y="652" type="curve" smooth="yes"/>
      <point x="739" y="814"/>
      <point x="653" y="897"/>
      <point x="497" y="897" type="curve" smooth="yes"/>
      <point x="470" y="897"/>
      <point x="449" y="897"/>
      <point x="415" y="897" type="curve"/>
      <point x="402" y="741" type="line"/>
      <point x="438" y="741"/>
      <point x="453" y="741"/>
      <point x="468" y="741" type="curve" smooth="yes"/>
      <point x="536" y="741"/>
      <point x="570" y="698"/>
      <point x="570" y="627" type="curve" smooth="yes"/>
      <point x="570" y="566"/>
      <point x="550" y="384"/>
      <point x="542" y="321" type="curve" smooth="yes"/>
      <point x="530" y="215"/>
      <point x="484" y="168"/>
      <point x="409" y="168" type="curve" smooth="yes"/>
      <point x="323" y="168"/>
      <point x="278" y="217"/>
      <point x="278" y="328" type="curve" smooth="yes"/>
      <point x="278" y="1240" type="line"/>
      <point x="111" y="1240" type="line"/>
      <point x="111" y="330" type="line" smooth="yes"/>
      <point x="111" y="114"/>
      <point x="207" y="10"/>
    </contour>
    <contour>
      <point x="-58" y="1142" type="line"/>
      <point x="853" y="1142" type="line"/>
      <point x="843" y="1289" type="line"/>
      <point x="-68" y="1289" type="line"/>
    </contour>
  </outline>
</glyph>
<glyph name="Yya.bn" format="2">
	<advance width="874"/>
	<unicode hex="09DF"/>
	<anchor x="758" y="-1" name="bottom1"/>
	<anchor x="574" y="1451" name="top"/>
	<anchor x="447" y="1713" name="top2"/>
	<outline>
		<contour>
			<point x="277" y="-144" type="curve" smooth="yes"/>
			<point x="344" y="-144"/>
			<point x="372" y="-102"/>
			<point x="372" y="-28" type="curve" smooth="yes"/>
			<point x="372" y="-18" type="line" smooth="yes"/>
			<point x="372" y="56"/>
			<point x="344" y="98"/>
			<point x="277" y="98" type="curve" smooth="yes"/>
			<point x="211" y="98"/>
			<point x="182" y="56"/>
			<point x="182" y="-18" type="curve" smooth="yes"/>
			<point x="182" y="-28" type="line" smooth="yes"/>
			<point x="182" y="-102"/>
			<point x="211" y="-144"/>
		</contour>
		<contour>
			<point x="612" y="-1" type="line"/>
			<point x="756" y="-1" type="line"/>
			<point x="756" y="1233" type="line"/>
			<point x="588" y="1233" type="line"/>
			<point x="588" y="312" type="line"/>
			<point x="596" y="128" type="line"/>
			<point x="613" y="180" type="line"/>
			<point x="254" y="451" type="line"/>
			<point x="272" y="373" type="line"/>
			<point x="272" y="626" type="line"/>
			<point x="246" y="568" type="line"/>
			<point x="451" y="745" type="line"/>
			<point x="451" y="883" type="line"/>
			<point x="363" y="981"/>
			<point x="226" y="1133"/>
			<point x="124" y="1241" type="curve"/>
			<point x="54" y="1237" type="line"/>
			<point x="54" y="1047" type="line"/>
			<point x="287" y="834" type="line"/>
			<point x="287" y="824" type="line"/>
			<point x="105" y="659" type="line"/>
			<point x="105" y="365" type="line"/>
		</contour>
		<contour>
			<point x="-75" y="1142" type="line"/>
			<point x="750" y="1142" type="line"/>
			<point x="750" y="1289" type="line"/>
			<point x="-85" y="1289" type="line"/>
		</contour>
		<contour>
			<point x="673" y="1219" type="line"/>
			<point x="673" y="855" type="line"/>
			<point x="756" y="855" type="line"/>
			<point x="756" y="1219" type="line"/>
		</contour>
		<contour>
			<point x="673" y="1142" type="line"/>
			<point x="929" y="1142" type="line"/>
			<point x="919" y="1289" type="line"/>
			<point x="673" y="1289" type="line"/>
		</contour>
	</outline>
</glyph>
